G04 #@! TF.GenerationSoftware,KiCad,Pcbnew,(5.1.6)-1*
G04 #@! TF.CreationDate,2020-07-25T12:49:49+03:00*
G04 #@! TF.ProjectId,ergo33,6572676f-3333-42e6-9b69-6361645f7063,rev?*
G04 #@! TF.SameCoordinates,Original*
G04 #@! TF.FileFunction,Copper,L2,Bot*
G04 #@! TF.FilePolarity,Positive*
%FSLAX46Y46*%
G04 Gerber Fmt 4.6, Leading zero omitted, Abs format (unit mm)*
G04 Created by KiCad (PCBNEW (5.1.6)-1) date 2020-07-25 12:49:49*
%MOMM*%
%LPD*%
G01*
G04 APERTURE LIST*
G04 #@! TA.AperFunction,EtchedComponent*
%ADD10C,0.100000*%
G04 #@! TD*
G04 #@! TA.AperFunction,SMDPad,CuDef*
%ADD11C,0.100000*%
G04 #@! TD*
G04 #@! TA.AperFunction,ComponentPad*
%ADD12C,3.500000*%
G04 #@! TD*
G04 #@! TA.AperFunction,SMDPad,CuDef*
%ADD13R,0.650000X1.560000*%
G04 #@! TD*
G04 #@! TA.AperFunction,SMDPad,CuDef*
%ADD14R,0.600000X2.450000*%
G04 #@! TD*
G04 #@! TA.AperFunction,SMDPad,CuDef*
%ADD15R,0.300000X2.450000*%
G04 #@! TD*
G04 #@! TA.AperFunction,ComponentPad*
%ADD16O,1.000000X2.100000*%
G04 #@! TD*
G04 #@! TA.AperFunction,ComponentPad*
%ADD17O,1.000000X1.600000*%
G04 #@! TD*
G04 #@! TA.AperFunction,SMDPad,CuDef*
%ADD18R,2.550000X2.500000*%
G04 #@! TD*
G04 #@! TA.AperFunction,ComponentPad*
%ADD19C,2.000000*%
G04 #@! TD*
G04 #@! TA.AperFunction,ComponentPad*
%ADD20R,3.200000X2.000000*%
G04 #@! TD*
G04 #@! TA.AperFunction,ComponentPad*
%ADD21R,2.000000X2.000000*%
G04 #@! TD*
G04 #@! TA.AperFunction,SMDPad,CuDef*
%ADD22R,0.550000X1.500000*%
G04 #@! TD*
G04 #@! TA.AperFunction,SMDPad,CuDef*
%ADD23R,1.500000X0.550000*%
G04 #@! TD*
G04 #@! TA.AperFunction,SMDPad,CuDef*
%ADD24R,1.100000X1.800000*%
G04 #@! TD*
G04 #@! TA.AperFunction,SMDPad,CuDef*
%ADD25R,1.000000X1.500000*%
G04 #@! TD*
G04 #@! TA.AperFunction,SMDPad,CuDef*
%ADD26R,1.500000X1.000000*%
G04 #@! TD*
G04 #@! TA.AperFunction,ComponentPad*
%ADD27R,1.700000X1.700000*%
G04 #@! TD*
G04 #@! TA.AperFunction,ComponentPad*
%ADD28O,1.700000X1.700000*%
G04 #@! TD*
G04 #@! TA.AperFunction,SMDPad,CuDef*
%ADD29R,0.900000X1.200000*%
G04 #@! TD*
G04 #@! TA.AperFunction,SMDPad,CuDef*
%ADD30R,1.200000X0.900000*%
G04 #@! TD*
G04 #@! TA.AperFunction,ViaPad*
%ADD31C,0.800000*%
G04 #@! TD*
G04 #@! TA.AperFunction,Conductor*
%ADD32C,0.250000*%
G04 #@! TD*
G04 #@! TA.AperFunction,Conductor*
%ADD33C,0.375000*%
G04 #@! TD*
G04 #@! TA.AperFunction,Conductor*
%ADD34C,0.500000*%
G04 #@! TD*
G04 APERTURE END LIST*
D10*
G36*
X167900000Y-80500000D02*
G01*
X167900000Y-81000000D01*
X168300000Y-81000000D01*
X168300000Y-80500000D01*
X167900000Y-80500000D01*
G37*
G36*
X167100000Y-80500000D02*
G01*
X167100000Y-81000000D01*
X167500000Y-81000000D01*
X167500000Y-80500000D01*
X167100000Y-80500000D01*
G37*
G04 #@! TA.AperFunction,SMDPad,CuDef*
D11*
G36*
X191165066Y-65837968D02*
G01*
X189892274Y-67110760D01*
X188407350Y-65625836D01*
X189680142Y-64353044D01*
X191165066Y-65837968D01*
G37*
G04 #@! TD.AperFunction*
G04 #@! TA.AperFunction,SMDPad,CuDef*
G36*
X189114456Y-63787358D02*
G01*
X187841664Y-65060150D01*
X186356740Y-63575226D01*
X187629532Y-62302434D01*
X189114456Y-63787358D01*
G37*
G04 #@! TD.AperFunction*
G04 #@! TA.AperFunction,SMDPad,CuDef*
G36*
X187488110Y-65413704D02*
G01*
X186215318Y-66686496D01*
X184730394Y-65201572D01*
X186003186Y-63928780D01*
X187488110Y-65413704D01*
G37*
G04 #@! TD.AperFunction*
G04 #@! TA.AperFunction,SMDPad,CuDef*
G36*
X189538720Y-67464314D02*
G01*
X188265928Y-68737106D01*
X186781004Y-67252182D01*
X188053796Y-65979390D01*
X189538720Y-67464314D01*
G37*
G04 #@! TD.AperFunction*
G04 #@! TA.AperFunction,SMDPad,CuDef*
G36*
G01*
X176075000Y-46275000D02*
X177325000Y-46275000D01*
G75*
G02*
X177575000Y-46525000I0J-250000D01*
G01*
X177575000Y-47450000D01*
G75*
G02*
X177325000Y-47700000I-250000J0D01*
G01*
X176075000Y-47700000D01*
G75*
G02*
X175825000Y-47450000I0J250000D01*
G01*
X175825000Y-46525000D01*
G75*
G02*
X176075000Y-46275000I250000J0D01*
G01*
G37*
G04 #@! TD.AperFunction*
G04 #@! TA.AperFunction,SMDPad,CuDef*
G36*
G01*
X176075000Y-43300000D02*
X177325000Y-43300000D01*
G75*
G02*
X177575000Y-43550000I0J-250000D01*
G01*
X177575000Y-44475000D01*
G75*
G02*
X177325000Y-44725000I-250000J0D01*
G01*
X176075000Y-44725000D01*
G75*
G02*
X175825000Y-44475000I0J250000D01*
G01*
X175825000Y-43550000D01*
G75*
G02*
X176075000Y-43300000I250000J0D01*
G01*
G37*
G04 #@! TD.AperFunction*
G04 #@! TA.AperFunction,SMDPad,CuDef*
G36*
G01*
X181250001Y-33150000D02*
X180349999Y-33150000D01*
G75*
G02*
X180100000Y-32900001I0J249999D01*
G01*
X180100000Y-32249999D01*
G75*
G02*
X180349999Y-32000000I249999J0D01*
G01*
X181250001Y-32000000D01*
G75*
G02*
X181500000Y-32249999I0J-249999D01*
G01*
X181500000Y-32900001D01*
G75*
G02*
X181250001Y-33150000I-249999J0D01*
G01*
G37*
G04 #@! TD.AperFunction*
G04 #@! TA.AperFunction,SMDPad,CuDef*
G36*
G01*
X181250001Y-35200000D02*
X180349999Y-35200000D01*
G75*
G02*
X180100000Y-34950001I0J249999D01*
G01*
X180100000Y-34299999D01*
G75*
G02*
X180349999Y-34050000I249999J0D01*
G01*
X181250001Y-34050000D01*
G75*
G02*
X181500000Y-34299999I0J-249999D01*
G01*
X181500000Y-34950001D01*
G75*
G02*
X181250001Y-35200000I-249999J0D01*
G01*
G37*
G04 #@! TD.AperFunction*
G04 #@! TA.AperFunction,SMDPad,CuDef*
G36*
G01*
X166150001Y-33150000D02*
X165249999Y-33150000D01*
G75*
G02*
X165000000Y-32900001I0J249999D01*
G01*
X165000000Y-32249999D01*
G75*
G02*
X165249999Y-32000000I249999J0D01*
G01*
X166150001Y-32000000D01*
G75*
G02*
X166400000Y-32249999I0J-249999D01*
G01*
X166400000Y-32900001D01*
G75*
G02*
X166150001Y-33150000I-249999J0D01*
G01*
G37*
G04 #@! TD.AperFunction*
G04 #@! TA.AperFunction,SMDPad,CuDef*
G36*
G01*
X166150001Y-35200000D02*
X165249999Y-35200000D01*
G75*
G02*
X165000000Y-34950001I0J249999D01*
G01*
X165000000Y-34299999D01*
G75*
G02*
X165249999Y-34050000I249999J0D01*
G01*
X166150001Y-34050000D01*
G75*
G02*
X166400000Y-34299999I0J-249999D01*
G01*
X166400000Y-34950001D01*
G75*
G02*
X166150001Y-35200000I-249999J0D01*
G01*
G37*
G04 #@! TD.AperFunction*
G04 #@! TA.AperFunction,SMDPad,CuDef*
G36*
G01*
X164149999Y-72050000D02*
X165050001Y-72050000D01*
G75*
G02*
X165300000Y-72299999I0J-249999D01*
G01*
X165300000Y-72950001D01*
G75*
G02*
X165050001Y-73200000I-249999J0D01*
G01*
X164149999Y-73200000D01*
G75*
G02*
X163900000Y-72950001I0J249999D01*
G01*
X163900000Y-72299999D01*
G75*
G02*
X164149999Y-72050000I249999J0D01*
G01*
G37*
G04 #@! TD.AperFunction*
G04 #@! TA.AperFunction,SMDPad,CuDef*
G36*
G01*
X164149999Y-70000000D02*
X165050001Y-70000000D01*
G75*
G02*
X165300000Y-70249999I0J-249999D01*
G01*
X165300000Y-70900001D01*
G75*
G02*
X165050001Y-71150000I-249999J0D01*
G01*
X164149999Y-71150000D01*
G75*
G02*
X163900000Y-70900001I0J249999D01*
G01*
X163900000Y-70249999D01*
G75*
G02*
X164149999Y-70000000I249999J0D01*
G01*
G37*
G04 #@! TD.AperFunction*
G04 #@! TA.AperFunction,SMDPad,CuDef*
G36*
G01*
X172250001Y-50550000D02*
X171349999Y-50550000D01*
G75*
G02*
X171100000Y-50300001I0J249999D01*
G01*
X171100000Y-49649999D01*
G75*
G02*
X171349999Y-49400000I249999J0D01*
G01*
X172250001Y-49400000D01*
G75*
G02*
X172500000Y-49649999I0J-249999D01*
G01*
X172500000Y-50300001D01*
G75*
G02*
X172250001Y-50550000I-249999J0D01*
G01*
G37*
G04 #@! TD.AperFunction*
G04 #@! TA.AperFunction,SMDPad,CuDef*
G36*
G01*
X172250001Y-52600000D02*
X171349999Y-52600000D01*
G75*
G02*
X171100000Y-52350001I0J249999D01*
G01*
X171100000Y-51699999D01*
G75*
G02*
X171349999Y-51450000I249999J0D01*
G01*
X172250001Y-51450000D01*
G75*
G02*
X172500000Y-51699999I0J-249999D01*
G01*
X172500000Y-52350001D01*
G75*
G02*
X172250001Y-52600000I-249999J0D01*
G01*
G37*
G04 #@! TD.AperFunction*
G04 #@! TA.AperFunction,SMDPad,CuDef*
G36*
G01*
X168950001Y-50550000D02*
X168049999Y-50550000D01*
G75*
G02*
X167800000Y-50300001I0J249999D01*
G01*
X167800000Y-49649999D01*
G75*
G02*
X168049999Y-49400000I249999J0D01*
G01*
X168950001Y-49400000D01*
G75*
G02*
X169200000Y-49649999I0J-249999D01*
G01*
X169200000Y-50300001D01*
G75*
G02*
X168950001Y-50550000I-249999J0D01*
G01*
G37*
G04 #@! TD.AperFunction*
G04 #@! TA.AperFunction,SMDPad,CuDef*
G36*
G01*
X168950001Y-52600000D02*
X168049999Y-52600000D01*
G75*
G02*
X167800000Y-52350001I0J249999D01*
G01*
X167800000Y-51699999D01*
G75*
G02*
X168049999Y-51450000I249999J0D01*
G01*
X168950001Y-51450000D01*
G75*
G02*
X169200000Y-51699999I0J-249999D01*
G01*
X169200000Y-52350001D01*
G75*
G02*
X168950001Y-52600000I-249999J0D01*
G01*
G37*
G04 #@! TD.AperFunction*
G04 #@! TA.AperFunction,SMDPad,CuDef*
G36*
G01*
X183750001Y-54750000D02*
X182849999Y-54750000D01*
G75*
G02*
X182600000Y-54500001I0J249999D01*
G01*
X182600000Y-53849999D01*
G75*
G02*
X182849999Y-53600000I249999J0D01*
G01*
X183750001Y-53600000D01*
G75*
G02*
X184000000Y-53849999I0J-249999D01*
G01*
X184000000Y-54500001D01*
G75*
G02*
X183750001Y-54750000I-249999J0D01*
G01*
G37*
G04 #@! TD.AperFunction*
G04 #@! TA.AperFunction,SMDPad,CuDef*
G36*
G01*
X183750001Y-56800000D02*
X182849999Y-56800000D01*
G75*
G02*
X182600000Y-56550001I0J249999D01*
G01*
X182600000Y-55899999D01*
G75*
G02*
X182849999Y-55650000I249999J0D01*
G01*
X183750001Y-55650000D01*
G75*
G02*
X184000000Y-55899999I0J-249999D01*
G01*
X184000000Y-56550001D01*
G75*
G02*
X183750001Y-56800000I-249999J0D01*
G01*
G37*
G04 #@! TD.AperFunction*
G04 #@! TA.AperFunction,SMDPad,CuDef*
G36*
G01*
X148949999Y-46650000D02*
X149850001Y-46650000D01*
G75*
G02*
X150100000Y-46899999I0J-249999D01*
G01*
X150100000Y-47550001D01*
G75*
G02*
X149850001Y-47800000I-249999J0D01*
G01*
X148949999Y-47800000D01*
G75*
G02*
X148700000Y-47550001I0J249999D01*
G01*
X148700000Y-46899999D01*
G75*
G02*
X148949999Y-46650000I249999J0D01*
G01*
G37*
G04 #@! TD.AperFunction*
G04 #@! TA.AperFunction,SMDPad,CuDef*
G36*
G01*
X148949999Y-44600000D02*
X149850001Y-44600000D01*
G75*
G02*
X150100000Y-44849999I0J-249999D01*
G01*
X150100000Y-45500001D01*
G75*
G02*
X149850001Y-45750000I-249999J0D01*
G01*
X148949999Y-45750000D01*
G75*
G02*
X148700000Y-45500001I0J249999D01*
G01*
X148700000Y-44849999D01*
G75*
G02*
X148949999Y-44600000I249999J0D01*
G01*
G37*
G04 #@! TD.AperFunction*
G04 #@! TA.AperFunction,SMDPad,CuDef*
G36*
G01*
X174050001Y-43850000D02*
X173149999Y-43850000D01*
G75*
G02*
X172900000Y-43600001I0J249999D01*
G01*
X172900000Y-42949999D01*
G75*
G02*
X173149999Y-42700000I249999J0D01*
G01*
X174050001Y-42700000D01*
G75*
G02*
X174300000Y-42949999I0J-249999D01*
G01*
X174300000Y-43600001D01*
G75*
G02*
X174050001Y-43850000I-249999J0D01*
G01*
G37*
G04 #@! TD.AperFunction*
G04 #@! TA.AperFunction,SMDPad,CuDef*
G36*
G01*
X174050001Y-45900000D02*
X173149999Y-45900000D01*
G75*
G02*
X172900000Y-45650001I0J249999D01*
G01*
X172900000Y-44999999D01*
G75*
G02*
X173149999Y-44750000I249999J0D01*
G01*
X174050001Y-44750000D01*
G75*
G02*
X174300000Y-44999999I0J-249999D01*
G01*
X174300000Y-45650001D01*
G75*
G02*
X174050001Y-45900000I-249999J0D01*
G01*
G37*
G04 #@! TD.AperFunction*
G04 #@! TA.AperFunction,SMDPad,CuDef*
G36*
G01*
X186012500Y-39749999D02*
X186012500Y-40650001D01*
G75*
G02*
X185762501Y-40900000I-249999J0D01*
G01*
X185112499Y-40900000D01*
G75*
G02*
X184862500Y-40650001I0J249999D01*
G01*
X184862500Y-39749999D01*
G75*
G02*
X185112499Y-39500000I249999J0D01*
G01*
X185762501Y-39500000D01*
G75*
G02*
X186012500Y-39749999I0J-249999D01*
G01*
G37*
G04 #@! TD.AperFunction*
G04 #@! TA.AperFunction,SMDPad,CuDef*
G36*
G01*
X188062500Y-39749999D02*
X188062500Y-40650001D01*
G75*
G02*
X187812501Y-40900000I-249999J0D01*
G01*
X187162499Y-40900000D01*
G75*
G02*
X186912500Y-40650001I0J249999D01*
G01*
X186912500Y-39749999D01*
G75*
G02*
X187162499Y-39500000I249999J0D01*
G01*
X187812501Y-39500000D01*
G75*
G02*
X188062500Y-39749999I0J-249999D01*
G01*
G37*
G04 #@! TD.AperFunction*
G04 #@! TA.AperFunction,SMDPad,CuDef*
G36*
G01*
X175850001Y-56350000D02*
X174949999Y-56350000D01*
G75*
G02*
X174700000Y-56100001I0J249999D01*
G01*
X174700000Y-55449999D01*
G75*
G02*
X174949999Y-55200000I249999J0D01*
G01*
X175850001Y-55200000D01*
G75*
G02*
X176100000Y-55449999I0J-249999D01*
G01*
X176100000Y-56100001D01*
G75*
G02*
X175850001Y-56350000I-249999J0D01*
G01*
G37*
G04 #@! TD.AperFunction*
G04 #@! TA.AperFunction,SMDPad,CuDef*
G36*
G01*
X175850001Y-58400000D02*
X174949999Y-58400000D01*
G75*
G02*
X174700000Y-58150001I0J249999D01*
G01*
X174700000Y-57499999D01*
G75*
G02*
X174949999Y-57250000I249999J0D01*
G01*
X175850001Y-57250000D01*
G75*
G02*
X176100000Y-57499999I0J-249999D01*
G01*
X176100000Y-58150001D01*
G75*
G02*
X175850001Y-58400000I-249999J0D01*
G01*
G37*
G04 #@! TD.AperFunction*
G04 #@! TA.AperFunction,SMDPad,CuDef*
G36*
G01*
X165050000Y-58049999D02*
X165050000Y-58950001D01*
G75*
G02*
X164800001Y-59200000I-249999J0D01*
G01*
X164149999Y-59200000D01*
G75*
G02*
X163900000Y-58950001I0J249999D01*
G01*
X163900000Y-58049999D01*
G75*
G02*
X164149999Y-57800000I249999J0D01*
G01*
X164800001Y-57800000D01*
G75*
G02*
X165050000Y-58049999I0J-249999D01*
G01*
G37*
G04 #@! TD.AperFunction*
G04 #@! TA.AperFunction,SMDPad,CuDef*
G36*
G01*
X167100000Y-58049999D02*
X167100000Y-58950001D01*
G75*
G02*
X166850001Y-59200000I-249999J0D01*
G01*
X166199999Y-59200000D01*
G75*
G02*
X165950000Y-58950001I0J249999D01*
G01*
X165950000Y-58049999D01*
G75*
G02*
X166199999Y-57800000I249999J0D01*
G01*
X166850001Y-57800000D01*
G75*
G02*
X167100000Y-58049999I0J-249999D01*
G01*
G37*
G04 #@! TD.AperFunction*
G04 #@! TA.AperFunction,SMDPad,CuDef*
G36*
G01*
X179550000Y-56550001D02*
X179550000Y-55649999D01*
G75*
G02*
X179799999Y-55400000I249999J0D01*
G01*
X180450001Y-55400000D01*
G75*
G02*
X180700000Y-55649999I0J-249999D01*
G01*
X180700000Y-56550001D01*
G75*
G02*
X180450001Y-56800000I-249999J0D01*
G01*
X179799999Y-56800000D01*
G75*
G02*
X179550000Y-56550001I0J249999D01*
G01*
G37*
G04 #@! TD.AperFunction*
G04 #@! TA.AperFunction,SMDPad,CuDef*
G36*
G01*
X177500000Y-56550001D02*
X177500000Y-55649999D01*
G75*
G02*
X177749999Y-55400000I249999J0D01*
G01*
X178400001Y-55400000D01*
G75*
G02*
X178650000Y-55649999I0J-249999D01*
G01*
X178650000Y-56550001D01*
G75*
G02*
X178400001Y-56800000I-249999J0D01*
G01*
X177749999Y-56800000D01*
G75*
G02*
X177500000Y-56550001I0J249999D01*
G01*
G37*
G04 #@! TD.AperFunction*
G04 #@! TA.AperFunction,SMDPad,CuDef*
G36*
G01*
X158650000Y-79949999D02*
X158650000Y-80850001D01*
G75*
G02*
X158400001Y-81100000I-249999J0D01*
G01*
X157749999Y-81100000D01*
G75*
G02*
X157500000Y-80850001I0J249999D01*
G01*
X157500000Y-79949999D01*
G75*
G02*
X157749999Y-79700000I249999J0D01*
G01*
X158400001Y-79700000D01*
G75*
G02*
X158650000Y-79949999I0J-249999D01*
G01*
G37*
G04 #@! TD.AperFunction*
G04 #@! TA.AperFunction,SMDPad,CuDef*
G36*
G01*
X160700000Y-79949999D02*
X160700000Y-80850001D01*
G75*
G02*
X160450001Y-81100000I-249999J0D01*
G01*
X159799999Y-81100000D01*
G75*
G02*
X159550000Y-80850001I0J249999D01*
G01*
X159550000Y-79949999D01*
G75*
G02*
X159799999Y-79700000I249999J0D01*
G01*
X160450001Y-79700000D01*
G75*
G02*
X160700000Y-79949999I0J-249999D01*
G01*
G37*
G04 #@! TD.AperFunction*
G04 #@! TA.AperFunction,SMDPad,CuDef*
G36*
G01*
X156050000Y-101149999D02*
X156050000Y-102050001D01*
G75*
G02*
X155800001Y-102300000I-249999J0D01*
G01*
X155149999Y-102300000D01*
G75*
G02*
X154900000Y-102050001I0J249999D01*
G01*
X154900000Y-101149999D01*
G75*
G02*
X155149999Y-100900000I249999J0D01*
G01*
X155800001Y-100900000D01*
G75*
G02*
X156050000Y-101149999I0J-249999D01*
G01*
G37*
G04 #@! TD.AperFunction*
G04 #@! TA.AperFunction,SMDPad,CuDef*
G36*
G01*
X158100000Y-101149999D02*
X158100000Y-102050001D01*
G75*
G02*
X157850001Y-102300000I-249999J0D01*
G01*
X157199999Y-102300000D01*
G75*
G02*
X156950000Y-102050001I0J249999D01*
G01*
X156950000Y-101149999D01*
G75*
G02*
X157199999Y-100900000I249999J0D01*
G01*
X157850001Y-100900000D01*
G75*
G02*
X158100000Y-101149999I0J-249999D01*
G01*
G37*
G04 #@! TD.AperFunction*
G04 #@! TA.AperFunction,SMDPad,CuDef*
G36*
G01*
X124750001Y-103150000D02*
X123849999Y-103150000D01*
G75*
G02*
X123600000Y-102900001I0J249999D01*
G01*
X123600000Y-102249999D01*
G75*
G02*
X123849999Y-102000000I249999J0D01*
G01*
X124750001Y-102000000D01*
G75*
G02*
X125000000Y-102249999I0J-249999D01*
G01*
X125000000Y-102900001D01*
G75*
G02*
X124750001Y-103150000I-249999J0D01*
G01*
G37*
G04 #@! TD.AperFunction*
G04 #@! TA.AperFunction,SMDPad,CuDef*
G36*
G01*
X124750001Y-105200000D02*
X123849999Y-105200000D01*
G75*
G02*
X123600000Y-104950001I0J249999D01*
G01*
X123600000Y-104299999D01*
G75*
G02*
X123849999Y-104050000I249999J0D01*
G01*
X124750001Y-104050000D01*
G75*
G02*
X125000000Y-104299999I0J-249999D01*
G01*
X125000000Y-104950001D01*
G75*
G02*
X124750001Y-105200000I-249999J0D01*
G01*
G37*
G04 #@! TD.AperFunction*
G04 #@! TA.AperFunction,SMDPad,CuDef*
G36*
G01*
X86650001Y-100950000D02*
X85749999Y-100950000D01*
G75*
G02*
X85500000Y-100700001I0J249999D01*
G01*
X85500000Y-100049999D01*
G75*
G02*
X85749999Y-99800000I249999J0D01*
G01*
X86650001Y-99800000D01*
G75*
G02*
X86900000Y-100049999I0J-249999D01*
G01*
X86900000Y-100700001D01*
G75*
G02*
X86650001Y-100950000I-249999J0D01*
G01*
G37*
G04 #@! TD.AperFunction*
G04 #@! TA.AperFunction,SMDPad,CuDef*
G36*
G01*
X86650001Y-103000000D02*
X85749999Y-103000000D01*
G75*
G02*
X85500000Y-102750001I0J249999D01*
G01*
X85500000Y-102099999D01*
G75*
G02*
X85749999Y-101850000I249999J0D01*
G01*
X86650001Y-101850000D01*
G75*
G02*
X86900000Y-102099999I0J-249999D01*
G01*
X86900000Y-102750001D01*
G75*
G02*
X86650001Y-103000000I-249999J0D01*
G01*
G37*
G04 #@! TD.AperFunction*
G04 #@! TA.AperFunction,SMDPad,CuDef*
G36*
G01*
X48450001Y-92150000D02*
X47549999Y-92150000D01*
G75*
G02*
X47300000Y-91900001I0J249999D01*
G01*
X47300000Y-91249999D01*
G75*
G02*
X47549999Y-91000000I249999J0D01*
G01*
X48450001Y-91000000D01*
G75*
G02*
X48700000Y-91249999I0J-249999D01*
G01*
X48700000Y-91900001D01*
G75*
G02*
X48450001Y-92150000I-249999J0D01*
G01*
G37*
G04 #@! TD.AperFunction*
G04 #@! TA.AperFunction,SMDPad,CuDef*
G36*
G01*
X48450001Y-94200000D02*
X47549999Y-94200000D01*
G75*
G02*
X47300000Y-93950001I0J249999D01*
G01*
X47300000Y-93299999D01*
G75*
G02*
X47549999Y-93050000I249999J0D01*
G01*
X48450001Y-93050000D01*
G75*
G02*
X48700000Y-93299999I0J-249999D01*
G01*
X48700000Y-93950001D01*
G75*
G02*
X48450001Y-94200000I-249999J0D01*
G01*
G37*
G04 #@! TD.AperFunction*
G04 #@! TA.AperFunction,SMDPad,CuDef*
G36*
G01*
X46549999Y-76250000D02*
X47450001Y-76250000D01*
G75*
G02*
X47700000Y-76499999I0J-249999D01*
G01*
X47700000Y-77150001D01*
G75*
G02*
X47450001Y-77400000I-249999J0D01*
G01*
X46549999Y-77400000D01*
G75*
G02*
X46300000Y-77150001I0J249999D01*
G01*
X46300000Y-76499999D01*
G75*
G02*
X46549999Y-76250000I249999J0D01*
G01*
G37*
G04 #@! TD.AperFunction*
G04 #@! TA.AperFunction,SMDPad,CuDef*
G36*
G01*
X46549999Y-74200000D02*
X47450001Y-74200000D01*
G75*
G02*
X47700000Y-74449999I0J-249999D01*
G01*
X47700000Y-75100001D01*
G75*
G02*
X47450001Y-75350000I-249999J0D01*
G01*
X46549999Y-75350000D01*
G75*
G02*
X46300000Y-75100001I0J249999D01*
G01*
X46300000Y-74449999D01*
G75*
G02*
X46549999Y-74200000I249999J0D01*
G01*
G37*
G04 #@! TD.AperFunction*
G04 #@! TA.AperFunction,SMDPad,CuDef*
G36*
G01*
X46549999Y-38050000D02*
X47450001Y-38050000D01*
G75*
G02*
X47700000Y-38299999I0J-249999D01*
G01*
X47700000Y-38950001D01*
G75*
G02*
X47450001Y-39200000I-249999J0D01*
G01*
X46549999Y-39200000D01*
G75*
G02*
X46300000Y-38950001I0J249999D01*
G01*
X46300000Y-38299999D01*
G75*
G02*
X46549999Y-38050000I249999J0D01*
G01*
G37*
G04 #@! TD.AperFunction*
G04 #@! TA.AperFunction,SMDPad,CuDef*
G36*
G01*
X46549999Y-36000000D02*
X47450001Y-36000000D01*
G75*
G02*
X47700000Y-36249999I0J-249999D01*
G01*
X47700000Y-36900001D01*
G75*
G02*
X47450001Y-37150000I-249999J0D01*
G01*
X46549999Y-37150000D01*
G75*
G02*
X46300000Y-36900001I0J249999D01*
G01*
X46300000Y-36249999D01*
G75*
G02*
X46549999Y-36000000I249999J0D01*
G01*
G37*
G04 #@! TD.AperFunction*
G04 #@! TA.AperFunction,SMDPad,CuDef*
G36*
G01*
X75249999Y-44550000D02*
X76150001Y-44550000D01*
G75*
G02*
X76400000Y-44799999I0J-249999D01*
G01*
X76400000Y-45450001D01*
G75*
G02*
X76150001Y-45700000I-249999J0D01*
G01*
X75249999Y-45700000D01*
G75*
G02*
X75000000Y-45450001I0J249999D01*
G01*
X75000000Y-44799999D01*
G75*
G02*
X75249999Y-44550000I249999J0D01*
G01*
G37*
G04 #@! TD.AperFunction*
G04 #@! TA.AperFunction,SMDPad,CuDef*
G36*
G01*
X75249999Y-42500000D02*
X76150001Y-42500000D01*
G75*
G02*
X76400000Y-42749999I0J-249999D01*
G01*
X76400000Y-43400001D01*
G75*
G02*
X76150001Y-43650000I-249999J0D01*
G01*
X75249999Y-43650000D01*
G75*
G02*
X75000000Y-43400001I0J249999D01*
G01*
X75000000Y-42749999D01*
G75*
G02*
X75249999Y-42500000I249999J0D01*
G01*
G37*
G04 #@! TD.AperFunction*
G04 #@! TA.AperFunction,SMDPad,CuDef*
G36*
G01*
X113349999Y-44550000D02*
X114250001Y-44550000D01*
G75*
G02*
X114500000Y-44799999I0J-249999D01*
G01*
X114500000Y-45450001D01*
G75*
G02*
X114250001Y-45700000I-249999J0D01*
G01*
X113349999Y-45700000D01*
G75*
G02*
X113100000Y-45450001I0J249999D01*
G01*
X113100000Y-44799999D01*
G75*
G02*
X113349999Y-44550000I249999J0D01*
G01*
G37*
G04 #@! TD.AperFunction*
G04 #@! TA.AperFunction,SMDPad,CuDef*
G36*
G01*
X113349999Y-42500000D02*
X114250001Y-42500000D01*
G75*
G02*
X114500000Y-42749999I0J-249999D01*
G01*
X114500000Y-43400001D01*
G75*
G02*
X114250001Y-43650000I-249999J0D01*
G01*
X113349999Y-43650000D01*
G75*
G02*
X113100000Y-43400001I0J249999D01*
G01*
X113100000Y-42749999D01*
G75*
G02*
X113349999Y-42500000I249999J0D01*
G01*
G37*
G04 #@! TD.AperFunction*
G04 #@! TA.AperFunction,SMDPad,CuDef*
G36*
G01*
X178150000Y-51350001D02*
X178150000Y-50449999D01*
G75*
G02*
X178399999Y-50200000I249999J0D01*
G01*
X179050001Y-50200000D01*
G75*
G02*
X179300000Y-50449999I0J-249999D01*
G01*
X179300000Y-51350001D01*
G75*
G02*
X179050001Y-51600000I-249999J0D01*
G01*
X178399999Y-51600000D01*
G75*
G02*
X178150000Y-51350001I0J249999D01*
G01*
G37*
G04 #@! TD.AperFunction*
G04 #@! TA.AperFunction,SMDPad,CuDef*
G36*
G01*
X176100000Y-51350001D02*
X176100000Y-50449999D01*
G75*
G02*
X176349999Y-50200000I249999J0D01*
G01*
X177000001Y-50200000D01*
G75*
G02*
X177250000Y-50449999I0J-249999D01*
G01*
X177250000Y-51350001D01*
G75*
G02*
X177000001Y-51600000I-249999J0D01*
G01*
X176349999Y-51600000D01*
G75*
G02*
X176100000Y-51350001I0J249999D01*
G01*
G37*
G04 #@! TD.AperFunction*
G04 #@! TA.AperFunction,SMDPad,CuDef*
G36*
G01*
X180150000Y-76450001D02*
X180150000Y-75549999D01*
G75*
G02*
X180399999Y-75300000I249999J0D01*
G01*
X181050001Y-75300000D01*
G75*
G02*
X181300000Y-75549999I0J-249999D01*
G01*
X181300000Y-76450001D01*
G75*
G02*
X181050001Y-76700000I-249999J0D01*
G01*
X180399999Y-76700000D01*
G75*
G02*
X180150000Y-76450001I0J249999D01*
G01*
G37*
G04 #@! TD.AperFunction*
G04 #@! TA.AperFunction,SMDPad,CuDef*
G36*
G01*
X178100000Y-76450001D02*
X178100000Y-75549999D01*
G75*
G02*
X178349999Y-75300000I249999J0D01*
G01*
X179000001Y-75300000D01*
G75*
G02*
X179250000Y-75549999I0J-249999D01*
G01*
X179250000Y-76450001D01*
G75*
G02*
X179000001Y-76700000I-249999J0D01*
G01*
X178349999Y-76700000D01*
G75*
G02*
X178100000Y-76450001I0J249999D01*
G01*
G37*
G04 #@! TD.AperFunction*
G04 #@! TA.AperFunction,SMDPad,CuDef*
G36*
G01*
X188050001Y-54750000D02*
X187149999Y-54750000D01*
G75*
G02*
X186900000Y-54500001I0J249999D01*
G01*
X186900000Y-53849999D01*
G75*
G02*
X187149999Y-53600000I249999J0D01*
G01*
X188050001Y-53600000D01*
G75*
G02*
X188300000Y-53849999I0J-249999D01*
G01*
X188300000Y-54500001D01*
G75*
G02*
X188050001Y-54750000I-249999J0D01*
G01*
G37*
G04 #@! TD.AperFunction*
G04 #@! TA.AperFunction,SMDPad,CuDef*
G36*
G01*
X188050001Y-56800000D02*
X187149999Y-56800000D01*
G75*
G02*
X186900000Y-56550001I0J249999D01*
G01*
X186900000Y-55899999D01*
G75*
G02*
X187149999Y-55650000I249999J0D01*
G01*
X188050001Y-55650000D01*
G75*
G02*
X188300000Y-55899999I0J-249999D01*
G01*
X188300000Y-56550001D01*
G75*
G02*
X188050001Y-56800000I-249999J0D01*
G01*
G37*
G04 #@! TD.AperFunction*
G04 #@! TA.AperFunction,SMDPad,CuDef*
G36*
G01*
X187150000Y-59949999D02*
X187150000Y-60850001D01*
G75*
G02*
X186900001Y-61100000I-249999J0D01*
G01*
X186249999Y-61100000D01*
G75*
G02*
X186000000Y-60850001I0J249999D01*
G01*
X186000000Y-59949999D01*
G75*
G02*
X186249999Y-59700000I249999J0D01*
G01*
X186900001Y-59700000D01*
G75*
G02*
X187150000Y-59949999I0J-249999D01*
G01*
G37*
G04 #@! TD.AperFunction*
G04 #@! TA.AperFunction,SMDPad,CuDef*
G36*
G01*
X189200000Y-59949999D02*
X189200000Y-60850001D01*
G75*
G02*
X188950001Y-61100000I-249999J0D01*
G01*
X188299999Y-61100000D01*
G75*
G02*
X188050000Y-60850001I0J249999D01*
G01*
X188050000Y-59949999D01*
G75*
G02*
X188299999Y-59700000I249999J0D01*
G01*
X188950001Y-59700000D01*
G75*
G02*
X189200000Y-59949999I0J-249999D01*
G01*
G37*
G04 #@! TD.AperFunction*
G04 #@! TA.AperFunction,SMDPad,CuDef*
G36*
G01*
X187150000Y-69749999D02*
X187150000Y-70650001D01*
G75*
G02*
X186900001Y-70900000I-249999J0D01*
G01*
X186249999Y-70900000D01*
G75*
G02*
X186000000Y-70650001I0J249999D01*
G01*
X186000000Y-69749999D01*
G75*
G02*
X186249999Y-69500000I249999J0D01*
G01*
X186900001Y-69500000D01*
G75*
G02*
X187150000Y-69749999I0J-249999D01*
G01*
G37*
G04 #@! TD.AperFunction*
G04 #@! TA.AperFunction,SMDPad,CuDef*
G36*
G01*
X189200000Y-69749999D02*
X189200000Y-70650001D01*
G75*
G02*
X188950001Y-70900000I-249999J0D01*
G01*
X188299999Y-70900000D01*
G75*
G02*
X188050000Y-70650001I0J249999D01*
G01*
X188050000Y-69749999D01*
G75*
G02*
X188299999Y-69500000I249999J0D01*
G01*
X188950001Y-69500000D01*
G75*
G02*
X189200000Y-69749999I0J-249999D01*
G01*
G37*
G04 #@! TD.AperFunction*
D12*
X159800000Y-32800000D03*
X126100000Y-67400000D03*
X101600000Y-26000000D03*
X66700000Y-24000000D03*
X69200000Y-64300000D03*
X31100000Y-37800000D03*
X31050000Y-94950000D03*
X66700000Y-110400000D03*
X104200000Y-120500000D03*
X173900000Y-120000000D03*
X192250000Y-94790000D03*
X187600000Y-33700000D03*
D13*
X170200000Y-41950000D03*
X171150000Y-41950000D03*
X169250000Y-41950000D03*
X169250000Y-44650000D03*
X170200000Y-44650000D03*
X171150000Y-44650000D03*
D14*
X176479999Y-34895000D03*
X170029999Y-34895000D03*
X175704999Y-34895000D03*
X170804999Y-34895000D03*
D15*
X171504999Y-34895000D03*
X175004999Y-34895000D03*
X172004999Y-34895000D03*
X174504999Y-34895000D03*
X172504999Y-34895000D03*
X174004999Y-34895000D03*
X173504999Y-34895000D03*
X173004999Y-34895000D03*
D16*
X168934999Y-33480000D03*
X177574999Y-33480000D03*
D17*
X168934999Y-29300000D03*
X177574999Y-29300000D03*
D18*
X140552500Y-54147500D03*
X153479500Y-51607500D03*
X45302500Y-44797500D03*
X58229500Y-42257500D03*
X102452500Y-51997500D03*
X115379500Y-49457500D03*
X64352500Y-71047500D03*
X77279500Y-68507500D03*
D19*
X170667500Y-92291250D03*
X170667500Y-97291250D03*
D20*
X177667500Y-89191250D03*
X177667500Y-100391250D03*
D19*
X185167500Y-92291250D03*
X185167500Y-94791250D03*
D21*
X185167500Y-97291250D03*
D22*
X170912500Y-60511250D03*
X171712500Y-60511250D03*
X172512500Y-60511250D03*
X173312500Y-60511250D03*
X174112500Y-60511250D03*
X174912500Y-60511250D03*
X175712500Y-60511250D03*
X176512500Y-60511250D03*
X177312500Y-60511250D03*
X178112500Y-60511250D03*
X178912500Y-60511250D03*
D23*
X180612500Y-62211250D03*
X180612500Y-63011250D03*
X180612500Y-63811250D03*
X180612500Y-64611250D03*
X180612500Y-65411250D03*
X180612500Y-66211250D03*
X180612500Y-67011250D03*
X180612500Y-67811250D03*
X180612500Y-68611250D03*
X180612500Y-69411250D03*
X180612500Y-70211250D03*
D22*
X178912500Y-71911250D03*
X178112500Y-71911250D03*
X177312500Y-71911250D03*
X176512500Y-71911250D03*
X175712500Y-71911250D03*
X174912500Y-71911250D03*
X174112500Y-71911250D03*
X173312500Y-71911250D03*
X172512500Y-71911250D03*
X171712500Y-71911250D03*
X170912500Y-71911250D03*
D23*
X169212500Y-70211250D03*
X169212500Y-69411250D03*
X169212500Y-68611250D03*
X169212500Y-67811250D03*
X169212500Y-67011250D03*
X169212500Y-66211250D03*
X169212500Y-65411250D03*
X169212500Y-64611250D03*
X169212500Y-63811250D03*
X169212500Y-63011250D03*
X169212500Y-62211250D03*
D24*
X183150000Y-43400000D03*
X186850000Y-49600000D03*
X186850000Y-43400000D03*
X183150000Y-49600000D03*
G04 #@! TA.AperFunction,SMDPad,CuDef*
D11*
G36*
X150242487Y-120908978D02*
G01*
X150889534Y-118494163D01*
X153352645Y-119154152D01*
X152705598Y-121568967D01*
X150242487Y-120908978D01*
G37*
G04 #@! TD.AperFunction*
G04 #@! TA.AperFunction,SMDPad,CuDef*
G36*
X163386410Y-121801281D02*
G01*
X164033457Y-119386466D01*
X166496568Y-120046455D01*
X165849521Y-122461270D01*
X163386410Y-121801281D01*
G37*
G04 #@! TD.AperFunction*
G04 #@! TA.AperFunction,SMDPad,CuDef*
G36*
X131842487Y-115977728D02*
G01*
X132489534Y-113562913D01*
X134952645Y-114222902D01*
X134305598Y-116637717D01*
X131842487Y-115977728D01*
G37*
G04 #@! TD.AperFunction*
G04 #@! TA.AperFunction,SMDPad,CuDef*
G36*
X144986410Y-116870031D02*
G01*
X145633457Y-114455216D01*
X148096568Y-115115205D01*
X147449521Y-117530020D01*
X144986410Y-116870031D01*
G37*
G04 #@! TD.AperFunction*
G04 #@! TA.AperFunction,SMDPad,CuDef*
G36*
X111053513Y-116065399D02*
G01*
X111487633Y-113603380D01*
X113998893Y-114046183D01*
X113564773Y-116508202D01*
X111053513Y-116065399D01*
G37*
G04 #@! TD.AperFunction*
G04 #@! TA.AperFunction,SMDPad,CuDef*
G36*
X124225190Y-115808737D02*
G01*
X124659310Y-113346718D01*
X127170570Y-113789521D01*
X126736450Y-116251540D01*
X124225190Y-115808737D01*
G37*
G04 #@! TD.AperFunction*
D18*
X45302500Y-101947500D03*
X58229500Y-99407500D03*
X26252500Y-101947500D03*
X39179500Y-99407500D03*
X140552500Y-92247500D03*
X153479500Y-89707500D03*
X121502500Y-92247500D03*
X134429500Y-89707500D03*
X102452500Y-90097500D03*
X115379500Y-87557500D03*
X83402500Y-87947500D03*
X96329500Y-85407500D03*
X64352500Y-90097500D03*
X77279500Y-87557500D03*
X45302500Y-82897500D03*
X58229500Y-80357500D03*
X26252500Y-82897500D03*
X39179500Y-80357500D03*
X140552500Y-73197500D03*
X153479500Y-70657500D03*
X121502500Y-73197500D03*
X134429500Y-70657500D03*
X102452500Y-71047500D03*
X115379500Y-68507500D03*
X83402500Y-68897500D03*
X96329500Y-66357500D03*
X45302500Y-63847500D03*
X58229500Y-61307500D03*
X26252500Y-63847500D03*
X39179500Y-61307500D03*
X121502500Y-54147500D03*
X134429500Y-51607500D03*
X83402500Y-49847500D03*
X96329500Y-47307500D03*
X64352500Y-51997500D03*
X77279500Y-49457500D03*
X26252500Y-44797500D03*
X39179500Y-42257500D03*
X140552500Y-35097500D03*
X153479500Y-32557500D03*
X121502500Y-35097500D03*
X134429500Y-32557500D03*
X102452500Y-32947500D03*
X115379500Y-30407500D03*
X83402500Y-30797500D03*
X96329500Y-28257500D03*
X64352500Y-32947500D03*
X77279500Y-30407500D03*
X45302500Y-25747500D03*
X58229500Y-23207500D03*
X26252500Y-25747500D03*
X39179500Y-23207500D03*
D25*
X158200000Y-83207000D03*
X161400000Y-83207000D03*
X158200000Y-88107000D03*
X161400000Y-88107000D03*
X155600000Y-104381250D03*
X158800000Y-104381250D03*
X155600000Y-109281250D03*
X158800000Y-109281250D03*
D26*
X121512500Y-102737500D03*
X121512500Y-105937500D03*
X116612500Y-102737500D03*
X116612500Y-105937500D03*
X83387500Y-100500000D03*
X83387500Y-103700000D03*
X78487500Y-100500000D03*
X78487500Y-103700000D03*
X45312500Y-91700000D03*
X45312500Y-94900000D03*
X40412500Y-91700000D03*
X40412500Y-94900000D03*
D25*
X44500000Y-76450000D03*
X41300000Y-76450000D03*
X44500000Y-71550000D03*
X41300000Y-71550000D03*
X44500000Y-38250000D03*
X41300000Y-38250000D03*
X44500000Y-33350000D03*
X41300000Y-33350000D03*
D26*
X78512500Y-45000000D03*
X78512500Y-41800000D03*
X83412500Y-45000000D03*
X83412500Y-41800000D03*
X116612500Y-45000000D03*
X116612500Y-41800000D03*
X121512500Y-45000000D03*
X121512500Y-41800000D03*
X152200000Y-47118750D03*
X152200000Y-43918750D03*
X157100000Y-47118750D03*
X157100000Y-43918750D03*
X167700000Y-80100000D03*
X167700000Y-82700000D03*
X167700000Y-81400000D03*
D27*
X175142500Y-80900000D03*
D28*
X177682500Y-80900000D03*
X180222500Y-80900000D03*
D29*
X170650000Y-102900000D03*
X167350000Y-102900000D03*
D30*
X165900000Y-124050000D03*
X165900000Y-127350000D03*
X147500000Y-119050000D03*
X147500000Y-122350000D03*
X127000000Y-118050000D03*
X127000000Y-121350000D03*
X60300000Y-102850000D03*
X60300000Y-106150000D03*
X41300000Y-102850000D03*
X41300000Y-106150000D03*
X155600000Y-93150000D03*
X155600000Y-96450000D03*
X136600000Y-93150000D03*
X136600000Y-96450000D03*
X117500000Y-91050000D03*
X117500000Y-94350000D03*
X98500000Y-88850000D03*
X98500000Y-92150000D03*
X79400000Y-91050000D03*
X79400000Y-94350000D03*
X60325000Y-83850000D03*
X60325000Y-87150000D03*
X41300000Y-83850000D03*
X41300000Y-87150000D03*
X155600000Y-74150000D03*
X155600000Y-77450000D03*
X136600000Y-74150000D03*
X136600000Y-77450000D03*
X117475000Y-71950000D03*
X117475000Y-75250000D03*
X98500000Y-69850000D03*
X98500000Y-73150000D03*
X79375000Y-71950000D03*
X79375000Y-75250000D03*
X60325000Y-64750000D03*
X60325000Y-68050000D03*
X41300000Y-64750000D03*
X41300000Y-68050000D03*
X155600000Y-55050000D03*
X155600000Y-58350000D03*
X136600000Y-55050000D03*
X136600000Y-58350000D03*
X117500000Y-52950000D03*
X117500000Y-56250000D03*
X98500000Y-50750000D03*
X98500000Y-54050000D03*
X79400000Y-52850000D03*
X79400000Y-56150000D03*
X60325000Y-45750000D03*
X60325000Y-49050000D03*
X41275000Y-49050000D03*
X41275000Y-45750000D03*
X155600000Y-36050000D03*
X155600000Y-39350000D03*
X136600000Y-35950000D03*
X136600000Y-39250000D03*
X117500000Y-33850000D03*
X117500000Y-37150000D03*
X98500000Y-31650000D03*
X98500000Y-34950000D03*
X79400000Y-33850000D03*
X79400000Y-37150000D03*
X60300000Y-26650000D03*
X60300000Y-29950000D03*
X41300000Y-26650000D03*
X41300000Y-29950000D03*
D31*
X167000000Y-61700000D03*
X167000000Y-70700000D03*
X173600000Y-58100000D03*
X173000000Y-55900000D03*
X180100000Y-58500000D03*
X183100000Y-64500000D03*
X180000000Y-73900000D03*
X147000000Y-45300000D03*
X111400000Y-43200000D03*
X39100000Y-33300000D03*
X39100000Y-71600000D03*
X73300000Y-43200000D03*
X38200000Y-94900000D03*
X76200000Y-103700000D03*
X158800000Y-111500000D03*
X161400000Y-90300000D03*
X114400000Y-106000000D03*
X164600000Y-56300000D03*
X185800000Y-53500000D03*
X182700000Y-94800000D03*
X183200000Y-40200000D03*
X163500000Y-34500000D03*
X183000000Y-34500000D03*
X173600000Y-47200000D03*
X170200000Y-46900000D03*
X180600000Y-50900000D03*
X191300000Y-63100000D03*
X191300000Y-68400000D03*
X178200000Y-37600000D03*
X168400000Y-37500000D03*
X172600000Y-80900000D03*
X159300000Y-45800000D03*
X61900000Y-93600000D03*
X49300000Y-76800000D03*
X157600000Y-99600000D03*
X173100000Y-54500000D03*
X179800000Y-46400000D03*
X172500000Y-48200000D03*
X167600000Y-56600000D03*
X159700000Y-98800000D03*
X166300000Y-86900000D03*
X158075000Y-96400000D03*
X173874528Y-74174528D03*
X164013711Y-91302448D03*
X174900000Y-74200000D03*
X42900000Y-39800000D03*
X42900000Y-70125000D03*
X43000000Y-78100000D03*
X43000000Y-89500000D03*
X26300000Y-28500000D03*
X26300000Y-99200000D03*
X26300000Y-47600000D03*
X26300000Y-85700000D03*
X26300000Y-66600000D03*
X26300000Y-51000000D03*
X45300000Y-85700000D03*
X45300000Y-28500000D03*
X45300000Y-47600000D03*
X45300000Y-66600000D03*
X45300000Y-99200000D03*
X45300000Y-51725000D03*
X64400000Y-35700000D03*
X64400000Y-87400000D03*
X64400000Y-54800000D03*
X64400000Y-73800000D03*
X64387347Y-58412653D03*
X83400000Y-33600000D03*
X83400000Y-85200000D03*
X83400000Y-52600000D03*
X83400000Y-71700000D03*
X112500000Y-112100000D03*
X83400000Y-59925000D03*
X102500000Y-35700000D03*
X102500000Y-87300000D03*
X102500000Y-54800000D03*
X102500000Y-73800000D03*
X133400000Y-112100000D03*
X102500000Y-60425000D03*
X121500000Y-37900000D03*
X121500000Y-89500000D03*
X121500000Y-56900000D03*
X121500000Y-76000000D03*
X151700000Y-117000000D03*
X121500000Y-63125000D03*
X140600000Y-37900000D03*
X140600000Y-89500000D03*
X140600000Y-76000000D03*
X140600000Y-56900000D03*
X168200000Y-92200000D03*
X140600000Y-63625000D03*
X159000000Y-49000000D03*
X159000000Y-76500000D03*
X185300000Y-57000000D03*
X186900000Y-52200000D03*
X170200000Y-40100000D03*
X170200000Y-37600000D03*
X175700000Y-37600000D03*
D32*
X186700000Y-70162500D02*
X186662500Y-70200000D01*
X186575000Y-68943110D02*
X188159862Y-67358248D01*
X186575000Y-70200000D02*
X186575000Y-68943110D01*
X182759498Y-67358248D02*
X188159862Y-67358248D01*
X181612500Y-66211250D02*
X182759498Y-67358248D01*
X180612500Y-66211250D02*
X181612500Y-66211250D01*
D33*
X186568871Y-65342994D02*
X186712059Y-65486181D01*
X180637500Y-76000000D02*
X180700000Y-76000000D01*
X174112500Y-60511250D02*
X174112500Y-58612500D01*
X174112500Y-58612500D02*
X173600000Y-58100000D01*
X175400000Y-55862500D02*
X173037500Y-55862500D01*
X173037500Y-55862500D02*
X173000000Y-55900000D01*
X180037500Y-56100000D02*
X180037500Y-58437500D01*
X180037500Y-58437500D02*
X180100000Y-58500000D01*
X180612500Y-64611250D02*
X182988750Y-64611250D01*
X182988750Y-64611250D02*
X183100000Y-64500000D01*
X188537500Y-70200000D02*
X188600000Y-70200000D01*
X178912500Y-71911250D02*
X178912500Y-72812500D01*
X178912500Y-72812500D02*
X180000000Y-73900000D01*
X180000000Y-73900000D02*
X180700000Y-74600000D01*
X180700000Y-75937500D02*
X180637500Y-76000000D01*
X180700000Y-74600000D02*
X180700000Y-75937500D01*
X168288750Y-69411250D02*
X169212500Y-69411250D01*
X167000000Y-70700000D02*
X168288750Y-69411250D01*
X168311250Y-63011250D02*
X169212500Y-63011250D01*
X167000000Y-61700000D02*
X168311250Y-63011250D01*
X82050000Y-43162500D02*
X83412500Y-41800000D01*
X75700000Y-43162500D02*
X82050000Y-43162500D01*
X120150000Y-43162500D02*
X121512500Y-41800000D01*
X113800000Y-43162500D02*
X120150000Y-43162500D01*
X155756250Y-45262500D02*
X157100000Y-43918750D01*
X149400000Y-45262500D02*
X155756250Y-45262500D01*
X44612500Y-36662500D02*
X41300000Y-33350000D01*
X47000000Y-36662500D02*
X44612500Y-36662500D01*
X149400000Y-45262500D02*
X147037500Y-45262500D01*
X147037500Y-45262500D02*
X147000000Y-45300000D01*
X113800000Y-43162500D02*
X111437500Y-43162500D01*
X111437500Y-43162500D02*
X111400000Y-43200000D01*
X41300000Y-33350000D02*
X39150000Y-33350000D01*
X39150000Y-33350000D02*
X39100000Y-33300000D01*
X44612500Y-74862500D02*
X41300000Y-71550000D01*
X47000000Y-74862500D02*
X44612500Y-74862500D01*
X41300000Y-71550000D02*
X39150000Y-71550000D01*
X39150000Y-71550000D02*
X39100000Y-71600000D01*
X75700000Y-43162500D02*
X73337500Y-43162500D01*
X73337500Y-43162500D02*
X73300000Y-43200000D01*
X40412500Y-94900000D02*
X40500000Y-94900000D01*
X41862500Y-93537500D02*
X48000000Y-93537500D01*
X40500000Y-94900000D02*
X41862500Y-93537500D01*
X40412500Y-94900000D02*
X38200000Y-94900000D01*
X78487500Y-103700000D02*
X78500000Y-103700000D01*
X79862500Y-102337500D02*
X86200000Y-102337500D01*
X78500000Y-103700000D02*
X79862500Y-102337500D01*
X78487500Y-103700000D02*
X76200000Y-103700000D01*
X116612500Y-105937500D02*
X116662500Y-105937500D01*
X118062500Y-104537500D02*
X124300000Y-104537500D01*
X116662500Y-105937500D02*
X118062500Y-104537500D01*
X158800000Y-109281250D02*
X158781250Y-109281250D01*
X157437500Y-107937500D02*
X157437500Y-101600000D01*
X158781250Y-109281250D02*
X157437500Y-107937500D01*
X158800000Y-109281250D02*
X158800000Y-111500000D01*
X161400000Y-88107000D02*
X161400000Y-88100000D01*
X160037500Y-86737500D02*
X160037500Y-80400000D01*
X161400000Y-88100000D02*
X160037500Y-86737500D01*
X161400000Y-88107000D02*
X161400000Y-90300000D01*
X116612500Y-105937500D02*
X114462500Y-105937500D01*
X114462500Y-105937500D02*
X114400000Y-106000000D01*
X164562500Y-58500000D02*
X164562500Y-56337500D01*
X164562500Y-56337500D02*
X164600000Y-56300000D01*
X187600000Y-54262500D02*
X186562500Y-54262500D01*
X186562500Y-54262500D02*
X185800000Y-53500000D01*
X185167500Y-94791250D02*
X182708750Y-94791250D01*
X182708750Y-94791250D02*
X182700000Y-94800000D01*
X183150000Y-43400000D02*
X183150000Y-40250000D01*
X183150000Y-40250000D02*
X183200000Y-40200000D01*
X183200000Y-40200000D02*
X185525000Y-40200000D01*
X166962500Y-70662500D02*
X167000000Y-70700000D01*
X164600000Y-70662500D02*
X166962500Y-70662500D01*
X165700000Y-34537500D02*
X163537500Y-34537500D01*
X163537500Y-34537500D02*
X163500000Y-34500000D01*
X180800000Y-34537500D02*
X182962500Y-34537500D01*
X182962500Y-34537500D02*
X183000000Y-34500000D01*
X173600000Y-45237500D02*
X173600000Y-47200000D01*
X170200000Y-44650000D02*
X170200000Y-46900000D01*
X178637500Y-50900000D02*
X180600000Y-50900000D01*
D32*
X186186774Y-65500000D02*
X189441080Y-65500000D01*
D33*
X189786208Y-65731902D02*
X191300000Y-64218110D01*
X191300000Y-63075000D02*
X188625000Y-60400000D01*
X191300000Y-64218110D02*
X191300000Y-63100000D01*
X189786208Y-65731902D02*
X191300000Y-67245694D01*
X191300000Y-67245694D02*
X191300000Y-68400000D01*
X189500000Y-70200000D02*
X188625000Y-70200000D01*
X191300000Y-68400000D02*
X191300000Y-68400000D01*
X191300000Y-63100000D02*
X191300000Y-63075000D01*
X191300000Y-68400000D02*
X189500000Y-70200000D01*
X176479999Y-34895000D02*
X176479999Y-35879999D01*
X176479999Y-35879999D02*
X178200000Y-37600000D01*
X170029999Y-34895000D02*
X170029999Y-35870001D01*
X170029999Y-35870001D02*
X168400000Y-37500000D01*
X175142500Y-80900000D02*
X172600000Y-80900000D01*
D32*
X187770953Y-64140912D02*
X187275978Y-63645937D01*
X186575000Y-62520694D02*
X187735598Y-63681292D01*
X186575000Y-60400000D02*
X186575000Y-62520694D01*
X187735598Y-63681292D02*
X187454306Y-63400000D01*
X187554306Y-63500000D02*
X187735598Y-63681292D01*
X185173002Y-63500000D02*
X187554306Y-63500000D01*
X180612500Y-65411250D02*
X183261752Y-65411250D01*
X183261752Y-65411250D02*
X185173002Y-63500000D01*
D33*
X178200000Y-71998750D02*
X178112500Y-71911250D01*
X169048750Y-62211250D02*
X169212500Y-62211250D01*
X170135002Y-70211250D02*
X169212500Y-70211250D01*
X171900000Y-63000000D02*
X171900000Y-68446252D01*
X171111250Y-62211250D02*
X171900000Y-63000000D01*
X169212500Y-62211250D02*
X171111250Y-62211250D01*
X171900000Y-68446252D02*
X171900000Y-68500000D01*
X176323752Y-69200000D02*
X178112500Y-70988748D01*
X178112500Y-70988748D02*
X178112500Y-71911250D01*
X172600000Y-69200000D02*
X176323752Y-69200000D01*
X178112500Y-71911250D02*
X178112500Y-74412500D01*
X178762500Y-75062500D02*
X178762500Y-76000000D01*
X178112500Y-74412500D02*
X178762500Y-75062500D01*
X175712500Y-60511250D02*
X175712500Y-59687500D01*
X178162500Y-57237500D02*
X178162500Y-56100000D01*
X175712500Y-59687500D02*
X178162500Y-57237500D01*
X178162500Y-56100000D02*
X178162500Y-55562500D01*
X178162500Y-55600000D02*
X178162500Y-56100000D01*
X183243750Y-54318750D02*
X183300000Y-54262500D01*
X184100000Y-59637500D02*
X187600000Y-56137500D01*
X184100000Y-62200000D02*
X184100000Y-59637500D01*
X180612500Y-63811250D02*
X182488750Y-63811250D01*
X182488750Y-63811250D02*
X184100000Y-62200000D01*
X166800000Y-58500000D02*
X166437500Y-58500000D01*
X171712500Y-59588748D02*
X171712500Y-60511250D01*
X170623752Y-58500000D02*
X171712500Y-59588748D01*
X166437500Y-58500000D02*
X170623752Y-58500000D01*
X166437500Y-59436250D02*
X169212500Y-62211250D01*
X166437500Y-58500000D02*
X166437500Y-59436250D01*
X118700000Y-47137500D02*
X116612500Y-45050000D01*
X149418750Y-47118750D02*
X149400000Y-47137500D01*
X152200000Y-47118750D02*
X149418750Y-47118750D01*
X113837500Y-45000000D02*
X113800000Y-45037500D01*
X116612500Y-45000000D02*
X113837500Y-45000000D01*
X118700000Y-47137500D02*
X149400000Y-47137500D01*
X75737500Y-45000000D02*
X75700000Y-45037500D01*
X78512500Y-45000000D02*
X75737500Y-45000000D01*
X86162500Y-100500000D02*
X86200000Y-100462500D01*
X83387500Y-100500000D02*
X86162500Y-100500000D01*
X124225000Y-102737500D02*
X124300000Y-102662500D01*
X121512500Y-102737500D02*
X124225000Y-102737500D01*
X155600000Y-101637500D02*
X155562500Y-101600000D01*
X155600000Y-104381250D02*
X155600000Y-101637500D01*
X158200000Y-80437500D02*
X158162500Y-80400000D01*
X158200000Y-83207000D02*
X158200000Y-80437500D01*
X113800000Y-45037500D02*
X100037500Y-45037500D01*
X100037500Y-45037500D02*
X97900000Y-42900000D01*
X97900000Y-42900000D02*
X88500000Y-42900000D01*
X88500000Y-42900000D02*
X84500000Y-46900000D01*
X80412500Y-46900000D02*
X78512500Y-45000000D01*
X84500000Y-46900000D02*
X80412500Y-46900000D01*
X44787500Y-38537500D02*
X44500000Y-38250000D01*
X47000000Y-38537500D02*
X44787500Y-38537500D01*
X152200000Y-46700000D02*
X152200000Y-47118750D01*
X153062490Y-45837510D02*
X152200000Y-46700000D01*
X61437500Y-38537500D02*
X47000000Y-38537500D01*
X75700000Y-45037500D02*
X67937500Y-45037500D01*
X67937500Y-45037500D02*
X61437500Y-38537500D01*
X159262490Y-45837510D02*
X153062490Y-45837510D01*
X159300000Y-45800000D02*
X159262490Y-45837510D01*
X44787500Y-76737500D02*
X44500000Y-76450000D01*
X47000000Y-76737500D02*
X44787500Y-76737500D01*
X45350000Y-91662500D02*
X45312500Y-91700000D01*
X48000000Y-91662500D02*
X45350000Y-91662500D01*
X155581250Y-104400000D02*
X155600000Y-104381250D01*
X153600000Y-104400000D02*
X155581250Y-104400000D01*
X153600000Y-104400000D02*
X127700000Y-104400000D01*
X125962500Y-102662500D02*
X124300000Y-102662500D01*
X127700000Y-104400000D02*
X125962500Y-102662500D01*
X121512500Y-102737500D02*
X119775000Y-101000000D01*
X86737500Y-101000000D02*
X86200000Y-100462500D01*
X119775000Y-101000000D02*
X86737500Y-101000000D01*
X83387500Y-100500000D02*
X81987500Y-99100000D01*
X81987500Y-99100000D02*
X67400000Y-99100000D01*
X49137500Y-92800000D02*
X48000000Y-91662500D01*
X61100000Y-92800000D02*
X49137500Y-92800000D01*
X62000000Y-93700000D02*
X61100000Y-92800000D01*
X62000000Y-93700000D02*
X61900000Y-93600000D01*
X67400000Y-99100000D02*
X62000000Y-93700000D01*
X47062500Y-76800000D02*
X47000000Y-76737500D01*
X49300000Y-76800000D02*
X47062500Y-76800000D01*
X158200000Y-85800000D02*
X158200000Y-83207000D01*
X159462490Y-87062490D02*
X159250000Y-86850000D01*
X159250000Y-86850000D02*
X158200000Y-85800000D01*
X157600000Y-99600000D02*
X156500000Y-99600000D01*
X155562500Y-100537500D02*
X155562500Y-101600000D01*
X156500000Y-99600000D02*
X155562500Y-100537500D01*
X159700000Y-90000000D02*
X159700000Y-87300000D01*
X159700000Y-87300000D02*
X159250000Y-86850000D01*
X161900000Y-91300000D02*
X161000000Y-91300000D01*
X173100000Y-54500000D02*
X173100000Y-54462500D01*
X172500000Y-48200000D02*
X174600000Y-48200000D01*
X187600000Y-56137500D02*
X187237500Y-56137500D01*
X185362500Y-54262500D02*
X183300000Y-54262500D01*
X187237500Y-56137500D02*
X185362500Y-54262500D01*
X166437500Y-57762500D02*
X166437500Y-58500000D01*
X167600000Y-56600000D02*
X166437500Y-57762500D01*
X160000000Y-92300000D02*
X159700000Y-92600000D01*
X159700000Y-92600000D02*
X159700000Y-98800000D01*
X161000000Y-91300000D02*
X160700000Y-91600000D01*
X160600000Y-90900000D02*
X160600000Y-91700000D01*
X160600000Y-91700000D02*
X160000000Y-92300000D01*
X160700000Y-91600000D02*
X160600000Y-91700000D01*
X160600000Y-90900000D02*
X159700000Y-90000000D01*
X161000000Y-91300000D02*
X160600000Y-90900000D01*
X175900000Y-46900000D02*
X174600000Y-48200000D01*
X176700000Y-46900000D02*
X175900000Y-46900000D01*
X179300000Y-46900000D02*
X179800000Y-46400000D01*
X176700000Y-46900000D02*
X179300000Y-46900000D01*
X176700000Y-50837500D02*
X176762500Y-50900000D01*
X176700000Y-46900000D02*
X176700000Y-50837500D01*
X176700000Y-50900000D02*
X176762500Y-50900000D01*
X173100000Y-54500000D02*
X176700000Y-50900000D01*
X176762500Y-50900000D02*
X176762500Y-50962500D01*
X176762500Y-50962500D02*
X178162500Y-52362500D01*
X178162500Y-53962500D02*
X178162500Y-53662500D01*
X172176874Y-68823126D02*
X172200000Y-68800000D01*
X171900000Y-68446252D02*
X171523126Y-68823126D01*
X171523126Y-68823126D02*
X172176874Y-68823126D01*
X171523126Y-68823126D02*
X170135002Y-70211250D01*
X171900000Y-68500000D02*
X172200000Y-68800000D01*
X172200000Y-68800000D02*
X172600000Y-69200000D01*
X182700000Y-53662500D02*
X183300000Y-54262500D01*
X178162500Y-53287500D02*
X178537500Y-53662500D01*
X178162500Y-53237500D02*
X178162500Y-53287500D01*
X178162500Y-53237500D02*
X178162500Y-53962500D01*
X178162500Y-53662500D02*
X178537500Y-53662500D01*
X178162500Y-52362500D02*
X178162500Y-53237500D01*
X178537500Y-53662500D02*
X182700000Y-53662500D01*
X178162500Y-54037500D02*
X178537500Y-53662500D01*
X178162500Y-54162500D02*
X178162500Y-54037500D01*
X178162500Y-54162500D02*
X178162500Y-53962500D01*
X178162500Y-56100000D02*
X178162500Y-54162500D01*
D32*
X187675000Y-56300000D02*
X187600000Y-56225000D01*
X180222500Y-81577500D02*
X180222500Y-80900000D01*
D33*
X161900000Y-91300000D02*
X166300000Y-86900000D01*
X174912500Y-58225000D02*
X175400000Y-57737500D01*
X174912500Y-60511250D02*
X174912500Y-58225000D01*
D32*
X39207500Y-23207500D02*
X41300000Y-25300000D01*
X39179500Y-23207500D02*
X39207500Y-23207500D01*
X41300000Y-25300000D02*
X41300000Y-26650000D01*
X41300000Y-29950000D02*
X45750000Y-29950000D01*
X45750000Y-29950000D02*
X47100000Y-31300000D01*
X58950000Y-31300000D02*
X60300000Y-29950000D01*
X47100000Y-31300000D02*
X58950000Y-31300000D01*
X96300000Y-37150000D02*
X98500000Y-34950000D01*
X79400000Y-37150000D02*
X96300000Y-37150000D01*
X98500000Y-34950000D02*
X102050000Y-38500000D01*
X116150000Y-38500000D02*
X117500000Y-37150000D01*
X102050000Y-38500000D02*
X116150000Y-38500000D01*
X117500000Y-37150000D02*
X119950000Y-39600000D01*
X119950000Y-39600000D02*
X123100000Y-39600000D01*
X123100000Y-39600000D02*
X124100000Y-40600000D01*
X135250000Y-40600000D02*
X136600000Y-39250000D01*
X124100000Y-40600000D02*
X135250000Y-40600000D01*
X136600000Y-39250000D02*
X137950000Y-40600000D01*
X154350000Y-40600000D02*
X155600000Y-39350000D01*
X137950000Y-40600000D02*
X154350000Y-40600000D01*
X168402498Y-64611250D02*
X169212500Y-64611250D01*
X60300000Y-32673002D02*
X66126998Y-38500000D01*
X60300000Y-29950000D02*
X60300000Y-32673002D01*
X78050000Y-38500000D02*
X79400000Y-37150000D01*
X66126998Y-38500000D02*
X78050000Y-38500000D01*
X162711250Y-64611250D02*
X169212500Y-64611250D01*
X160500000Y-62400000D02*
X162711250Y-64611250D01*
X160500000Y-43900000D02*
X160500000Y-62400000D01*
X155600000Y-39350000D02*
X155950000Y-39350000D01*
X155950000Y-39350000D02*
X160500000Y-43900000D01*
X58229500Y-23207500D02*
X58229500Y-23229500D01*
X58229500Y-23207500D02*
X58307500Y-23207500D01*
X60300000Y-25200000D02*
X60300000Y-26650000D01*
X58307500Y-23207500D02*
X60300000Y-25200000D01*
X77307500Y-30407500D02*
X79400000Y-32500000D01*
X79400000Y-32500000D02*
X79400000Y-33850000D01*
X77279500Y-30407500D02*
X77307500Y-30407500D01*
X96329500Y-28257500D02*
X96357500Y-28257500D01*
X98500000Y-30400000D02*
X98500000Y-31650000D01*
X96357500Y-28257500D02*
X98500000Y-30400000D01*
X115379500Y-30407500D02*
X115407500Y-30407500D01*
X117500000Y-32500000D02*
X117500000Y-33850000D01*
X115407500Y-30407500D02*
X117500000Y-32500000D01*
X134429500Y-32557500D02*
X134457500Y-32557500D01*
X136600000Y-34700000D02*
X136600000Y-35950000D01*
X134457500Y-32557500D02*
X136600000Y-34700000D01*
X153479500Y-32557500D02*
X153557500Y-32557500D01*
X155600000Y-34600000D02*
X155600000Y-36050000D01*
X153557500Y-32557500D02*
X155600000Y-34600000D01*
X39179500Y-42257500D02*
X39257500Y-42257500D01*
X41275000Y-44275000D02*
X41275000Y-45750000D01*
X39257500Y-42257500D02*
X41275000Y-44275000D01*
X41275000Y-49050000D02*
X42625000Y-50400000D01*
X58975000Y-50400000D02*
X60325000Y-49050000D01*
X42625000Y-50400000D02*
X58975000Y-50400000D01*
X60325000Y-51798002D02*
X66126998Y-57600000D01*
X60325000Y-49050000D02*
X60325000Y-51798002D01*
X77950000Y-57600000D02*
X79400000Y-56150000D01*
X66126998Y-57600000D02*
X77950000Y-57600000D01*
X96400000Y-56150000D02*
X98500000Y-54050000D01*
X79400000Y-56150000D02*
X96400000Y-56150000D01*
X98500000Y-54050000D02*
X102050000Y-57600000D01*
X116150000Y-57600000D02*
X117500000Y-56250000D01*
X102050000Y-57600000D02*
X116150000Y-57600000D01*
X117500000Y-56250000D02*
X120950000Y-59700000D01*
X135250000Y-59700000D02*
X136600000Y-58350000D01*
X120950000Y-59700000D02*
X135250000Y-59700000D01*
X136600000Y-58350000D02*
X137950000Y-59700000D01*
X154250000Y-59700000D02*
X155600000Y-58350000D01*
X137950000Y-59700000D02*
X154250000Y-59700000D01*
X155600000Y-58350000D02*
X155950000Y-58350000D01*
X162811250Y-65411250D02*
X169212500Y-65411250D01*
X155600000Y-58350000D02*
X155750000Y-58350000D01*
X155750000Y-58350000D02*
X162811250Y-65411250D01*
X58229500Y-42257500D02*
X58257500Y-42257500D01*
X60325000Y-44325000D02*
X60325000Y-45750000D01*
X58257500Y-42257500D02*
X60325000Y-44325000D01*
X77279500Y-49457500D02*
X77357500Y-49457500D01*
X79400000Y-51500000D02*
X79400000Y-52850000D01*
X77357500Y-49457500D02*
X79400000Y-51500000D01*
X96329500Y-47307500D02*
X96407500Y-47307500D01*
X98500000Y-49400000D02*
X98500000Y-50750000D01*
X96407500Y-47307500D02*
X98500000Y-49400000D01*
X115379500Y-49457500D02*
X115457500Y-49457500D01*
X117500000Y-51500000D02*
X117500000Y-52950000D01*
X115457500Y-49457500D02*
X117500000Y-51500000D01*
X134429500Y-51607500D02*
X134507500Y-51607500D01*
X136600000Y-53700000D02*
X136600000Y-55050000D01*
X134507500Y-51607500D02*
X136600000Y-53700000D01*
X153479500Y-51607500D02*
X153507500Y-51607500D01*
X155600000Y-53700000D02*
X155600000Y-55050000D01*
X153507500Y-51607500D02*
X155600000Y-53700000D01*
X39179500Y-61307500D02*
X39207500Y-61307500D01*
X41300000Y-63400000D02*
X41300000Y-64750000D01*
X39207500Y-61307500D02*
X41300000Y-63400000D01*
X41300000Y-68050000D02*
X42650000Y-69400000D01*
X58975000Y-69400000D02*
X60325000Y-68050000D01*
X42650000Y-69400000D02*
X58975000Y-69400000D01*
X60325000Y-70798002D02*
X66126998Y-76600000D01*
X60325000Y-68050000D02*
X60325000Y-70798002D01*
X78025000Y-76600000D02*
X79375000Y-75250000D01*
X66126998Y-76600000D02*
X78025000Y-76600000D01*
X96400000Y-75250000D02*
X98500000Y-73150000D01*
X79375000Y-75250000D02*
X96400000Y-75250000D01*
X98500000Y-73150000D02*
X101950000Y-76600000D01*
X116125000Y-76600000D02*
X117475000Y-75250000D01*
X101950000Y-76600000D02*
X116125000Y-76600000D01*
X117475000Y-75250000D02*
X120925000Y-78700000D01*
X135350000Y-78700000D02*
X136600000Y-77450000D01*
X120925000Y-78700000D02*
X135350000Y-78700000D01*
X136600000Y-77450000D02*
X137850000Y-78700000D01*
X154350000Y-78700000D02*
X155600000Y-77450000D01*
X137850000Y-78700000D02*
X154350000Y-78700000D01*
X155850000Y-77450000D02*
X155600000Y-77450000D01*
X171423750Y-75600000D02*
X174112500Y-72911250D01*
X157500000Y-75600000D02*
X171423750Y-75600000D01*
X155650000Y-77450000D02*
X157500000Y-75600000D01*
X174112500Y-72911250D02*
X174112500Y-71911250D01*
X155600000Y-77450000D02*
X155650000Y-77450000D01*
X58229500Y-61307500D02*
X58307500Y-61307500D01*
X60325000Y-63325000D02*
X60325000Y-64750000D01*
X58307500Y-61307500D02*
X60325000Y-63325000D01*
X77279500Y-68507500D02*
X77307500Y-68507500D01*
X79375000Y-70575000D02*
X79375000Y-71950000D01*
X77307500Y-68507500D02*
X79375000Y-70575000D01*
X96329500Y-66357500D02*
X96357500Y-66357500D01*
X98500000Y-68500000D02*
X98500000Y-69850000D01*
X96357500Y-66357500D02*
X98500000Y-68500000D01*
X115379500Y-68507500D02*
X115407500Y-68507500D01*
X117475000Y-70575000D02*
X117475000Y-71950000D01*
X115407500Y-68507500D02*
X117475000Y-70575000D01*
X134429500Y-70657500D02*
X134457500Y-70657500D01*
X136600000Y-72800000D02*
X136600000Y-74150000D01*
X134457500Y-70657500D02*
X136600000Y-72800000D01*
X153479500Y-70657500D02*
X153557500Y-70657500D01*
X155600000Y-72700000D02*
X155600000Y-74150000D01*
X153557500Y-70657500D02*
X155600000Y-72700000D01*
X39179500Y-80357500D02*
X39257500Y-80357500D01*
X41300000Y-82400000D02*
X41300000Y-83850000D01*
X39257500Y-80357500D02*
X41300000Y-82400000D01*
X41300000Y-87150000D02*
X42550000Y-88400000D01*
X59075000Y-88400000D02*
X60325000Y-87150000D01*
X42550000Y-88400000D02*
X59075000Y-88400000D01*
X78150000Y-95600000D02*
X79400000Y-94350000D01*
X96300000Y-94350000D02*
X98500000Y-92150000D01*
X79400000Y-94350000D02*
X96300000Y-94350000D01*
X98500000Y-92150000D02*
X101950000Y-95600000D01*
X116250000Y-95600000D02*
X117500000Y-94350000D01*
X101950000Y-95600000D02*
X116250000Y-95600000D01*
X117500000Y-94350000D02*
X120950000Y-97800000D01*
X135250000Y-97800000D02*
X136600000Y-96450000D01*
X120950000Y-97800000D02*
X135250000Y-97800000D01*
X136600000Y-96450000D02*
X137950000Y-97800000D01*
X154250000Y-97800000D02*
X155600000Y-96450000D01*
X137950000Y-97800000D02*
X154250000Y-97800000D01*
X66200000Y-95600000D02*
X67000000Y-95600000D01*
X60325000Y-89725000D02*
X66200000Y-95600000D01*
X60325000Y-87150000D02*
X60325000Y-89725000D01*
X66744998Y-95600000D02*
X67000000Y-95600000D01*
X67000000Y-95600000D02*
X78150000Y-95600000D01*
X155600000Y-96450000D02*
X158025000Y-96450000D01*
X158025000Y-96450000D02*
X158075000Y-96400000D01*
X174912500Y-73136556D02*
X174912500Y-71911250D01*
X173874528Y-74174528D02*
X174912500Y-73136556D01*
X58229500Y-80357500D02*
X58257500Y-80357500D01*
X60325000Y-82425000D02*
X60325000Y-83850000D01*
X58257500Y-80357500D02*
X60325000Y-82425000D01*
X77279500Y-87557500D02*
X77357500Y-87557500D01*
X79400000Y-89600000D02*
X79400000Y-91050000D01*
X77357500Y-87557500D02*
X79400000Y-89600000D01*
X96329500Y-85407500D02*
X96407500Y-85407500D01*
X98500000Y-87500000D02*
X98500000Y-88850000D01*
X96407500Y-85407500D02*
X98500000Y-87500000D01*
X115379500Y-87557500D02*
X115457500Y-87557500D01*
X117500000Y-89600000D02*
X117500000Y-91050000D01*
X115457500Y-87557500D02*
X117500000Y-89600000D01*
X134429500Y-89707500D02*
X134507500Y-89707500D01*
X136600000Y-91800000D02*
X136600000Y-93150000D01*
X134507500Y-89707500D02*
X136600000Y-91800000D01*
X153479500Y-89707500D02*
X153607500Y-89707500D01*
X155600000Y-91700000D02*
X155600000Y-93150000D01*
X153607500Y-89707500D02*
X155600000Y-91700000D01*
X39179500Y-99407500D02*
X39207500Y-99407500D01*
X41300000Y-101500000D02*
X41300000Y-102850000D01*
X39207500Y-99407500D02*
X41300000Y-101500000D01*
X41300000Y-106150000D02*
X42650000Y-107500000D01*
X58950000Y-107500000D02*
X60300000Y-106150000D01*
X42650000Y-107500000D02*
X58950000Y-107500000D01*
X125450000Y-122900000D02*
X127000000Y-121350000D01*
X127000000Y-121350000D02*
X129350000Y-123700000D01*
X146150000Y-123700000D02*
X147500000Y-122350000D01*
X129350000Y-123700000D02*
X146150000Y-123700000D01*
X147500000Y-122350000D02*
X147550000Y-122350000D01*
X147550000Y-122350000D02*
X153900000Y-128700000D01*
X164550000Y-128700000D02*
X165900000Y-127350000D01*
X153900000Y-128700000D02*
X164550000Y-128700000D01*
X165900000Y-127350000D02*
X168700000Y-124550000D01*
X168700000Y-104250000D02*
X167350000Y-102900000D01*
X168700000Y-124550000D02*
X168700000Y-104250000D01*
X167350000Y-102900000D02*
X167300000Y-102900000D01*
X167350000Y-102900000D02*
X167350000Y-102850000D01*
X167350000Y-102850000D02*
X164013711Y-99513711D01*
X164013711Y-99513711D02*
X164013711Y-91302448D01*
X175712500Y-73387500D02*
X175712500Y-71911250D01*
X174900000Y-74200000D02*
X175712500Y-73387500D01*
X113900000Y-122900000D02*
X114500000Y-122900000D01*
X103100000Y-112100000D02*
X113900000Y-122900000D01*
X114500000Y-122900000D02*
X125450000Y-122900000D01*
X60300000Y-106150000D02*
X60350000Y-106150000D01*
X60350000Y-106150000D02*
X61700000Y-104800000D01*
X70400000Y-104800000D02*
X77700000Y-112100000D01*
X61700000Y-104800000D02*
X70400000Y-104800000D01*
X77700000Y-112100000D02*
X103100000Y-112100000D01*
X58229500Y-99407500D02*
X58307500Y-99407500D01*
X60300000Y-101400000D02*
X60300000Y-102850000D01*
X58307500Y-99407500D02*
X60300000Y-101400000D01*
X125697880Y-114799129D02*
X125699129Y-114799129D01*
X127000000Y-116100000D02*
X127000000Y-118050000D01*
X125699129Y-114799129D02*
X127000000Y-116100000D01*
X146541489Y-115992618D02*
X146541489Y-116041489D01*
X147500000Y-117000000D02*
X147500000Y-119050000D01*
X146541489Y-116041489D02*
X147500000Y-117000000D01*
X164941489Y-120923868D02*
X165023868Y-120923868D01*
X165900000Y-121800000D02*
X165900000Y-124050000D01*
X165023868Y-120923868D02*
X165900000Y-121800000D01*
X170650000Y-97308750D02*
X170667500Y-97291250D01*
X170650000Y-102900000D02*
X170650000Y-97308750D01*
X161400000Y-83207000D02*
X161400000Y-83200000D01*
X161900000Y-82700000D02*
X167700000Y-82700000D01*
X161400000Y-83200000D02*
X161900000Y-82700000D01*
X167700000Y-82700000D02*
X167800000Y-82700000D01*
X177682500Y-81817500D02*
X177682500Y-80900000D01*
X176500000Y-83000000D02*
X177682500Y-81817500D01*
X167700000Y-82700000D02*
X168000000Y-83000000D01*
X168000000Y-83000000D02*
X176500000Y-83000000D01*
X168500000Y-50062500D02*
X168500000Y-49900000D01*
X168500000Y-50062500D02*
X168500000Y-49300000D01*
X168500000Y-49300000D02*
X169250000Y-48550000D01*
X169250000Y-48550000D02*
X169250000Y-44650000D01*
X171700000Y-50062500D02*
X171884999Y-49877501D01*
X171800000Y-50062500D02*
X171800000Y-49300000D01*
X171800000Y-49300000D02*
X171150000Y-48650000D01*
X171150000Y-48650000D02*
X171150000Y-44650000D01*
X122593750Y-43918750D02*
X121512500Y-45000000D01*
X152200000Y-43918750D02*
X122593750Y-43918750D01*
X86612500Y-41800000D02*
X83412500Y-45000000D01*
X116612500Y-41800000D02*
X86612500Y-41800000D01*
X78512500Y-41800000D02*
X65900000Y-41800000D01*
X65900000Y-41800000D02*
X61900000Y-37800000D01*
X61900000Y-37800000D02*
X52100000Y-37800000D01*
X47650000Y-33350000D02*
X44500000Y-33350000D01*
X52100000Y-37800000D02*
X47650000Y-33350000D01*
X41300000Y-38250000D02*
X41350000Y-38250000D01*
X41350000Y-38250000D02*
X42900000Y-39800000D01*
X43075000Y-70125000D02*
X44500000Y-71550000D01*
X42900000Y-70125000D02*
X43075000Y-70125000D01*
X41300000Y-76450000D02*
X41350000Y-76450000D01*
X41350000Y-76450000D02*
X43000000Y-78100000D01*
X40800000Y-91700000D02*
X40412500Y-91700000D01*
X43000000Y-89500000D02*
X40800000Y-91700000D01*
X45312500Y-94900000D02*
X61900000Y-94900000D01*
X67500000Y-100500000D02*
X78487500Y-100500000D01*
X61900000Y-94900000D02*
X67500000Y-100500000D01*
X115650000Y-103700000D02*
X116612500Y-102737500D01*
X83387500Y-103700000D02*
X115650000Y-103700000D01*
X152256250Y-105937500D02*
X155600000Y-109281250D01*
X121512500Y-105937500D02*
X152256250Y-105937500D01*
X158800000Y-88707000D02*
X158200000Y-88107000D01*
X158800000Y-104381250D02*
X158800000Y-88707000D01*
X26252500Y-25747500D02*
X26252500Y-28452500D01*
X26252500Y-28452500D02*
X26300000Y-28500000D01*
X26300000Y-101900000D02*
X26252500Y-101947500D01*
X26300000Y-99200000D02*
X26300000Y-101900000D01*
X26252500Y-44797500D02*
X26252500Y-47552500D01*
X26252500Y-47552500D02*
X26300000Y-47600000D01*
X26252500Y-82897500D02*
X26252500Y-85652500D01*
X26252500Y-85652500D02*
X26300000Y-85700000D01*
X26252500Y-63847500D02*
X26252500Y-66552500D01*
X26252500Y-66552500D02*
X26300000Y-66600000D01*
X58700000Y-51000000D02*
X65900000Y-58200000D01*
X26300000Y-51000000D02*
X58700000Y-51000000D01*
X118600000Y-58200000D02*
X120800000Y-60400000D01*
X65900000Y-58200000D02*
X118600000Y-58200000D01*
X120800000Y-60400000D02*
X157100000Y-60400000D01*
X162911250Y-66211250D02*
X169212500Y-66211250D01*
X157100000Y-60400000D02*
X162911250Y-66211250D01*
X45302500Y-85697500D02*
X45300000Y-85700000D01*
X45302500Y-82897500D02*
X45302500Y-85697500D01*
X45302500Y-25747500D02*
X45302500Y-28497500D01*
X45302500Y-28497500D02*
X45300000Y-28500000D01*
X45302500Y-47597500D02*
X45300000Y-47600000D01*
X45302500Y-44797500D02*
X45302500Y-47597500D01*
X45302500Y-63847500D02*
X45302500Y-66597500D01*
X45302500Y-66597500D02*
X45300000Y-66600000D01*
X45302500Y-101947500D02*
X45302500Y-99202500D01*
X45302500Y-99202500D02*
X45300000Y-99200000D01*
X120600000Y-60900000D02*
X156900000Y-60900000D01*
X118400000Y-58700000D02*
X120600000Y-60900000D01*
X65700000Y-58700000D02*
X118400000Y-58700000D01*
X45300000Y-51725000D02*
X45300000Y-51700000D01*
X45300000Y-51700000D02*
X45500000Y-51500000D01*
X58500000Y-51500000D02*
X59000000Y-52000000D01*
X45500000Y-51500000D02*
X58500000Y-51500000D01*
X58725000Y-51725000D02*
X59000000Y-52000000D01*
X59000000Y-52000000D02*
X65700000Y-58700000D01*
X163011250Y-67011250D02*
X169212500Y-67011250D01*
X156900000Y-60900000D02*
X163011250Y-67011250D01*
X64352500Y-32947500D02*
X64352500Y-35652500D01*
X64352500Y-35652500D02*
X64400000Y-35700000D01*
X64400000Y-90050000D02*
X64352500Y-90097500D01*
X64400000Y-87400000D02*
X64400000Y-90050000D01*
X64352500Y-54752500D02*
X64400000Y-54800000D01*
X64352500Y-51997500D02*
X64352500Y-54752500D01*
X64352500Y-73752500D02*
X64400000Y-73800000D01*
X64352500Y-71047500D02*
X64352500Y-73752500D01*
X156700000Y-61400000D02*
X163111250Y-67811250D01*
X64712653Y-58412653D02*
X65500000Y-59200000D01*
X64387347Y-58412653D02*
X64712653Y-58412653D01*
X65500000Y-59200000D02*
X118200000Y-59200000D01*
X118200000Y-59200000D02*
X120400000Y-61400000D01*
X163111250Y-67811250D02*
X169212500Y-67811250D01*
X120400000Y-61400000D02*
X156700000Y-61400000D01*
X83402500Y-30797500D02*
X83402500Y-33597500D01*
X83402500Y-33597500D02*
X83400000Y-33600000D01*
X83400000Y-87945000D02*
X83402500Y-87947500D01*
X83400000Y-85200000D02*
X83400000Y-87945000D01*
X83402500Y-52597500D02*
X83400000Y-52600000D01*
X83402500Y-49847500D02*
X83402500Y-52597500D01*
X83402500Y-71697500D02*
X83400000Y-71700000D01*
X83402500Y-68897500D02*
X83402500Y-71697500D01*
X112500000Y-115029588D02*
X112526203Y-115055791D01*
X112500000Y-112100000D02*
X112500000Y-115029588D01*
X120200000Y-61900000D02*
X156500000Y-61900000D01*
X83400000Y-59925000D02*
X83400000Y-59900000D01*
X83400000Y-59900000D02*
X83600000Y-59700000D01*
X118000000Y-59700000D02*
X118600000Y-60300000D01*
X118225000Y-59925000D02*
X118600000Y-60300000D01*
X83600000Y-59700000D02*
X118000000Y-59700000D01*
X118600000Y-60300000D02*
X120200000Y-61900000D01*
X163211250Y-68611250D02*
X169212500Y-68611250D01*
X156500000Y-61900000D02*
X163211250Y-68611250D01*
X102452500Y-32947500D02*
X102452500Y-35652500D01*
X102452500Y-35652500D02*
X102500000Y-35700000D01*
X102500000Y-90050000D02*
X102452500Y-90097500D01*
X102500000Y-87300000D02*
X102500000Y-90050000D01*
X102452500Y-54752500D02*
X102500000Y-54800000D01*
X102452500Y-51997500D02*
X102452500Y-54752500D01*
X102452500Y-71047500D02*
X102452500Y-73752500D01*
X102452500Y-73752500D02*
X102500000Y-73800000D01*
X133400000Y-115097881D02*
X133397566Y-115100315D01*
X133400000Y-112100000D02*
X133400000Y-115097881D01*
X102500000Y-60425000D02*
X102500000Y-60400000D01*
X102500000Y-60400000D02*
X102700000Y-60200000D01*
X102950000Y-60200000D02*
X103400000Y-60200000D01*
X102700000Y-60200000D02*
X103400000Y-60200000D01*
X170523750Y-74100000D02*
X171712500Y-72911250D01*
X163400000Y-74100000D02*
X170523750Y-74100000D01*
X171712500Y-72911250D02*
X171712500Y-71911250D01*
X162600000Y-73300000D02*
X163400000Y-74100000D01*
X103400000Y-60200000D02*
X117800000Y-60200000D01*
X162600000Y-68700000D02*
X162600000Y-73300000D01*
X117800000Y-60200000D02*
X120000000Y-62400000D01*
X156300000Y-62400000D02*
X162600000Y-68700000D01*
X120000000Y-62400000D02*
X156300000Y-62400000D01*
X121502500Y-35097500D02*
X121502500Y-37897500D01*
X121502500Y-37897500D02*
X121500000Y-37900000D01*
X121500000Y-92245000D02*
X121502500Y-92247500D01*
X121500000Y-89500000D02*
X121500000Y-92245000D01*
X121502500Y-54147500D02*
X121502500Y-56897500D01*
X121502500Y-56897500D02*
X121500000Y-56900000D01*
X121502500Y-75997500D02*
X121500000Y-76000000D01*
X121502500Y-73197500D02*
X121502500Y-75997500D01*
X151700000Y-119933999D02*
X151797566Y-120031565D01*
X151700000Y-117000000D02*
X151700000Y-119933999D01*
X121500000Y-63125000D02*
X121500000Y-63100000D01*
X121500000Y-63100000D02*
X121700000Y-62900000D01*
X121700000Y-62900000D02*
X156100000Y-62900000D01*
X156100000Y-62900000D02*
X162100000Y-68900000D01*
X162100000Y-68900000D02*
X162100000Y-73500000D01*
X162100000Y-73500000D02*
X163200000Y-74600000D01*
X170823750Y-74600000D02*
X172512500Y-72911250D01*
X172512500Y-72911250D02*
X172512500Y-71911250D01*
X163200000Y-74600000D02*
X170823750Y-74600000D01*
X140552500Y-35097500D02*
X140552500Y-37852500D01*
X140552500Y-37852500D02*
X140600000Y-37900000D01*
X140600000Y-92200000D02*
X140552500Y-92247500D01*
X140600000Y-89500000D02*
X140600000Y-92200000D01*
X140552500Y-75952500D02*
X140600000Y-76000000D01*
X140552500Y-73197500D02*
X140552500Y-75952500D01*
X140552500Y-54147500D02*
X140552500Y-56852500D01*
X140552500Y-56852500D02*
X140600000Y-56900000D01*
X170576250Y-92200000D02*
X170667500Y-92291250D01*
X168200000Y-92200000D02*
X170576250Y-92200000D01*
X171123750Y-75100000D02*
X173312500Y-72911250D01*
X161600000Y-73700000D02*
X163000000Y-75100000D01*
X140600000Y-63625000D02*
X140600000Y-63600000D01*
X173312500Y-72911250D02*
X173312500Y-71911250D01*
X140600000Y-63600000D02*
X140800000Y-63400000D01*
X140800000Y-63400000D02*
X155900000Y-63400000D01*
X155900000Y-63400000D02*
X161600000Y-69100000D01*
X163000000Y-75100000D02*
X171123750Y-75100000D01*
X161600000Y-69100000D02*
X161600000Y-73700000D01*
X170286250Y-72537500D02*
X170912500Y-71911250D01*
X164600000Y-72537500D02*
X170286250Y-72537500D01*
X165700000Y-32662500D02*
X166762500Y-31600000D01*
X166762500Y-31600000D02*
X171100000Y-31600000D01*
X172004999Y-32504999D02*
X172004999Y-34895000D01*
X171100000Y-31600000D02*
X172004999Y-32504999D01*
X180800000Y-32662500D02*
X179737500Y-31600000D01*
X179737500Y-31600000D02*
X175700000Y-31600000D01*
X175004999Y-32295001D02*
X175004999Y-34895000D01*
X175700000Y-31600000D02*
X175004999Y-32295001D01*
X177312500Y-71911250D02*
X177300000Y-71923750D01*
X177312500Y-76087500D02*
X177312500Y-71911250D01*
X175300000Y-78100000D02*
X177312500Y-76087500D01*
X169200000Y-81400000D02*
X170200000Y-80400000D01*
X170200000Y-79000000D02*
X171100000Y-78100000D01*
X167700000Y-81400000D02*
X169200000Y-81400000D01*
X170200000Y-80400000D02*
X170200000Y-79000000D01*
X171100000Y-78100000D02*
X175300000Y-78100000D01*
X157118750Y-47118750D02*
X157100000Y-47118750D01*
X159000000Y-49000000D02*
X157118750Y-47118750D01*
X162600000Y-80100000D02*
X159000000Y-76500000D01*
X167700000Y-80100000D02*
X162600000Y-80100000D01*
X181511250Y-70211250D02*
X180612500Y-70211250D01*
X186400000Y-75100000D02*
X181511250Y-70211250D01*
X185167500Y-92291250D02*
X186400000Y-91058750D01*
X186400000Y-91058750D02*
X186400000Y-75100000D01*
X187000000Y-74900000D02*
X181511250Y-69411250D01*
X181511250Y-69411250D02*
X180612500Y-69411250D01*
X185167500Y-97291250D02*
X187000000Y-95458750D01*
X187000000Y-95458750D02*
X187000000Y-74900000D01*
X183300000Y-61900000D02*
X183300000Y-56137500D01*
X180612500Y-63011250D02*
X182188750Y-63011250D01*
X182188750Y-63011250D02*
X183300000Y-61900000D01*
X183300000Y-56137500D02*
X184437500Y-56137500D01*
X184437500Y-56137500D02*
X185300000Y-57000000D01*
X186850000Y-52150000D02*
X186900000Y-52200000D01*
X187400000Y-40200000D02*
X188300000Y-40200000D01*
X188300000Y-40200000D02*
X188600000Y-40500000D01*
X188600000Y-47850000D02*
X186850000Y-49600000D01*
X188600000Y-40500000D02*
X188600000Y-47850000D01*
X186850000Y-49600000D02*
X186850000Y-52150000D01*
X169800000Y-53237500D02*
X168500000Y-51937500D01*
X172512500Y-60511250D02*
X172512500Y-59312500D01*
X169800000Y-56600000D02*
X169800000Y-53237500D01*
X172512500Y-59312500D02*
X169800000Y-56600000D01*
X173312500Y-60511250D02*
X173312500Y-59112500D01*
X173312500Y-59112500D02*
X170500000Y-56300000D01*
X170500000Y-53237500D02*
X171800000Y-51937500D01*
X170500000Y-56300000D02*
X170500000Y-53237500D01*
D33*
X173462500Y-43400000D02*
X173600000Y-43537500D01*
D34*
X170457500Y-43362500D02*
X173600000Y-43362500D01*
X170200000Y-41950000D02*
X170200000Y-43105000D01*
X170200000Y-43105000D02*
X170457500Y-43362500D01*
X170200000Y-41950000D02*
X170200000Y-40100000D01*
D33*
X170804999Y-36995001D02*
X170804999Y-34895000D01*
X170200000Y-37600000D02*
X170804999Y-36995001D01*
X175700000Y-34899999D02*
X175704999Y-34895000D01*
X175700000Y-37600000D02*
X175700000Y-34899999D01*
D34*
X173600000Y-43362500D02*
X174762500Y-43362500D01*
X175500000Y-44100000D02*
X176700000Y-44100000D01*
X174762500Y-43362500D02*
X175500000Y-44100000D01*
D32*
X169250000Y-41950000D02*
X169250000Y-40650000D01*
X172504999Y-33434998D02*
X172739997Y-33200000D01*
X172504999Y-34895000D02*
X172504999Y-33434998D01*
X173504999Y-33434998D02*
X173504999Y-34895000D01*
X173270001Y-33200000D02*
X173504999Y-33434998D01*
X172739997Y-33200000D02*
X173270001Y-33200000D01*
X169250000Y-39650000D02*
X169250000Y-41950000D01*
X172504999Y-34895000D02*
X172504999Y-36395001D01*
X172504999Y-36395001D02*
X169250000Y-39650000D01*
X173004999Y-36370000D02*
X173234999Y-36600000D01*
X173004999Y-34895000D02*
X173004999Y-36370000D01*
X174004999Y-36395001D02*
X174004999Y-34895000D01*
X173800000Y-36600000D02*
X174004999Y-36395001D01*
X173234999Y-36600000D02*
X173800000Y-36600000D01*
X173004999Y-36695001D02*
X170700000Y-39000000D01*
X173004999Y-34895000D02*
X173004999Y-36695001D01*
X171150000Y-41950000D02*
X171150000Y-39976998D01*
X170700000Y-39526998D02*
X170700000Y-39000000D01*
X171150000Y-39976998D02*
X170700000Y-39526998D01*
M02*
