M48
; DRILL file {KiCad (5.1.6)-1} date 08/03/20 21:48:48
; FORMAT={-:-/ absolute / metric / decimal}
; #@! TF.CreationDate,2020-08-03T21:48:48+03:00
; #@! TF.GenerationSoftware,Kicad,Pcbnew,(5.1.6)-1
; #@! TF.FileFunction,Plated,1,2,PTH
FMAT,2
METRIC
T1C0.400
T2C0.600
T3C1.000
T4C1.500
T5C2.200
%
G90
G05
T1
X25.1Y-35.3
X25.1Y-56.9
X25.1Y-75.9
X25.1Y-92.4
X26.3Y-28.5
X26.3Y-47.6
X26.3Y-51.0
X26.3Y-66.6
X26.3Y-85.7
X26.3Y-99.2
X27.5Y-35.3
X27.5Y-56.9
X27.5Y-75.9
X27.5Y-92.4
X38.8Y-94.9
X39.9Y-33.4
X39.9Y-71.6
X41.7Y-41.8
X41.7Y-56.9
X41.8Y-79.7
X42.9Y-39.8
X42.9Y-70.125
X43.0Y-78.1
X43.0Y-89.5
X44.1Y-31.3
X44.1Y-97.1
X45.3Y-28.5
X45.3Y-47.6
X45.3Y-51.725
X45.3Y-66.6
X45.3Y-85.7
X45.3Y-99.2
X46.5Y-32.1
X46.5Y-41.8
X46.5Y-56.9
X46.5Y-79.7
X46.5Y-97.1
X48.6Y-36.6
X48.6Y-74.8
X49.3Y-76.8
X49.6Y-93.6
X60.6Y-80.5
X61.9Y-93.6
X62.9Y-77.9
X63.2Y-45.0
X63.2Y-61.5
X64.387Y-58.413
X64.4Y-35.7
X64.4Y-54.8
X64.4Y-73.8
X64.4Y-87.4
X65.6Y-45.0
X65.6Y-61.5
X65.6Y-80.6
X74.1Y-43.1
X76.8Y-103.7
X82.1Y-61.9
X82.1Y-81.0
X82.2Y-39.2
X83.4Y-33.6
X83.4Y-52.6
X83.4Y-59.925
X83.4Y-71.7
X83.4Y-85.2
X84.6Y-39.2
X84.7Y-61.9
X84.7Y-81.0
X85.0Y-41.8
X87.8Y-102.4
X87.9Y-97.5
X89.7Y-95.7
X101.3Y-40.1
X101.3Y-64.1
X101.3Y-83.1
X102.5Y-35.7
X102.5Y-54.8
X102.5Y-60.425
X102.5Y-73.8
X102.5Y-87.3
X103.7Y-40.1
X103.7Y-64.1
X103.7Y-83.1
X106.1Y-98.6
X107.8Y-96.9
X111.3Y-105.0
X112.2Y-43.1
X112.5Y-112.1
X113.7Y-105.0
X115.0Y-105.9
X120.3Y-49.7
X120.3Y-66.2
X120.3Y-85.3
X121.5Y-37.9
X121.5Y-56.9
X121.5Y-63.125
X121.5Y-76.0
X121.5Y-89.5
X122.7Y-49.7
X122.7Y-66.2
X122.7Y-85.3
X123.0Y-98.7
X123.0Y-101.1
X123.2Y-41.8
X125.9Y-104.6
X129.2Y-102.7
X130.9Y-101.0
X132.2Y-109.3
X133.4Y-112.1
X134.6Y-109.3
X139.4Y-45.9
X139.4Y-66.2
X139.4Y-85.3
X140.6Y-37.9
X140.6Y-56.9
X140.6Y-63.625
X140.6Y-76.0
X140.6Y-89.5
X141.2Y-101.4
X141.8Y-45.9
X141.8Y-66.2
X141.8Y-85.3
X142.9Y-99.7
X147.8Y-45.2
X151.7Y-117.0
X156.1Y-99.025
X157.5Y-100.2
X157.8Y-49.7
X158.075Y-96.4
X158.4Y-74.5
X158.7Y-43.9
X159.525Y-99.0
X159.6Y-60.9
X160.2Y-78.8
X160.2Y-109.3
X160.8Y-74.5
X161.4Y-89.7
X163.1Y-79.6
X163.7Y-48.4
X163.7Y-51.0
X164.6Y-62.8
X165.7Y-36.1
X165.7Y-40.9
X165.7Y-76.8
X166.2Y-70.6
X166.3Y-86.9
X167.4Y-83.932
X167.6Y-63.0
X167.6Y-69.4
X168.2Y-92.2
X168.9Y-78.0
X169.1Y-85.6
X169.1Y-88.2
X169.2Y-42.5
X169.8Y-37.0
X170.9Y-42.5
X170.9Y-48.5
X171.1Y-63.8
X171.1Y-66.2
X171.1Y-68.6
X171.9Y-49.7
X172.6Y-42.5
X173.875Y-74.175
X174.1Y-58.9
X174.9Y-63.7
X174.9Y-66.2
X174.9Y-68.6
X174.9Y-74.2
X175.0Y-53.5
X176.7Y-37.0
X177.0Y-48.5
X177.7Y-53.5
X178.7Y-63.8
X178.7Y-66.2
X178.7Y-68.6
X178.9Y-73.5
X180.5Y-73.9
X180.8Y-36.1
X181.1Y-50.4
X182.2Y-64.6
X182.8Y-38.2
X183.2Y-74.0
X183.8Y-66.3
X183.9Y-57.8
X184.45Y-78.65
X186.4Y-55.6
X188.4Y-53.6
X188.9Y-72.3
X189.1Y-56.3
X189.4Y-42.7
X190.8Y-74.2
X191.2Y-65.7
X191.5Y-63.9
X192.0Y-66.9
T3
X170.667Y-92.291
X170.667Y-97.291
X185.167Y-92.291
X185.167Y-94.791
X185.167Y-97.291
X175.142Y-80.9
X177.683Y-80.9
X180.222Y-80.9
T5
X187.6Y-33.7
X192.25Y-94.79
X173.9Y-120.0
X104.2Y-120.5
X66.7Y-24.0
X66.7Y-110.4
X101.6Y-26.0
X31.05Y-94.95
X159.8Y-32.8
X31.1Y-37.8
X69.2Y-64.3
X126.1Y-67.4
T2
G00X168.935Y-29.0
M15
G01X168.935Y-29.6
M16
G05
G00X168.935Y-32.93
M15
G01X168.935Y-34.03
M16
G05
G00X177.575Y-29.0
M15
G01X177.575Y-29.6
M16
G05
G00X177.575Y-32.93
M15
G01X177.575Y-34.03
M16
G05
T4
G00X178.317Y-89.191
M15
G01X177.017Y-89.191
M16
G05
G00X178.317Y-100.391
M15
G01X177.017Y-100.391
M16
G05
T0
M30
