G04 #@! TF.GenerationSoftware,KiCad,Pcbnew,(5.1.6)-1*
G04 #@! TF.CreationDate,2020-08-03T21:44:11+03:00*
G04 #@! TF.ProjectId,ergo33,6572676f-3333-42e6-9b69-6361645f7063,rev?*
G04 #@! TF.SameCoordinates,Original*
G04 #@! TF.FileFunction,Soldermask,Top*
G04 #@! TF.FilePolarity,Negative*
%FSLAX46Y46*%
G04 Gerber Fmt 4.6, Leading zero omitted, Abs format (unit mm)*
G04 Created by KiCad (PCBNEW (5.1.6)-1) date 2020-08-03 21:44:11*
%MOMM*%
%LPD*%
G01*
G04 APERTURE LIST*
%ADD10C,3.600000*%
%ADD11C,0.750000*%
%ADD12O,1.100000X2.200000*%
%ADD13O,1.100000X1.700000*%
%ADD14C,3.100000*%
%ADD15C,4.087800*%
%ADD16C,1.850000*%
%ADD17C,2.100000*%
%ADD18R,3.300000X2.100000*%
%ADD19R,2.100000X2.100000*%
%ADD20R,1.800000X1.800000*%
%ADD21O,1.800000X1.800000*%
G04 APERTURE END LIST*
D10*
X159800000Y-32800000D03*
X126100000Y-67400000D03*
X101600000Y-26000000D03*
X66700000Y-24000000D03*
X69200000Y-64300000D03*
X31100000Y-37800000D03*
X31050000Y-94950000D03*
X66700000Y-110400000D03*
X104200000Y-120500000D03*
X173900000Y-120000000D03*
X192250000Y-94790000D03*
X187600000Y-33700000D03*
D11*
X176144999Y-32950000D03*
X170364999Y-32950000D03*
D12*
X168934999Y-33480000D03*
X177574999Y-33480000D03*
D13*
X168934999Y-29300000D03*
X177574999Y-29300000D03*
D14*
X150177500Y-51607500D03*
D15*
X147637500Y-56687500D03*
D14*
X143827500Y-54147500D03*
D16*
X142557500Y-56687500D03*
X152717500Y-56687500D03*
D14*
X54927500Y-42257500D03*
D15*
X52387500Y-47337500D03*
D14*
X48577500Y-44797500D03*
D16*
X47307500Y-47337500D03*
X57467500Y-47337500D03*
D14*
X112077500Y-49457500D03*
D15*
X109537500Y-54537500D03*
D14*
X105727500Y-51997500D03*
D16*
X104457500Y-54537500D03*
X114617500Y-54537500D03*
D14*
X73977500Y-68507500D03*
D15*
X71437500Y-73587500D03*
D14*
X67627500Y-71047500D03*
D16*
X66357500Y-73587500D03*
X76517500Y-73587500D03*
D17*
X170667500Y-92291250D03*
X170667500Y-97291250D03*
D18*
X177667500Y-89191250D03*
X177667500Y-100391250D03*
D17*
X185167500Y-92291250D03*
X185167500Y-94791250D03*
D19*
X185167500Y-97291250D03*
D14*
X161752002Y-120069247D03*
D15*
X157983750Y-124318750D03*
D14*
X154960973Y-120879198D03*
D16*
X153076847Y-123003949D03*
X162890653Y-125633551D03*
D14*
X143352002Y-115137997D03*
D15*
X139583750Y-119387500D03*
D14*
X136560973Y-115947948D03*
D16*
X134676847Y-118072699D03*
X144490653Y-120702301D03*
D14*
X122446044Y-114225743D03*
D15*
X119062500Y-118787500D03*
D14*
X115751449Y-115624489D03*
D16*
X114059677Y-117905367D03*
X124065323Y-119669633D03*
D14*
X54927500Y-99407500D03*
D15*
X52387500Y-104487500D03*
D14*
X48577500Y-101947500D03*
D16*
X47307500Y-104487500D03*
X57467500Y-104487500D03*
D14*
X35877500Y-99407500D03*
D15*
X33337500Y-104487500D03*
D14*
X29527500Y-101947500D03*
D16*
X28257500Y-104487500D03*
X38417500Y-104487500D03*
D14*
X150177500Y-89707500D03*
D15*
X147637500Y-94787500D03*
D14*
X143827500Y-92247500D03*
D16*
X142557500Y-94787500D03*
X152717500Y-94787500D03*
D14*
X131127500Y-89707500D03*
D15*
X128587500Y-94787500D03*
D14*
X124777500Y-92247500D03*
D16*
X123507500Y-94787500D03*
X133667500Y-94787500D03*
D14*
X112077500Y-87557500D03*
D15*
X109537500Y-92637500D03*
D14*
X105727500Y-90097500D03*
D16*
X104457500Y-92637500D03*
X114617500Y-92637500D03*
D14*
X93027500Y-85407500D03*
D15*
X90487500Y-90487500D03*
D14*
X86677500Y-87947500D03*
D16*
X85407500Y-90487500D03*
X95567500Y-90487500D03*
D14*
X73977500Y-87557500D03*
D15*
X71437500Y-92637500D03*
D14*
X67627500Y-90097500D03*
D16*
X66357500Y-92637500D03*
X76517500Y-92637500D03*
D14*
X54927500Y-80357500D03*
D15*
X52387500Y-85437500D03*
D14*
X48577500Y-82897500D03*
D16*
X47307500Y-85437500D03*
X57467500Y-85437500D03*
D14*
X35877500Y-80357500D03*
D15*
X33337500Y-85437500D03*
D14*
X29527500Y-82897500D03*
D16*
X28257500Y-85437500D03*
X38417500Y-85437500D03*
D14*
X150177500Y-70657500D03*
D15*
X147637500Y-75737500D03*
D14*
X143827500Y-73197500D03*
D16*
X142557500Y-75737500D03*
X152717500Y-75737500D03*
D14*
X131127500Y-70657500D03*
D15*
X128587500Y-75737500D03*
D14*
X124777500Y-73197500D03*
D16*
X123507500Y-75737500D03*
X133667500Y-75737500D03*
D14*
X112077500Y-68507500D03*
D15*
X109537500Y-73587500D03*
D14*
X105727500Y-71047500D03*
D16*
X104457500Y-73587500D03*
X114617500Y-73587500D03*
D14*
X93027500Y-66357500D03*
D15*
X90487500Y-71437500D03*
D14*
X86677500Y-68897500D03*
D16*
X85407500Y-71437500D03*
X95567500Y-71437500D03*
D14*
X54927500Y-61307500D03*
D15*
X52387500Y-66387500D03*
D14*
X48577500Y-63847500D03*
D16*
X47307500Y-66387500D03*
X57467500Y-66387500D03*
D14*
X35877500Y-61307500D03*
D15*
X33337500Y-66387500D03*
D14*
X29527500Y-63847500D03*
D16*
X28257500Y-66387500D03*
X38417500Y-66387500D03*
D14*
X131127500Y-51607500D03*
D15*
X128587500Y-56687500D03*
D14*
X124777500Y-54147500D03*
D16*
X123507500Y-56687500D03*
X133667500Y-56687500D03*
D14*
X93027500Y-47307500D03*
D15*
X90487500Y-52387500D03*
D14*
X86677500Y-49847500D03*
D16*
X85407500Y-52387500D03*
X95567500Y-52387500D03*
D14*
X73977500Y-49457500D03*
D15*
X71437500Y-54537500D03*
D14*
X67627500Y-51997500D03*
D16*
X66357500Y-54537500D03*
X76517500Y-54537500D03*
D14*
X35877500Y-42257500D03*
D15*
X33337500Y-47337500D03*
D14*
X29527500Y-44797500D03*
D16*
X28257500Y-47337500D03*
X38417500Y-47337500D03*
D14*
X150177500Y-32557500D03*
D15*
X147637500Y-37637500D03*
D14*
X143827500Y-35097500D03*
D16*
X142557500Y-37637500D03*
X152717500Y-37637500D03*
D14*
X131127500Y-32557500D03*
D15*
X128587500Y-37637500D03*
D14*
X124777500Y-35097500D03*
D16*
X123507500Y-37637500D03*
X133667500Y-37637500D03*
D14*
X112077500Y-30407500D03*
D15*
X109537500Y-35487500D03*
D14*
X105727500Y-32947500D03*
D16*
X104457500Y-35487500D03*
X114617500Y-35487500D03*
D14*
X93027500Y-28257500D03*
D15*
X90487500Y-33337500D03*
D14*
X86677500Y-30797500D03*
D16*
X85407500Y-33337500D03*
X95567500Y-33337500D03*
D14*
X73977500Y-30407500D03*
D15*
X71437500Y-35487500D03*
D14*
X67627500Y-32947500D03*
D16*
X66357500Y-35487500D03*
X76517500Y-35487500D03*
D14*
X54927500Y-23207500D03*
D15*
X52387500Y-28287500D03*
D14*
X48577500Y-25747500D03*
D16*
X47307500Y-28287500D03*
X57467500Y-28287500D03*
D14*
X35877500Y-23207500D03*
D15*
X33337500Y-28287500D03*
D14*
X29527500Y-25747500D03*
D16*
X28257500Y-28287500D03*
X38417500Y-28287500D03*
D20*
X175142500Y-80900000D03*
D21*
X177682500Y-80900000D03*
X180222500Y-80900000D03*
M02*
