M48
; DRILL file {KiCad (5.1.6)-1} date 08/03/20 21:44:25
; FORMAT={-:-/ absolute / metric / decimal}
; #@! TF.CreationDate,2020-08-03T21:44:25+03:00
; #@! TF.GenerationSoftware,Kicad,Pcbnew,(5.1.6)-1
; #@! TF.FileFunction,NonPlated,1,2,NPTH
FMAT,2
METRIC
T1C0.650
T2C1.750
T3C3.000
T4C3.988
%
G90
G05
T1
X170.365Y-32.95
X176.145Y-32.95
T2
X28.258Y-85.438
X38.417Y-85.438
X47.307Y-28.287
X57.467Y-28.287
X85.407Y-52.387
X95.567Y-52.387
X142.558Y-56.688
X152.718Y-56.688
X47.307Y-85.438
X57.467Y-85.438
X66.358Y-92.638
X76.517Y-92.638
X123.507Y-75.737
X133.667Y-75.737
X47.307Y-66.388
X57.467Y-66.388
X85.407Y-71.438
X95.567Y-71.438
X104.457Y-92.638
X114.617Y-92.638
X114.06Y-117.905
X124.065Y-119.67
X28.258Y-66.388
X38.417Y-66.388
X104.457Y-73.587
X114.617Y-73.587
X66.358Y-54.537
X76.517Y-54.537
X28.258Y-28.287
X38.417Y-28.287
X142.558Y-37.637
X152.718Y-37.637
X85.407Y-90.487
X95.567Y-90.487
X123.507Y-56.688
X133.667Y-56.688
X123.507Y-37.637
X133.667Y-37.637
X104.457Y-54.537
X114.617Y-54.537
X142.558Y-75.737
X152.718Y-75.737
X47.307Y-104.487
X57.467Y-104.487
X66.358Y-73.587
X76.517Y-73.587
X85.407Y-33.337
X95.567Y-33.337
X104.457Y-35.487
X114.617Y-35.487
X123.507Y-94.787
X133.667Y-94.787
X134.677Y-118.073
X144.491Y-120.702
X142.558Y-94.787
X152.718Y-94.787
X28.258Y-47.337
X38.417Y-47.337
X66.358Y-35.487
X76.517Y-35.487
X47.307Y-47.337
X57.467Y-47.337
X28.258Y-104.487
X38.417Y-104.487
X153.077Y-123.004
X162.891Y-125.634
T3
X86.677Y-30.797
X93.027Y-28.258
X105.727Y-32.947
X112.078Y-30.407
X124.777Y-92.248
X131.127Y-89.707
X136.561Y-115.948
X143.352Y-115.138
X143.827Y-92.248
X150.177Y-89.707
X29.527Y-44.797
X35.877Y-42.258
X67.627Y-32.947
X73.977Y-30.407
X48.578Y-44.797
X54.927Y-42.258
X29.527Y-101.947
X35.877Y-99.407
X154.961Y-120.879
X161.752Y-120.069
X29.527Y-82.897
X35.877Y-80.358
X48.578Y-25.747
X54.927Y-23.207
X86.677Y-49.847
X93.027Y-47.307
X143.827Y-54.148
X150.177Y-51.607
X48.578Y-82.897
X54.927Y-80.358
X67.627Y-90.097
X73.977Y-87.557
X124.777Y-73.197
X131.127Y-70.657
X48.578Y-63.847
X54.927Y-61.307
X86.677Y-68.897
X93.027Y-66.358
X105.727Y-90.097
X112.078Y-87.557
X115.751Y-115.624
X122.446Y-114.226
X29.527Y-63.847
X35.877Y-61.307
X105.727Y-71.047
X112.078Y-68.507
X67.627Y-51.997
X73.977Y-49.457
X29.527Y-25.747
X35.877Y-23.207
X143.827Y-35.097
X150.177Y-32.557
X86.677Y-87.947
X93.027Y-85.407
X124.777Y-54.148
X131.127Y-51.607
X124.777Y-35.097
X131.127Y-32.557
X105.727Y-51.997
X112.078Y-49.457
X143.827Y-73.197
X150.177Y-70.657
X48.578Y-101.947
X54.927Y-99.407
X67.627Y-71.047
X73.977Y-68.507
T4
X71.438Y-54.537
X33.337Y-28.287
X147.637Y-37.637
X90.487Y-90.487
X128.588Y-56.688
X128.588Y-37.637
X109.537Y-54.537
X147.637Y-75.737
X52.387Y-104.487
X71.438Y-73.587
X90.487Y-33.337
X109.537Y-35.487
X128.588Y-94.787
X139.584Y-119.387
X147.637Y-94.787
X33.337Y-47.337
X71.438Y-35.487
X52.387Y-47.337
X33.337Y-104.487
X157.984Y-124.319
X33.337Y-85.438
X52.387Y-28.287
X90.487Y-52.387
X147.637Y-56.688
X52.387Y-85.438
X71.438Y-92.638
X128.588Y-75.737
X52.387Y-66.388
X90.487Y-71.438
X109.537Y-92.638
X119.062Y-118.787
X33.337Y-66.388
X109.537Y-73.587
T0
M30
