M48
; DRILL file {KiCad (5.1.6)-1} date 07/25/20 12:50:57
; FORMAT={-:-/ absolute / metric / decimal}
; #@! TF.CreationDate,2020-07-25T12:50:57+03:00
; #@! TF.GenerationSoftware,Kicad,Pcbnew,(5.1.6)-1
; #@! TF.FileFunction,Plated,1,2,PTH
FMAT,2
METRIC
T1C0.400
T2C0.600
T3C1.000
T4C1.500
T5C2.200
%
G90
G05
T1
X26.3Y-28.5
X26.3Y-47.6
X26.3Y-51.0
X26.3Y-66.6
X26.3Y-85.7
X26.3Y-99.2
X38.2Y-94.9
X39.1Y-33.3
X39.1Y-71.6
X42.9Y-39.8
X42.9Y-70.125
X43.0Y-78.1
X43.0Y-89.5
X45.3Y-28.5
X45.3Y-47.6
X45.3Y-51.725
X45.3Y-66.6
X45.3Y-85.7
X45.3Y-99.2
X49.3Y-76.8
X61.9Y-93.6
X64.387Y-58.413
X64.4Y-35.7
X64.4Y-54.8
X64.4Y-73.8
X64.4Y-87.4
X73.3Y-43.2
X76.2Y-103.7
X83.4Y-33.6
X83.4Y-52.6
X83.4Y-59.925
X83.4Y-71.7
X83.4Y-85.2
X102.5Y-35.7
X102.5Y-54.8
X102.5Y-60.425
X102.5Y-73.8
X102.5Y-87.3
X111.4Y-43.2
X112.5Y-112.1
X114.4Y-106.0
X121.5Y-37.9
X121.5Y-56.9
X121.5Y-63.125
X121.5Y-76.0
X121.5Y-89.5
X133.4Y-112.1
X140.6Y-37.9
X140.6Y-56.9
X140.6Y-63.625
X140.6Y-76.0
X140.6Y-89.5
X147.0Y-45.3
X151.7Y-117.0
X157.6Y-99.6
X158.075Y-96.4
X158.8Y-111.5
X159.0Y-49.0
X159.0Y-76.5
X159.3Y-45.8
X159.7Y-98.8
X161.4Y-90.3
X163.5Y-34.5
X164.014Y-91.302
X164.6Y-56.3
X166.3Y-86.9
X167.0Y-61.7
X167.0Y-70.7
X167.6Y-56.6
X168.2Y-92.2
X168.4Y-37.5
X170.2Y-37.6
X170.2Y-40.1
X170.2Y-46.9
X172.5Y-48.2
X172.6Y-80.9
X173.0Y-55.9
X173.1Y-54.5
X173.6Y-47.2
X173.6Y-58.1
X173.875Y-74.175
X174.9Y-74.2
X175.7Y-37.6
X178.2Y-37.6
X179.8Y-46.4
X180.0Y-73.9
X180.1Y-58.5
X180.6Y-50.9
X182.7Y-94.8
X183.0Y-34.5
X183.1Y-64.5
X183.2Y-40.2
X185.3Y-57.0
X185.8Y-53.5
X186.9Y-52.2
X191.3Y-63.1
X191.3Y-68.4
T3
X175.142Y-80.9
X177.683Y-80.9
X180.222Y-80.9
X170.667Y-92.291
X170.667Y-97.291
X185.167Y-92.291
X185.167Y-94.791
X185.167Y-97.291
T5
X31.05Y-94.95
X187.6Y-33.7
X104.2Y-120.5
X173.9Y-120.0
X66.7Y-110.4
X101.6Y-26.0
X159.8Y-32.8
X69.2Y-64.3
X192.25Y-94.79
X126.1Y-67.4
X66.7Y-24.0
X31.1Y-37.8
T2
G00X168.935Y-29.0
M15
G01X168.935Y-29.6
M16
G05
G00X168.935Y-32.93
M15
G01X168.935Y-34.03
M16
G05
G00X177.575Y-29.0
M15
G01X177.575Y-29.6
M16
G05
G00X177.575Y-32.93
M15
G01X177.575Y-34.03
M16
G05
T4
G00X178.317Y-89.191
M15
G01X177.017Y-89.191
M16
G05
G00X178.317Y-100.391
M15
G01X177.017Y-100.391
M16
G05
T0
M30
