G04 #@! TF.GenerationSoftware,KiCad,Pcbnew,(5.1.6)-1*
G04 #@! TF.CreationDate,2020-08-03T21:48:44+03:00*
G04 #@! TF.ProjectId,ergo33,6572676f-3333-42e6-9b69-6361645f7063,rev?*
G04 #@! TF.SameCoordinates,Original*
G04 #@! TF.FileFunction,Copper,L2,Bot*
G04 #@! TF.FilePolarity,Positive*
%FSLAX46Y46*%
G04 Gerber Fmt 4.6, Leading zero omitted, Abs format (unit mm)*
G04 Created by KiCad (PCBNEW (5.1.6)-1) date 2020-08-03 21:48:44*
%MOMM*%
%LPD*%
G01*
G04 APERTURE LIST*
G04 #@! TA.AperFunction,SMDPad,CuDef*
%ADD10R,1.500000X1.000000*%
G04 #@! TD*
G04 #@! TA.AperFunction,ComponentPad*
%ADD11C,3.500000*%
G04 #@! TD*
G04 #@! TA.AperFunction,SMDPad,CuDef*
%ADD12C,0.100000*%
G04 #@! TD*
G04 #@! TA.AperFunction,SMDPad,CuDef*
%ADD13R,0.650000X1.560000*%
G04 #@! TD*
G04 #@! TA.AperFunction,SMDPad,CuDef*
%ADD14R,0.600000X2.450000*%
G04 #@! TD*
G04 #@! TA.AperFunction,SMDPad,CuDef*
%ADD15R,0.300000X2.450000*%
G04 #@! TD*
G04 #@! TA.AperFunction,ComponentPad*
%ADD16O,1.000000X2.100000*%
G04 #@! TD*
G04 #@! TA.AperFunction,ComponentPad*
%ADD17O,1.000000X1.600000*%
G04 #@! TD*
G04 #@! TA.AperFunction,SMDPad,CuDef*
%ADD18R,2.550000X2.500000*%
G04 #@! TD*
G04 #@! TA.AperFunction,ComponentPad*
%ADD19C,2.000000*%
G04 #@! TD*
G04 #@! TA.AperFunction,ComponentPad*
%ADD20R,3.200000X2.000000*%
G04 #@! TD*
G04 #@! TA.AperFunction,ComponentPad*
%ADD21R,2.000000X2.000000*%
G04 #@! TD*
G04 #@! TA.AperFunction,SMDPad,CuDef*
%ADD22R,0.550000X1.500000*%
G04 #@! TD*
G04 #@! TA.AperFunction,SMDPad,CuDef*
%ADD23R,1.500000X0.550000*%
G04 #@! TD*
G04 #@! TA.AperFunction,SMDPad,CuDef*
%ADD24R,1.100000X1.800000*%
G04 #@! TD*
G04 #@! TA.AperFunction,SMDPad,CuDef*
%ADD25R,1.000000X1.500000*%
G04 #@! TD*
G04 #@! TA.AperFunction,ComponentPad*
%ADD26R,1.700000X1.700000*%
G04 #@! TD*
G04 #@! TA.AperFunction,ComponentPad*
%ADD27O,1.700000X1.700000*%
G04 #@! TD*
G04 #@! TA.AperFunction,SMDPad,CuDef*
%ADD28R,0.900000X1.200000*%
G04 #@! TD*
G04 #@! TA.AperFunction,SMDPad,CuDef*
%ADD29R,1.200000X0.900000*%
G04 #@! TD*
G04 #@! TA.AperFunction,ViaPad*
%ADD30C,0.800000*%
G04 #@! TD*
G04 #@! TA.AperFunction,Conductor*
%ADD31C,0.375000*%
G04 #@! TD*
G04 #@! TA.AperFunction,Conductor*
%ADD32C,0.250000*%
G04 #@! TD*
G04 #@! TA.AperFunction,Conductor*
%ADD33C,0.500000*%
G04 #@! TD*
G04 #@! TA.AperFunction,Conductor*
%ADD34C,0.254000*%
G04 #@! TD*
G04 APERTURE END LIST*
G04 #@! TA.AperFunction,SMDPad,CuDef*
G36*
G01*
X183650001Y-76050000D02*
X182749999Y-76050000D01*
G75*
G02*
X182500000Y-75800001I0J249999D01*
G01*
X182500000Y-75149999D01*
G75*
G02*
X182749999Y-74900000I249999J0D01*
G01*
X183650001Y-74900000D01*
G75*
G02*
X183900000Y-75149999I0J-249999D01*
G01*
X183900000Y-75800001D01*
G75*
G02*
X183650001Y-76050000I-249999J0D01*
G01*
G37*
G04 #@! TD.AperFunction*
G04 #@! TA.AperFunction,SMDPad,CuDef*
G36*
G01*
X183650001Y-78100000D02*
X182749999Y-78100000D01*
G75*
G02*
X182500000Y-77850001I0J249999D01*
G01*
X182500000Y-77199999D01*
G75*
G02*
X182749999Y-76950000I249999J0D01*
G01*
X183650001Y-76950000D01*
G75*
G02*
X183900000Y-77199999I0J-249999D01*
G01*
X183900000Y-77850001D01*
G75*
G02*
X183650001Y-78100000I-249999J0D01*
G01*
G37*
G04 #@! TD.AperFunction*
G04 #@! TA.AperFunction,SMDPad,CuDef*
G36*
G01*
X179950001Y-50950000D02*
X179049999Y-50950000D01*
G75*
G02*
X178800000Y-50700001I0J249999D01*
G01*
X178800000Y-50049999D01*
G75*
G02*
X179049999Y-49800000I249999J0D01*
G01*
X179950001Y-49800000D01*
G75*
G02*
X180200000Y-50049999I0J-249999D01*
G01*
X180200000Y-50700001D01*
G75*
G02*
X179950001Y-50950000I-249999J0D01*
G01*
G37*
G04 #@! TD.AperFunction*
G04 #@! TA.AperFunction,SMDPad,CuDef*
G36*
G01*
X179950001Y-53000000D02*
X179049999Y-53000000D01*
G75*
G02*
X178800000Y-52750001I0J249999D01*
G01*
X178800000Y-52099999D01*
G75*
G02*
X179049999Y-51850000I249999J0D01*
G01*
X179950001Y-51850000D01*
G75*
G02*
X180200000Y-52099999I0J-249999D01*
G01*
X180200000Y-52750001D01*
G75*
G02*
X179950001Y-53000000I-249999J0D01*
G01*
G37*
G04 #@! TD.AperFunction*
D10*
X170900000Y-79600000D03*
X170900000Y-80900000D03*
X170900000Y-82200000D03*
D11*
X159800000Y-32800000D03*
X126100000Y-67400000D03*
X101600000Y-26000000D03*
X66700000Y-24000000D03*
X69200000Y-64300000D03*
X31100000Y-37800000D03*
X31050000Y-94950000D03*
X66700000Y-110400000D03*
X104200000Y-120500000D03*
X173900000Y-120000000D03*
X192250000Y-94790000D03*
X187600000Y-33700000D03*
G04 #@! TA.AperFunction,SMDPad,CuDef*
D12*
G36*
X188638720Y-67364314D02*
G01*
X187365928Y-68637106D01*
X185881004Y-67152182D01*
X187153796Y-65879390D01*
X188638720Y-67364314D01*
G37*
G04 #@! TD.AperFunction*
G04 #@! TA.AperFunction,SMDPad,CuDef*
G36*
X186588110Y-65313704D02*
G01*
X185315318Y-66586496D01*
X183830394Y-65101572D01*
X185103186Y-63828780D01*
X186588110Y-65313704D01*
G37*
G04 #@! TD.AperFunction*
G04 #@! TA.AperFunction,SMDPad,CuDef*
G36*
X188214456Y-63687358D02*
G01*
X186941664Y-64960150D01*
X185456740Y-63475226D01*
X186729532Y-62202434D01*
X188214456Y-63687358D01*
G37*
G04 #@! TD.AperFunction*
G04 #@! TA.AperFunction,SMDPad,CuDef*
G36*
X190265066Y-65737968D02*
G01*
X188992274Y-67010760D01*
X187507350Y-65525836D01*
X188780142Y-64253044D01*
X190265066Y-65737968D01*
G37*
G04 #@! TD.AperFunction*
G04 #@! TA.AperFunction,SMDPad,CuDef*
G36*
G01*
X174575000Y-47775000D02*
X175825000Y-47775000D01*
G75*
G02*
X176075000Y-48025000I0J-250000D01*
G01*
X176075000Y-48950000D01*
G75*
G02*
X175825000Y-49200000I-250000J0D01*
G01*
X174575000Y-49200000D01*
G75*
G02*
X174325000Y-48950000I0J250000D01*
G01*
X174325000Y-48025000D01*
G75*
G02*
X174575000Y-47775000I250000J0D01*
G01*
G37*
G04 #@! TD.AperFunction*
G04 #@! TA.AperFunction,SMDPad,CuDef*
G36*
G01*
X174575000Y-44800000D02*
X175825000Y-44800000D01*
G75*
G02*
X176075000Y-45050000I0J-250000D01*
G01*
X176075000Y-45975000D01*
G75*
G02*
X175825000Y-46225000I-250000J0D01*
G01*
X174575000Y-46225000D01*
G75*
G02*
X174325000Y-45975000I0J250000D01*
G01*
X174325000Y-45050000D01*
G75*
G02*
X174575000Y-44800000I250000J0D01*
G01*
G37*
G04 #@! TD.AperFunction*
G04 #@! TA.AperFunction,SMDPad,CuDef*
G36*
G01*
X181250001Y-33150000D02*
X180349999Y-33150000D01*
G75*
G02*
X180100000Y-32900001I0J249999D01*
G01*
X180100000Y-32249999D01*
G75*
G02*
X180349999Y-32000000I249999J0D01*
G01*
X181250001Y-32000000D01*
G75*
G02*
X181500000Y-32249999I0J-249999D01*
G01*
X181500000Y-32900001D01*
G75*
G02*
X181250001Y-33150000I-249999J0D01*
G01*
G37*
G04 #@! TD.AperFunction*
G04 #@! TA.AperFunction,SMDPad,CuDef*
G36*
G01*
X181250001Y-35200000D02*
X180349999Y-35200000D01*
G75*
G02*
X180100000Y-34950001I0J249999D01*
G01*
X180100000Y-34299999D01*
G75*
G02*
X180349999Y-34050000I249999J0D01*
G01*
X181250001Y-34050000D01*
G75*
G02*
X181500000Y-34299999I0J-249999D01*
G01*
X181500000Y-34950001D01*
G75*
G02*
X181250001Y-35200000I-249999J0D01*
G01*
G37*
G04 #@! TD.AperFunction*
G04 #@! TA.AperFunction,SMDPad,CuDef*
G36*
G01*
X166150001Y-33150000D02*
X165249999Y-33150000D01*
G75*
G02*
X165000000Y-32900001I0J249999D01*
G01*
X165000000Y-32249999D01*
G75*
G02*
X165249999Y-32000000I249999J0D01*
G01*
X166150001Y-32000000D01*
G75*
G02*
X166400000Y-32249999I0J-249999D01*
G01*
X166400000Y-32900001D01*
G75*
G02*
X166150001Y-33150000I-249999J0D01*
G01*
G37*
G04 #@! TD.AperFunction*
G04 #@! TA.AperFunction,SMDPad,CuDef*
G36*
G01*
X166150001Y-35200000D02*
X165249999Y-35200000D01*
G75*
G02*
X165000000Y-34950001I0J249999D01*
G01*
X165000000Y-34299999D01*
G75*
G02*
X165249999Y-34050000I249999J0D01*
G01*
X166150001Y-34050000D01*
G75*
G02*
X166400000Y-34299999I0J-249999D01*
G01*
X166400000Y-34950001D01*
G75*
G02*
X166150001Y-35200000I-249999J0D01*
G01*
G37*
G04 #@! TD.AperFunction*
G04 #@! TA.AperFunction,SMDPad,CuDef*
G36*
G01*
X164149999Y-72050000D02*
X165050001Y-72050000D01*
G75*
G02*
X165300000Y-72299999I0J-249999D01*
G01*
X165300000Y-72950001D01*
G75*
G02*
X165050001Y-73200000I-249999J0D01*
G01*
X164149999Y-73200000D01*
G75*
G02*
X163900000Y-72950001I0J249999D01*
G01*
X163900000Y-72299999D01*
G75*
G02*
X164149999Y-72050000I249999J0D01*
G01*
G37*
G04 #@! TD.AperFunction*
G04 #@! TA.AperFunction,SMDPad,CuDef*
G36*
G01*
X164149999Y-70000000D02*
X165050001Y-70000000D01*
G75*
G02*
X165300000Y-70249999I0J-249999D01*
G01*
X165300000Y-70900001D01*
G75*
G02*
X165050001Y-71150000I-249999J0D01*
G01*
X164149999Y-71150000D01*
G75*
G02*
X163900000Y-70900001I0J249999D01*
G01*
X163900000Y-70249999D01*
G75*
G02*
X164149999Y-70000000I249999J0D01*
G01*
G37*
G04 #@! TD.AperFunction*
G04 #@! TA.AperFunction,SMDPad,CuDef*
G36*
G01*
X172750001Y-54550000D02*
X171849999Y-54550000D01*
G75*
G02*
X171600000Y-54300001I0J249999D01*
G01*
X171600000Y-53649999D01*
G75*
G02*
X171849999Y-53400000I249999J0D01*
G01*
X172750001Y-53400000D01*
G75*
G02*
X173000000Y-53649999I0J-249999D01*
G01*
X173000000Y-54300001D01*
G75*
G02*
X172750001Y-54550000I-249999J0D01*
G01*
G37*
G04 #@! TD.AperFunction*
G04 #@! TA.AperFunction,SMDPad,CuDef*
G36*
G01*
X172750001Y-56600000D02*
X171849999Y-56600000D01*
G75*
G02*
X171600000Y-56350001I0J249999D01*
G01*
X171600000Y-55699999D01*
G75*
G02*
X171849999Y-55450000I249999J0D01*
G01*
X172750001Y-55450000D01*
G75*
G02*
X173000000Y-55699999I0J-249999D01*
G01*
X173000000Y-56350001D01*
G75*
G02*
X172750001Y-56600000I-249999J0D01*
G01*
G37*
G04 #@! TD.AperFunction*
G04 #@! TA.AperFunction,SMDPad,CuDef*
G36*
G01*
X170050001Y-54550000D02*
X169149999Y-54550000D01*
G75*
G02*
X168900000Y-54300001I0J249999D01*
G01*
X168900000Y-53649999D01*
G75*
G02*
X169149999Y-53400000I249999J0D01*
G01*
X170050001Y-53400000D01*
G75*
G02*
X170300000Y-53649999I0J-249999D01*
G01*
X170300000Y-54300001D01*
G75*
G02*
X170050001Y-54550000I-249999J0D01*
G01*
G37*
G04 #@! TD.AperFunction*
G04 #@! TA.AperFunction,SMDPad,CuDef*
G36*
G01*
X170050001Y-56600000D02*
X169149999Y-56600000D01*
G75*
G02*
X168900000Y-56350001I0J249999D01*
G01*
X168900000Y-55699999D01*
G75*
G02*
X169149999Y-55450000I249999J0D01*
G01*
X170050001Y-55450000D01*
G75*
G02*
X170300000Y-55699999I0J-249999D01*
G01*
X170300000Y-56350001D01*
G75*
G02*
X170050001Y-56600000I-249999J0D01*
G01*
G37*
G04 #@! TD.AperFunction*
G04 #@! TA.AperFunction,SMDPad,CuDef*
G36*
G01*
X181650001Y-55550000D02*
X180749999Y-55550000D01*
G75*
G02*
X180500000Y-55300001I0J249999D01*
G01*
X180500000Y-54649999D01*
G75*
G02*
X180749999Y-54400000I249999J0D01*
G01*
X181650001Y-54400000D01*
G75*
G02*
X181900000Y-54649999I0J-249999D01*
G01*
X181900000Y-55300001D01*
G75*
G02*
X181650001Y-55550000I-249999J0D01*
G01*
G37*
G04 #@! TD.AperFunction*
G04 #@! TA.AperFunction,SMDPad,CuDef*
G36*
G01*
X181650001Y-57600000D02*
X180749999Y-57600000D01*
G75*
G02*
X180500000Y-57350001I0J249999D01*
G01*
X180500000Y-56699999D01*
G75*
G02*
X180749999Y-56450000I249999J0D01*
G01*
X181650001Y-56450000D01*
G75*
G02*
X181900000Y-56699999I0J-249999D01*
G01*
X181900000Y-57350001D01*
G75*
G02*
X181650001Y-57600000I-249999J0D01*
G01*
G37*
G04 #@! TD.AperFunction*
G04 #@! TA.AperFunction,SMDPad,CuDef*
G36*
G01*
X148949999Y-46650000D02*
X149850001Y-46650000D01*
G75*
G02*
X150100000Y-46899999I0J-249999D01*
G01*
X150100000Y-47550001D01*
G75*
G02*
X149850001Y-47800000I-249999J0D01*
G01*
X148949999Y-47800000D01*
G75*
G02*
X148700000Y-47550001I0J249999D01*
G01*
X148700000Y-46899999D01*
G75*
G02*
X148949999Y-46650000I249999J0D01*
G01*
G37*
G04 #@! TD.AperFunction*
G04 #@! TA.AperFunction,SMDPad,CuDef*
G36*
G01*
X148949999Y-44600000D02*
X149850001Y-44600000D01*
G75*
G02*
X150100000Y-44849999I0J-249999D01*
G01*
X150100000Y-45500001D01*
G75*
G02*
X149850001Y-45750000I-249999J0D01*
G01*
X148949999Y-45750000D01*
G75*
G02*
X148700000Y-45500001I0J249999D01*
G01*
X148700000Y-44849999D01*
G75*
G02*
X148949999Y-44600000I249999J0D01*
G01*
G37*
G04 #@! TD.AperFunction*
G04 #@! TA.AperFunction,SMDPad,CuDef*
G36*
G01*
X168650000Y-41350001D02*
X168650000Y-40449999D01*
G75*
G02*
X168899999Y-40200000I249999J0D01*
G01*
X169550001Y-40200000D01*
G75*
G02*
X169800000Y-40449999I0J-249999D01*
G01*
X169800000Y-41350001D01*
G75*
G02*
X169550001Y-41600000I-249999J0D01*
G01*
X168899999Y-41600000D01*
G75*
G02*
X168650000Y-41350001I0J249999D01*
G01*
G37*
G04 #@! TD.AperFunction*
G04 #@! TA.AperFunction,SMDPad,CuDef*
G36*
G01*
X166600000Y-41350001D02*
X166600000Y-40449999D01*
G75*
G02*
X166849999Y-40200000I249999J0D01*
G01*
X167500001Y-40200000D01*
G75*
G02*
X167750000Y-40449999I0J-249999D01*
G01*
X167750000Y-41350001D01*
G75*
G02*
X167500001Y-41600000I-249999J0D01*
G01*
X166849999Y-41600000D01*
G75*
G02*
X166600000Y-41350001I0J249999D01*
G01*
G37*
G04 #@! TD.AperFunction*
G04 #@! TA.AperFunction,SMDPad,CuDef*
G36*
G01*
X189850001Y-44750000D02*
X188949999Y-44750000D01*
G75*
G02*
X188700000Y-44500001I0J249999D01*
G01*
X188700000Y-43849999D01*
G75*
G02*
X188949999Y-43600000I249999J0D01*
G01*
X189850001Y-43600000D01*
G75*
G02*
X190100000Y-43849999I0J-249999D01*
G01*
X190100000Y-44500001D01*
G75*
G02*
X189850001Y-44750000I-249999J0D01*
G01*
G37*
G04 #@! TD.AperFunction*
G04 #@! TA.AperFunction,SMDPad,CuDef*
G36*
G01*
X189850001Y-46800000D02*
X188949999Y-46800000D01*
G75*
G02*
X188700000Y-46550001I0J249999D01*
G01*
X188700000Y-45899999D01*
G75*
G02*
X188949999Y-45650000I249999J0D01*
G01*
X189850001Y-45650000D01*
G75*
G02*
X190100000Y-45899999I0J-249999D01*
G01*
X190100000Y-46550001D01*
G75*
G02*
X189850001Y-46800000I-249999J0D01*
G01*
G37*
G04 #@! TD.AperFunction*
G04 #@! TA.AperFunction,SMDPad,CuDef*
G36*
G01*
X175450001Y-55550000D02*
X174549999Y-55550000D01*
G75*
G02*
X174300000Y-55300001I0J249999D01*
G01*
X174300000Y-54649999D01*
G75*
G02*
X174549999Y-54400000I249999J0D01*
G01*
X175450001Y-54400000D01*
G75*
G02*
X175700000Y-54649999I0J-249999D01*
G01*
X175700000Y-55300001D01*
G75*
G02*
X175450001Y-55550000I-249999J0D01*
G01*
G37*
G04 #@! TD.AperFunction*
G04 #@! TA.AperFunction,SMDPad,CuDef*
G36*
G01*
X175450001Y-57600000D02*
X174549999Y-57600000D01*
G75*
G02*
X174300000Y-57350001I0J249999D01*
G01*
X174300000Y-56699999D01*
G75*
G02*
X174549999Y-56450000I249999J0D01*
G01*
X175450001Y-56450000D01*
G75*
G02*
X175700000Y-56699999I0J-249999D01*
G01*
X175700000Y-57350001D01*
G75*
G02*
X175450001Y-57600000I-249999J0D01*
G01*
G37*
G04 #@! TD.AperFunction*
G04 #@! TA.AperFunction,SMDPad,CuDef*
G36*
G01*
X165150000Y-60849999D02*
X165150000Y-61750001D01*
G75*
G02*
X164900001Y-62000000I-249999J0D01*
G01*
X164249999Y-62000000D01*
G75*
G02*
X164000000Y-61750001I0J249999D01*
G01*
X164000000Y-60849999D01*
G75*
G02*
X164249999Y-60600000I249999J0D01*
G01*
X164900001Y-60600000D01*
G75*
G02*
X165150000Y-60849999I0J-249999D01*
G01*
G37*
G04 #@! TD.AperFunction*
G04 #@! TA.AperFunction,SMDPad,CuDef*
G36*
G01*
X167200000Y-60849999D02*
X167200000Y-61750001D01*
G75*
G02*
X166950001Y-62000000I-249999J0D01*
G01*
X166299999Y-62000000D01*
G75*
G02*
X166050000Y-61750001I0J249999D01*
G01*
X166050000Y-60849999D01*
G75*
G02*
X166299999Y-60600000I249999J0D01*
G01*
X166950001Y-60600000D01*
G75*
G02*
X167200000Y-60849999I0J-249999D01*
G01*
G37*
G04 #@! TD.AperFunction*
G04 #@! TA.AperFunction,SMDPad,CuDef*
G36*
G01*
X178150001Y-55550000D02*
X177249999Y-55550000D01*
G75*
G02*
X177000000Y-55300001I0J249999D01*
G01*
X177000000Y-54649999D01*
G75*
G02*
X177249999Y-54400000I249999J0D01*
G01*
X178150001Y-54400000D01*
G75*
G02*
X178400000Y-54649999I0J-249999D01*
G01*
X178400000Y-55300001D01*
G75*
G02*
X178150001Y-55550000I-249999J0D01*
G01*
G37*
G04 #@! TD.AperFunction*
G04 #@! TA.AperFunction,SMDPad,CuDef*
G36*
G01*
X178150001Y-57600000D02*
X177249999Y-57600000D01*
G75*
G02*
X177000000Y-57350001I0J249999D01*
G01*
X177000000Y-56699999D01*
G75*
G02*
X177249999Y-56450000I249999J0D01*
G01*
X178150001Y-56450000D01*
G75*
G02*
X178400000Y-56699999I0J-249999D01*
G01*
X178400000Y-57350001D01*
G75*
G02*
X178150001Y-57600000I-249999J0D01*
G01*
G37*
G04 #@! TD.AperFunction*
G04 #@! TA.AperFunction,SMDPad,CuDef*
G36*
G01*
X158750000Y-79949999D02*
X158750000Y-80850001D01*
G75*
G02*
X158500001Y-81100000I-249999J0D01*
G01*
X157849999Y-81100000D01*
G75*
G02*
X157600000Y-80850001I0J249999D01*
G01*
X157600000Y-79949999D01*
G75*
G02*
X157849999Y-79700000I249999J0D01*
G01*
X158500001Y-79700000D01*
G75*
G02*
X158750000Y-79949999I0J-249999D01*
G01*
G37*
G04 #@! TD.AperFunction*
G04 #@! TA.AperFunction,SMDPad,CuDef*
G36*
G01*
X160800000Y-79949999D02*
X160800000Y-80850001D01*
G75*
G02*
X160550001Y-81100000I-249999J0D01*
G01*
X159899999Y-81100000D01*
G75*
G02*
X159650000Y-80850001I0J249999D01*
G01*
X159650000Y-79949999D01*
G75*
G02*
X159899999Y-79700000I249999J0D01*
G01*
X160550001Y-79700000D01*
G75*
G02*
X160800000Y-79949999I0J-249999D01*
G01*
G37*
G04 #@! TD.AperFunction*
G04 #@! TA.AperFunction,SMDPad,CuDef*
G36*
G01*
X156050000Y-101149999D02*
X156050000Y-102050001D01*
G75*
G02*
X155800001Y-102300000I-249999J0D01*
G01*
X155149999Y-102300000D01*
G75*
G02*
X154900000Y-102050001I0J249999D01*
G01*
X154900000Y-101149999D01*
G75*
G02*
X155149999Y-100900000I249999J0D01*
G01*
X155800001Y-100900000D01*
G75*
G02*
X156050000Y-101149999I0J-249999D01*
G01*
G37*
G04 #@! TD.AperFunction*
G04 #@! TA.AperFunction,SMDPad,CuDef*
G36*
G01*
X158100000Y-101149999D02*
X158100000Y-102050001D01*
G75*
G02*
X157850001Y-102300000I-249999J0D01*
G01*
X157199999Y-102300000D01*
G75*
G02*
X156950000Y-102050001I0J249999D01*
G01*
X156950000Y-101149999D01*
G75*
G02*
X157199999Y-100900000I249999J0D01*
G01*
X157850001Y-100900000D01*
G75*
G02*
X158100000Y-101149999I0J-249999D01*
G01*
G37*
G04 #@! TD.AperFunction*
G04 #@! TA.AperFunction,SMDPad,CuDef*
G36*
G01*
X124750001Y-103150000D02*
X123849999Y-103150000D01*
G75*
G02*
X123600000Y-102900001I0J249999D01*
G01*
X123600000Y-102249999D01*
G75*
G02*
X123849999Y-102000000I249999J0D01*
G01*
X124750001Y-102000000D01*
G75*
G02*
X125000000Y-102249999I0J-249999D01*
G01*
X125000000Y-102900001D01*
G75*
G02*
X124750001Y-103150000I-249999J0D01*
G01*
G37*
G04 #@! TD.AperFunction*
G04 #@! TA.AperFunction,SMDPad,CuDef*
G36*
G01*
X124750001Y-105200000D02*
X123849999Y-105200000D01*
G75*
G02*
X123600000Y-104950001I0J249999D01*
G01*
X123600000Y-104299999D01*
G75*
G02*
X123849999Y-104050000I249999J0D01*
G01*
X124750001Y-104050000D01*
G75*
G02*
X125000000Y-104299999I0J-249999D01*
G01*
X125000000Y-104950001D01*
G75*
G02*
X124750001Y-105200000I-249999J0D01*
G01*
G37*
G04 #@! TD.AperFunction*
G04 #@! TA.AperFunction,SMDPad,CuDef*
G36*
G01*
X86650001Y-100950000D02*
X85749999Y-100950000D01*
G75*
G02*
X85500000Y-100700001I0J249999D01*
G01*
X85500000Y-100049999D01*
G75*
G02*
X85749999Y-99800000I249999J0D01*
G01*
X86650001Y-99800000D01*
G75*
G02*
X86900000Y-100049999I0J-249999D01*
G01*
X86900000Y-100700001D01*
G75*
G02*
X86650001Y-100950000I-249999J0D01*
G01*
G37*
G04 #@! TD.AperFunction*
G04 #@! TA.AperFunction,SMDPad,CuDef*
G36*
G01*
X86650001Y-103000000D02*
X85749999Y-103000000D01*
G75*
G02*
X85500000Y-102750001I0J249999D01*
G01*
X85500000Y-102099999D01*
G75*
G02*
X85749999Y-101850000I249999J0D01*
G01*
X86650001Y-101850000D01*
G75*
G02*
X86900000Y-102099999I0J-249999D01*
G01*
X86900000Y-102750001D01*
G75*
G02*
X86650001Y-103000000I-249999J0D01*
G01*
G37*
G04 #@! TD.AperFunction*
G04 #@! TA.AperFunction,SMDPad,CuDef*
G36*
G01*
X48450001Y-92150000D02*
X47549999Y-92150000D01*
G75*
G02*
X47300000Y-91900001I0J249999D01*
G01*
X47300000Y-91249999D01*
G75*
G02*
X47549999Y-91000000I249999J0D01*
G01*
X48450001Y-91000000D01*
G75*
G02*
X48700000Y-91249999I0J-249999D01*
G01*
X48700000Y-91900001D01*
G75*
G02*
X48450001Y-92150000I-249999J0D01*
G01*
G37*
G04 #@! TD.AperFunction*
G04 #@! TA.AperFunction,SMDPad,CuDef*
G36*
G01*
X48450001Y-94200000D02*
X47549999Y-94200000D01*
G75*
G02*
X47300000Y-93950001I0J249999D01*
G01*
X47300000Y-93299999D01*
G75*
G02*
X47549999Y-93050000I249999J0D01*
G01*
X48450001Y-93050000D01*
G75*
G02*
X48700000Y-93299999I0J-249999D01*
G01*
X48700000Y-93950001D01*
G75*
G02*
X48450001Y-94200000I-249999J0D01*
G01*
G37*
G04 #@! TD.AperFunction*
G04 #@! TA.AperFunction,SMDPad,CuDef*
G36*
G01*
X46549999Y-76250000D02*
X47450001Y-76250000D01*
G75*
G02*
X47700000Y-76499999I0J-249999D01*
G01*
X47700000Y-77150001D01*
G75*
G02*
X47450001Y-77400000I-249999J0D01*
G01*
X46549999Y-77400000D01*
G75*
G02*
X46300000Y-77150001I0J249999D01*
G01*
X46300000Y-76499999D01*
G75*
G02*
X46549999Y-76250000I249999J0D01*
G01*
G37*
G04 #@! TD.AperFunction*
G04 #@! TA.AperFunction,SMDPad,CuDef*
G36*
G01*
X46549999Y-74200000D02*
X47450001Y-74200000D01*
G75*
G02*
X47700000Y-74449999I0J-249999D01*
G01*
X47700000Y-75100001D01*
G75*
G02*
X47450001Y-75350000I-249999J0D01*
G01*
X46549999Y-75350000D01*
G75*
G02*
X46300000Y-75100001I0J249999D01*
G01*
X46300000Y-74449999D01*
G75*
G02*
X46549999Y-74200000I249999J0D01*
G01*
G37*
G04 #@! TD.AperFunction*
G04 #@! TA.AperFunction,SMDPad,CuDef*
G36*
G01*
X46549999Y-38050000D02*
X47450001Y-38050000D01*
G75*
G02*
X47700000Y-38299999I0J-249999D01*
G01*
X47700000Y-38950001D01*
G75*
G02*
X47450001Y-39200000I-249999J0D01*
G01*
X46549999Y-39200000D01*
G75*
G02*
X46300000Y-38950001I0J249999D01*
G01*
X46300000Y-38299999D01*
G75*
G02*
X46549999Y-38050000I249999J0D01*
G01*
G37*
G04 #@! TD.AperFunction*
G04 #@! TA.AperFunction,SMDPad,CuDef*
G36*
G01*
X46549999Y-36000000D02*
X47450001Y-36000000D01*
G75*
G02*
X47700000Y-36249999I0J-249999D01*
G01*
X47700000Y-36900001D01*
G75*
G02*
X47450001Y-37150000I-249999J0D01*
G01*
X46549999Y-37150000D01*
G75*
G02*
X46300000Y-36900001I0J249999D01*
G01*
X46300000Y-36249999D01*
G75*
G02*
X46549999Y-36000000I249999J0D01*
G01*
G37*
G04 #@! TD.AperFunction*
G04 #@! TA.AperFunction,SMDPad,CuDef*
G36*
G01*
X75249999Y-44550000D02*
X76150001Y-44550000D01*
G75*
G02*
X76400000Y-44799999I0J-249999D01*
G01*
X76400000Y-45450001D01*
G75*
G02*
X76150001Y-45700000I-249999J0D01*
G01*
X75249999Y-45700000D01*
G75*
G02*
X75000000Y-45450001I0J249999D01*
G01*
X75000000Y-44799999D01*
G75*
G02*
X75249999Y-44550000I249999J0D01*
G01*
G37*
G04 #@! TD.AperFunction*
G04 #@! TA.AperFunction,SMDPad,CuDef*
G36*
G01*
X75249999Y-42500000D02*
X76150001Y-42500000D01*
G75*
G02*
X76400000Y-42749999I0J-249999D01*
G01*
X76400000Y-43400001D01*
G75*
G02*
X76150001Y-43650000I-249999J0D01*
G01*
X75249999Y-43650000D01*
G75*
G02*
X75000000Y-43400001I0J249999D01*
G01*
X75000000Y-42749999D01*
G75*
G02*
X75249999Y-42500000I249999J0D01*
G01*
G37*
G04 #@! TD.AperFunction*
G04 #@! TA.AperFunction,SMDPad,CuDef*
G36*
G01*
X113349999Y-44550000D02*
X114250001Y-44550000D01*
G75*
G02*
X114500000Y-44799999I0J-249999D01*
G01*
X114500000Y-45450001D01*
G75*
G02*
X114250001Y-45700000I-249999J0D01*
G01*
X113349999Y-45700000D01*
G75*
G02*
X113100000Y-45450001I0J249999D01*
G01*
X113100000Y-44799999D01*
G75*
G02*
X113349999Y-44550000I249999J0D01*
G01*
G37*
G04 #@! TD.AperFunction*
G04 #@! TA.AperFunction,SMDPad,CuDef*
G36*
G01*
X113349999Y-42500000D02*
X114250001Y-42500000D01*
G75*
G02*
X114500000Y-42749999I0J-249999D01*
G01*
X114500000Y-43400001D01*
G75*
G02*
X114250001Y-43650000I-249999J0D01*
G01*
X113349999Y-43650000D01*
G75*
G02*
X113100000Y-43400001I0J249999D01*
G01*
X113100000Y-42749999D01*
G75*
G02*
X113349999Y-42500000I249999J0D01*
G01*
G37*
G04 #@! TD.AperFunction*
G04 #@! TA.AperFunction,SMDPad,CuDef*
G36*
G01*
X179950000Y-75950001D02*
X179950000Y-75049999D01*
G75*
G02*
X180199999Y-74800000I249999J0D01*
G01*
X180850001Y-74800000D01*
G75*
G02*
X181100000Y-75049999I0J-249999D01*
G01*
X181100000Y-75950001D01*
G75*
G02*
X180850001Y-76200000I-249999J0D01*
G01*
X180199999Y-76200000D01*
G75*
G02*
X179950000Y-75950001I0J249999D01*
G01*
G37*
G04 #@! TD.AperFunction*
G04 #@! TA.AperFunction,SMDPad,CuDef*
G36*
G01*
X177900000Y-75950001D02*
X177900000Y-75049999D01*
G75*
G02*
X178149999Y-74800000I249999J0D01*
G01*
X178800001Y-74800000D01*
G75*
G02*
X179050000Y-75049999I0J-249999D01*
G01*
X179050000Y-75950001D01*
G75*
G02*
X178800001Y-76200000I-249999J0D01*
G01*
X178149999Y-76200000D01*
G75*
G02*
X177900000Y-75950001I0J249999D01*
G01*
G37*
G04 #@! TD.AperFunction*
G04 #@! TA.AperFunction,SMDPad,CuDef*
G36*
G01*
X184350001Y-59850000D02*
X183449999Y-59850000D01*
G75*
G02*
X183200000Y-59600001I0J249999D01*
G01*
X183200000Y-58949999D01*
G75*
G02*
X183449999Y-58700000I249999J0D01*
G01*
X184350001Y-58700000D01*
G75*
G02*
X184600000Y-58949999I0J-249999D01*
G01*
X184600000Y-59600001D01*
G75*
G02*
X184350001Y-59850000I-249999J0D01*
G01*
G37*
G04 #@! TD.AperFunction*
G04 #@! TA.AperFunction,SMDPad,CuDef*
G36*
G01*
X184350001Y-61900000D02*
X183449999Y-61900000D01*
G75*
G02*
X183200000Y-61650001I0J249999D01*
G01*
X183200000Y-60999999D01*
G75*
G02*
X183449999Y-60750000I249999J0D01*
G01*
X184350001Y-60750000D01*
G75*
G02*
X184600000Y-60999999I0J-249999D01*
G01*
X184600000Y-61650001D01*
G75*
G02*
X184350001Y-61900000I-249999J0D01*
G01*
G37*
G04 #@! TD.AperFunction*
G04 #@! TA.AperFunction,SMDPad,CuDef*
G36*
G01*
X191124785Y-63037956D02*
X190488388Y-63674353D01*
G75*
G02*
X190134836Y-63674353I-176776J176776D01*
G01*
X189675215Y-63214732D01*
G75*
G02*
X189675215Y-62861180I176776J176776D01*
G01*
X190311612Y-62224783D01*
G75*
G02*
X190665164Y-62224783I176776J-176776D01*
G01*
X191124785Y-62684404D01*
G75*
G02*
X191124785Y-63037956I-176776J-176776D01*
G01*
G37*
G04 #@! TD.AperFunction*
G04 #@! TA.AperFunction,SMDPad,CuDef*
G36*
G01*
X189675217Y-61588388D02*
X189038820Y-62224785D01*
G75*
G02*
X188685268Y-62224785I-176776J176776D01*
G01*
X188225647Y-61765164D01*
G75*
G02*
X188225647Y-61411612I176776J176776D01*
G01*
X188862044Y-60775215D01*
G75*
G02*
X189215596Y-60775215I176776J-176776D01*
G01*
X189675217Y-61234836D01*
G75*
G02*
X189675217Y-61588388I-176776J-176776D01*
G01*
G37*
G04 #@! TD.AperFunction*
G04 #@! TA.AperFunction,SMDPad,CuDef*
G36*
G01*
X191013172Y-67250431D02*
X191649569Y-67886828D01*
G75*
G02*
X191649569Y-68240380I-176776J-176776D01*
G01*
X191189948Y-68700001D01*
G75*
G02*
X190836396Y-68700001I-176776J176776D01*
G01*
X190199999Y-68063604D01*
G75*
G02*
X190199999Y-67710052I176776J176776D01*
G01*
X190659620Y-67250431D01*
G75*
G02*
X191013172Y-67250431I176776J-176776D01*
G01*
G37*
G04 #@! TD.AperFunction*
G04 #@! TA.AperFunction,SMDPad,CuDef*
G36*
G01*
X189563604Y-68699999D02*
X190200001Y-69336396D01*
G75*
G02*
X190200001Y-69689948I-176776J-176776D01*
G01*
X189740380Y-70149569D01*
G75*
G02*
X189386828Y-70149569I-176776J176776D01*
G01*
X188750431Y-69513172D01*
G75*
G02*
X188750431Y-69159620I176776J176776D01*
G01*
X189210052Y-68699999D01*
G75*
G02*
X189563604Y-68699999I176776J-176776D01*
G01*
G37*
G04 #@! TD.AperFunction*
D13*
X170900000Y-44150000D03*
X171850000Y-44150000D03*
X169950000Y-44150000D03*
X169950000Y-46850000D03*
X170900000Y-46850000D03*
X171850000Y-46850000D03*
D14*
X176479999Y-34895000D03*
X170029999Y-34895000D03*
X175704999Y-34895000D03*
X170804999Y-34895000D03*
D15*
X171504999Y-34895000D03*
X175004999Y-34895000D03*
X172004999Y-34895000D03*
X174504999Y-34895000D03*
X172504999Y-34895000D03*
X174004999Y-34895000D03*
X173504999Y-34895000D03*
X173004999Y-34895000D03*
D16*
X168934999Y-33480000D03*
X177574999Y-33480000D03*
D17*
X168934999Y-29300000D03*
X177574999Y-29300000D03*
D18*
X140552500Y-54147500D03*
X153479500Y-51607500D03*
X45302500Y-44797500D03*
X58229500Y-42257500D03*
X102452500Y-51997500D03*
X115379500Y-49457500D03*
X64352500Y-71047500D03*
X77279500Y-68507500D03*
D19*
X170667500Y-92291250D03*
X170667500Y-97291250D03*
D20*
X177667500Y-89191250D03*
X177667500Y-100391250D03*
D19*
X185167500Y-92291250D03*
X185167500Y-94791250D03*
D21*
X185167500Y-97291250D03*
D22*
X170912500Y-60511250D03*
X171712500Y-60511250D03*
X172512500Y-60511250D03*
X173312500Y-60511250D03*
X174112500Y-60511250D03*
X174912500Y-60511250D03*
X175712500Y-60511250D03*
X176512500Y-60511250D03*
X177312500Y-60511250D03*
X178112500Y-60511250D03*
X178912500Y-60511250D03*
D23*
X180612500Y-62211250D03*
X180612500Y-63011250D03*
X180612500Y-63811250D03*
X180612500Y-64611250D03*
X180612500Y-65411250D03*
X180612500Y-66211250D03*
X180612500Y-67011250D03*
X180612500Y-67811250D03*
X180612500Y-68611250D03*
X180612500Y-69411250D03*
X180612500Y-70211250D03*
D22*
X178912500Y-71911250D03*
X178112500Y-71911250D03*
X177312500Y-71911250D03*
X176512500Y-71911250D03*
X175712500Y-71911250D03*
X174912500Y-71911250D03*
X174112500Y-71911250D03*
X173312500Y-71911250D03*
X172512500Y-71911250D03*
X171712500Y-71911250D03*
X170912500Y-71911250D03*
D23*
X169212500Y-70211250D03*
X169212500Y-69411250D03*
X169212500Y-68611250D03*
X169212500Y-67811250D03*
X169212500Y-67011250D03*
X169212500Y-66211250D03*
X169212500Y-65411250D03*
X169212500Y-64611250D03*
X169212500Y-63811250D03*
X169212500Y-63011250D03*
X169212500Y-62211250D03*
D24*
X182750000Y-40000000D03*
X186450000Y-46200000D03*
X186450000Y-40000000D03*
X182750000Y-46200000D03*
G04 #@! TA.AperFunction,SMDPad,CuDef*
D12*
G36*
X150242487Y-120908978D02*
G01*
X150889534Y-118494163D01*
X153352645Y-119154152D01*
X152705598Y-121568967D01*
X150242487Y-120908978D01*
G37*
G04 #@! TD.AperFunction*
G04 #@! TA.AperFunction,SMDPad,CuDef*
G36*
X163386410Y-121801281D02*
G01*
X164033457Y-119386466D01*
X166496568Y-120046455D01*
X165849521Y-122461270D01*
X163386410Y-121801281D01*
G37*
G04 #@! TD.AperFunction*
G04 #@! TA.AperFunction,SMDPad,CuDef*
G36*
X131842487Y-115977728D02*
G01*
X132489534Y-113562913D01*
X134952645Y-114222902D01*
X134305598Y-116637717D01*
X131842487Y-115977728D01*
G37*
G04 #@! TD.AperFunction*
G04 #@! TA.AperFunction,SMDPad,CuDef*
G36*
X144986410Y-116870031D02*
G01*
X145633457Y-114455216D01*
X148096568Y-115115205D01*
X147449521Y-117530020D01*
X144986410Y-116870031D01*
G37*
G04 #@! TD.AperFunction*
G04 #@! TA.AperFunction,SMDPad,CuDef*
G36*
X111053513Y-116065399D02*
G01*
X111487633Y-113603380D01*
X113998893Y-114046183D01*
X113564773Y-116508202D01*
X111053513Y-116065399D01*
G37*
G04 #@! TD.AperFunction*
G04 #@! TA.AperFunction,SMDPad,CuDef*
G36*
X124225190Y-115808737D02*
G01*
X124659310Y-113346718D01*
X127170570Y-113789521D01*
X126736450Y-116251540D01*
X124225190Y-115808737D01*
G37*
G04 #@! TD.AperFunction*
D18*
X45302500Y-101947500D03*
X58229500Y-99407500D03*
X26252500Y-101947500D03*
X39179500Y-99407500D03*
X140552500Y-92247500D03*
X153479500Y-89707500D03*
X121502500Y-92247500D03*
X134429500Y-89707500D03*
X102452500Y-90097500D03*
X115379500Y-87557500D03*
X83402500Y-87947500D03*
X96329500Y-85407500D03*
X64352500Y-90097500D03*
X77279500Y-87557500D03*
X45302500Y-82897500D03*
X58229500Y-80357500D03*
X26252500Y-82897500D03*
X39179500Y-80357500D03*
X140552500Y-73197500D03*
X153479500Y-70657500D03*
X121502500Y-73197500D03*
X134429500Y-70657500D03*
X102452500Y-71047500D03*
X115379500Y-68507500D03*
X83402500Y-68897500D03*
X96329500Y-66357500D03*
X45302500Y-63847500D03*
X58229500Y-61307500D03*
X26252500Y-63847500D03*
X39179500Y-61307500D03*
X121502500Y-54147500D03*
X134429500Y-51607500D03*
X83402500Y-49847500D03*
X96329500Y-47307500D03*
X64352500Y-51997500D03*
X77279500Y-49457500D03*
X26252500Y-44797500D03*
X39179500Y-42257500D03*
X140552500Y-35097500D03*
X153479500Y-32557500D03*
X121502500Y-35097500D03*
X134429500Y-32557500D03*
X102452500Y-32947500D03*
X115379500Y-30407500D03*
X83402500Y-30797500D03*
X96329500Y-28257500D03*
X64352500Y-32947500D03*
X77279500Y-30407500D03*
X45302500Y-25747500D03*
X58229500Y-23207500D03*
X26252500Y-25747500D03*
X39179500Y-23207500D03*
D25*
X158200000Y-83207000D03*
X161400000Y-83207000D03*
X158200000Y-88107000D03*
X161400000Y-88107000D03*
X155600000Y-104381250D03*
X158800000Y-104381250D03*
X155600000Y-109281250D03*
X158800000Y-109281250D03*
D10*
X121512500Y-102737500D03*
X121512500Y-105937500D03*
X116612500Y-102737500D03*
X116612500Y-105937500D03*
X83387500Y-100500000D03*
X83387500Y-103700000D03*
X78487500Y-100500000D03*
X78487500Y-103700000D03*
X45312500Y-91700000D03*
X45312500Y-94900000D03*
X40412500Y-91700000D03*
X40412500Y-94900000D03*
D25*
X44500000Y-76450000D03*
X41300000Y-76450000D03*
X44500000Y-71550000D03*
X41300000Y-71550000D03*
X44500000Y-38250000D03*
X41300000Y-38250000D03*
X44500000Y-33350000D03*
X41300000Y-33350000D03*
D10*
X78512500Y-45000000D03*
X78512500Y-41800000D03*
X83412500Y-45000000D03*
X83412500Y-41800000D03*
X116612500Y-45000000D03*
X116612500Y-41800000D03*
X121512500Y-45000000D03*
X121512500Y-41800000D03*
X152200000Y-47118750D03*
X152200000Y-43918750D03*
X157100000Y-47118750D03*
X157100000Y-43918750D03*
D26*
X175142500Y-80900000D03*
D27*
X177682500Y-80900000D03*
X180222500Y-80900000D03*
D28*
X170650000Y-102900000D03*
X167350000Y-102900000D03*
D29*
X165900000Y-124050000D03*
X165900000Y-127350000D03*
X147500000Y-119050000D03*
X147500000Y-122350000D03*
X127000000Y-118050000D03*
X127000000Y-121350000D03*
X60300000Y-102850000D03*
X60300000Y-106150000D03*
X41300000Y-102850000D03*
X41300000Y-106150000D03*
X155600000Y-93150000D03*
X155600000Y-96450000D03*
X136600000Y-93150000D03*
X136600000Y-96450000D03*
X117500000Y-91050000D03*
X117500000Y-94350000D03*
X98500000Y-88850000D03*
X98500000Y-92150000D03*
X79400000Y-91050000D03*
X79400000Y-94350000D03*
X60325000Y-83850000D03*
X60325000Y-87150000D03*
X41300000Y-83850000D03*
X41300000Y-87150000D03*
X155600000Y-74150000D03*
X155600000Y-77450000D03*
X136600000Y-74150000D03*
X136600000Y-77450000D03*
X117475000Y-71950000D03*
X117475000Y-75250000D03*
X98500000Y-69850000D03*
X98500000Y-73150000D03*
X79375000Y-71950000D03*
X79375000Y-75250000D03*
X60325000Y-64750000D03*
X60325000Y-68050000D03*
X41300000Y-64750000D03*
X41300000Y-68050000D03*
X155600000Y-55050000D03*
X155600000Y-58350000D03*
X136600000Y-55050000D03*
X136600000Y-58350000D03*
X117500000Y-52950000D03*
X117500000Y-56250000D03*
X98500000Y-50750000D03*
X98500000Y-54050000D03*
X79400000Y-52850000D03*
X79400000Y-56150000D03*
X60325000Y-45750000D03*
X60325000Y-49050000D03*
X41275000Y-49050000D03*
X41275000Y-45750000D03*
X155600000Y-36050000D03*
X155600000Y-39350000D03*
X136600000Y-35950000D03*
X136600000Y-39250000D03*
X117500000Y-33850000D03*
X117500000Y-37150000D03*
X98500000Y-31650000D03*
X98500000Y-34950000D03*
X79400000Y-33850000D03*
X79400000Y-37150000D03*
X60300000Y-26650000D03*
X60300000Y-29950000D03*
X41300000Y-26650000D03*
X41300000Y-29950000D03*
D30*
X182200000Y-64600000D03*
X183800000Y-66300000D03*
X191200000Y-65700000D03*
X191500000Y-63900000D03*
X192000000Y-66900000D03*
X167600000Y-63000000D03*
X169800000Y-37000000D03*
X176700000Y-37000000D03*
X174100000Y-58900000D03*
X167600000Y-69400000D03*
X178900000Y-73500000D03*
X182800000Y-38200000D03*
X189400000Y-42700000D03*
X165700000Y-36100000D03*
X180800000Y-36100000D03*
X170900000Y-48500000D03*
X165700000Y-40900000D03*
X166200000Y-70600000D03*
X164600000Y-62800000D03*
X147800000Y-45200000D03*
X112200000Y-43100000D03*
X74100000Y-43100000D03*
X48600000Y-36600000D03*
X48600000Y-74800000D03*
X49600000Y-93600000D03*
X87800000Y-102400000D03*
X125900000Y-104600000D03*
X157500000Y-100200000D03*
X158700000Y-43900000D03*
X123200000Y-41800000D03*
X85000000Y-41800000D03*
X39900000Y-33400000D03*
X39900000Y-71600000D03*
X38800000Y-94900000D03*
X76800000Y-103700000D03*
X115000000Y-105900000D03*
X160200000Y-109300000D03*
X161400000Y-89700000D03*
X160200000Y-78800000D03*
X175000000Y-53500000D03*
X177700000Y-53500000D03*
X181100000Y-50400000D03*
X183900000Y-57800000D03*
X183200000Y-74000000D03*
X180500000Y-73900000D03*
X25100000Y-92400000D03*
X27500000Y-92400000D03*
X44100000Y-31300000D03*
X46500000Y-32100000D03*
X41700000Y-41800000D03*
X46500000Y-41800000D03*
X46500000Y-79700000D03*
X41800000Y-79700000D03*
X46500000Y-97100000D03*
X44100000Y-97100000D03*
X65600000Y-80600000D03*
X60600000Y-80500000D03*
X62900000Y-77900000D03*
X65600000Y-61500000D03*
X63200000Y-61500000D03*
X63200000Y-45000000D03*
X65600000Y-45000000D03*
X87900000Y-97500000D03*
X89700000Y-95700000D03*
X82100000Y-81000000D03*
X84700000Y-81000000D03*
X82100000Y-61900000D03*
X84700000Y-61900000D03*
X27500000Y-35300000D03*
X25100000Y-35300000D03*
X25100000Y-56900000D03*
X27500000Y-56900000D03*
X25100000Y-75900000D03*
X27500000Y-75900000D03*
X41700000Y-56900000D03*
X46500000Y-56900000D03*
X82200000Y-39200000D03*
X84600000Y-39200000D03*
X101300000Y-40100000D03*
X103700000Y-40100000D03*
X101300000Y-64100000D03*
X103700000Y-64100000D03*
X101300000Y-83100000D03*
X103700000Y-83100000D03*
X106100000Y-98600000D03*
X107800000Y-96900000D03*
X111300000Y-105000000D03*
X113700000Y-105000000D03*
X122700000Y-49700000D03*
X120300000Y-49700000D03*
X120300000Y-66200000D03*
X122700000Y-66200000D03*
X120300000Y-85300000D03*
X122700000Y-85300000D03*
X123000000Y-98700000D03*
X123000000Y-101100000D03*
X129200000Y-102700000D03*
X130900000Y-101000000D03*
X132200000Y-109300000D03*
X134600000Y-109300000D03*
X141200000Y-101400000D03*
X142900000Y-99700000D03*
X139400000Y-85300000D03*
X141800000Y-85300000D03*
X139400000Y-66200000D03*
X141800000Y-66200000D03*
X139400000Y-45900000D03*
X141800000Y-45900000D03*
X168900000Y-78000000D03*
X165700000Y-76800000D03*
X160800000Y-74500000D03*
X158400000Y-74500000D03*
X169100000Y-85600000D03*
X169100000Y-88200000D03*
X163700000Y-51000000D03*
X163700000Y-48400000D03*
X186400000Y-55600000D03*
X188400000Y-53600000D03*
X188900000Y-72300000D03*
X190800000Y-74200000D03*
X171100000Y-68600000D03*
X171100000Y-63800000D03*
X171100000Y-66200000D03*
X178700000Y-66200000D03*
X178700000Y-63800000D03*
X178700000Y-68600000D03*
X174900000Y-63700000D03*
X174900000Y-68600000D03*
X174900000Y-66200000D03*
X61900000Y-93600000D03*
X49300000Y-76800000D03*
X166300000Y-86900000D03*
X156100000Y-99025000D03*
X159525000Y-99000000D03*
X171900000Y-49700000D03*
X157800000Y-49700000D03*
X177000000Y-48500000D03*
X189100000Y-56300000D03*
X184450000Y-78650000D03*
X158075000Y-96400000D03*
X173874528Y-74174528D03*
X174900000Y-74200000D03*
X167400000Y-83932000D03*
X42900000Y-39800000D03*
X42900000Y-70125000D03*
X43000000Y-78100000D03*
X43000000Y-89500000D03*
X26300000Y-28500000D03*
X26300000Y-99200000D03*
X26300000Y-47600000D03*
X26300000Y-85700000D03*
X26300000Y-66600000D03*
X26300000Y-51000000D03*
X45300000Y-85700000D03*
X45300000Y-28500000D03*
X45300000Y-47600000D03*
X45300000Y-66600000D03*
X45300000Y-99200000D03*
X45300000Y-51725000D03*
X64400000Y-35700000D03*
X64400000Y-87400000D03*
X64400000Y-54800000D03*
X64400000Y-73800000D03*
X64387347Y-58412653D03*
X83400000Y-33600000D03*
X83400000Y-85200000D03*
X83400000Y-52600000D03*
X83400000Y-71700000D03*
X112500000Y-112100000D03*
X83400000Y-59925000D03*
X102500000Y-35700000D03*
X102500000Y-87300000D03*
X102500000Y-54800000D03*
X102500000Y-73800000D03*
X133400000Y-112100000D03*
X102500000Y-60425000D03*
X121500000Y-37900000D03*
X121500000Y-89500000D03*
X121500000Y-56900000D03*
X121500000Y-76000000D03*
X151700000Y-117000000D03*
X121500000Y-63125000D03*
X140600000Y-37900000D03*
X140600000Y-89500000D03*
X140600000Y-76000000D03*
X140600000Y-56900000D03*
X168200000Y-92200000D03*
X140600000Y-63625000D03*
X159600000Y-60900000D03*
X163100000Y-79600000D03*
X170900000Y-42500000D03*
X172600000Y-42500000D03*
X169200000Y-42500000D03*
D31*
X180612500Y-64611250D02*
X182188750Y-64611250D01*
X182188750Y-64611250D02*
X182200000Y-64600000D01*
X185209252Y-65207638D02*
X184892362Y-65207638D01*
X184892362Y-65207638D02*
X183800000Y-66300000D01*
X188886208Y-65631902D02*
X191131902Y-65631902D01*
X191131902Y-65631902D02*
X191200000Y-65700000D01*
X190400000Y-62949568D02*
X190549568Y-62949568D01*
X190549568Y-62949568D02*
X191500000Y-63900000D01*
X190924784Y-67975216D02*
X192000000Y-66900000D01*
X169212500Y-63011250D02*
X167611250Y-63011250D01*
X167611250Y-63011250D02*
X167600000Y-63000000D01*
X170029999Y-34895000D02*
X170029999Y-36770001D01*
X170029999Y-36770001D02*
X169800000Y-37000000D01*
X176479999Y-34895000D02*
X176479999Y-36779999D01*
X176479999Y-36779999D02*
X176700000Y-37000000D01*
X174112500Y-60511250D02*
X174112500Y-58912500D01*
X174112500Y-58912500D02*
X174100000Y-58900000D01*
X169212500Y-69411250D02*
X167611250Y-69411250D01*
X167611250Y-69411250D02*
X167600000Y-69400000D01*
X178912500Y-71911250D02*
X178912500Y-73487500D01*
X178912500Y-73487500D02*
X178900000Y-73500000D01*
X182750000Y-40000000D02*
X182750000Y-38250000D01*
X182750000Y-38250000D02*
X182800000Y-38200000D01*
X189400000Y-44175000D02*
X189400000Y-42700000D01*
X165700000Y-34625000D02*
X165700000Y-36100000D01*
X180800000Y-34625000D02*
X180800000Y-36100000D01*
X170900000Y-46850000D02*
X170900000Y-47100000D01*
X170900000Y-47100000D02*
X170900000Y-48500000D01*
X167175000Y-40900000D02*
X165700000Y-40900000D01*
X164600000Y-70575000D02*
X166175000Y-70575000D01*
X166175000Y-70575000D02*
X166200000Y-70600000D01*
X164575000Y-61300000D02*
X164575000Y-62775000D01*
X164575000Y-62775000D02*
X164600000Y-62800000D01*
X149400000Y-45175000D02*
X147825000Y-45175000D01*
X147825000Y-45175000D02*
X147800000Y-45200000D01*
X113800000Y-43075000D02*
X112225000Y-43075000D01*
X112225000Y-43075000D02*
X112200000Y-43100000D01*
X75700000Y-43075000D02*
X74125000Y-43075000D01*
X74125000Y-43075000D02*
X74100000Y-43100000D01*
X47000000Y-36575000D02*
X48575000Y-36575000D01*
X48575000Y-36575000D02*
X48600000Y-36600000D01*
X47000000Y-74775000D02*
X48575000Y-74775000D01*
X48575000Y-74775000D02*
X48600000Y-74800000D01*
X48000000Y-93625000D02*
X49575000Y-93625000D01*
X49575000Y-93625000D02*
X49600000Y-93600000D01*
X86200000Y-102425000D02*
X87775000Y-102425000D01*
X87775000Y-102425000D02*
X87800000Y-102400000D01*
X124300000Y-104625000D02*
X125875000Y-104625000D01*
X125875000Y-104625000D02*
X125900000Y-104600000D01*
X157525000Y-101600000D02*
X157525000Y-100225000D01*
X157525000Y-100225000D02*
X157500000Y-100200000D01*
X157100000Y-43918750D02*
X158681250Y-43918750D01*
X158681250Y-43918750D02*
X158700000Y-43900000D01*
X121512500Y-41800000D02*
X123200000Y-41800000D01*
X83412500Y-41800000D02*
X85000000Y-41800000D01*
X41300000Y-33350000D02*
X39950000Y-33350000D01*
X39950000Y-33350000D02*
X39900000Y-33400000D01*
X41300000Y-71550000D02*
X39950000Y-71550000D01*
X39950000Y-71550000D02*
X39900000Y-71600000D01*
X40412500Y-94900000D02*
X38800000Y-94900000D01*
X78487500Y-103700000D02*
X76800000Y-103700000D01*
X116612500Y-105937500D02*
X115037500Y-105937500D01*
X115037500Y-105937500D02*
X115000000Y-105900000D01*
X158800000Y-109281250D02*
X160181250Y-109281250D01*
X160181250Y-109281250D02*
X160200000Y-109300000D01*
X161400000Y-88107000D02*
X161400000Y-89700000D01*
X160225000Y-80400000D02*
X160225000Y-78825000D01*
X160225000Y-78825000D02*
X160200000Y-78800000D01*
X175000000Y-54975000D02*
X175000000Y-53500000D01*
X177700000Y-54975000D02*
X177700000Y-53500000D01*
X179500000Y-50375000D02*
X181075000Y-50375000D01*
X181075000Y-50375000D02*
X181100000Y-50400000D01*
X183900000Y-59275000D02*
X183900000Y-57800000D01*
X183200000Y-75475000D02*
X183200000Y-74000000D01*
X180525000Y-75500000D02*
X180525000Y-73925000D01*
X180525000Y-73925000D02*
X180500000Y-73900000D01*
X45700000Y-31300000D02*
X46500000Y-32100000D01*
X44100000Y-31300000D02*
X45700000Y-31300000D01*
X41700000Y-41800000D02*
X46500000Y-41800000D01*
X25100000Y-35300000D02*
X27500000Y-35300000D01*
X25100000Y-56900000D02*
X27500000Y-56900000D01*
X41700000Y-56900000D02*
X46500000Y-56900000D01*
X25100000Y-75900000D02*
X27500000Y-75900000D01*
X25100000Y-92400000D02*
X27500000Y-92400000D01*
X44100000Y-97100000D02*
X46500000Y-97100000D01*
X41800000Y-79700000D02*
X46500000Y-79700000D01*
X63200000Y-45000000D02*
X65600000Y-45000000D01*
X63200000Y-61500000D02*
X65600000Y-61500000D01*
X60600000Y-80200000D02*
X62900000Y-77900000D01*
X60600000Y-80500000D02*
X60600000Y-80200000D01*
X62900000Y-77900000D02*
X65600000Y-80600000D01*
X87900000Y-97500000D02*
X89700000Y-95700000D01*
X82100000Y-81000000D02*
X84700000Y-81000000D01*
X82100000Y-61900000D02*
X84700000Y-61900000D01*
X82200000Y-39200000D02*
X84600000Y-39200000D01*
X101300000Y-40100000D02*
X103700000Y-40100000D01*
X101300000Y-64100000D02*
X103700000Y-64100000D01*
X101300000Y-83100000D02*
X103700000Y-83100000D01*
X106100000Y-98600000D02*
X107800000Y-96900000D01*
X111300000Y-105000000D02*
X113700000Y-105000000D01*
X123000000Y-101100000D02*
X123000000Y-98700000D01*
X129200000Y-102700000D02*
X130900000Y-101000000D01*
X132200000Y-109300000D02*
X134600000Y-109300000D01*
X141200000Y-101400000D02*
X142900000Y-99700000D01*
X120300000Y-85300000D02*
X122700000Y-85300000D01*
X139400000Y-85300000D02*
X141800000Y-85300000D01*
X169100000Y-85600000D02*
X169100000Y-88200000D01*
X167700000Y-76800000D02*
X168900000Y-78000000D01*
X165700000Y-76800000D02*
X167700000Y-76800000D01*
X160800000Y-74500000D02*
X158400000Y-74500000D01*
X188900000Y-72300000D02*
X190800000Y-74200000D01*
X186400000Y-55600000D02*
X188400000Y-53600000D01*
X163700000Y-51000000D02*
X163700000Y-48400000D01*
X120300000Y-49700000D02*
X122700000Y-49700000D01*
X139400000Y-45900000D02*
X141800000Y-45900000D01*
X120300000Y-66200000D02*
X122700000Y-66200000D01*
X139400000Y-66200000D02*
X141800000Y-66200000D01*
X118700000Y-47137500D02*
X116612500Y-45050000D01*
X149418750Y-47118750D02*
X149400000Y-47137500D01*
X152200000Y-47118750D02*
X149418750Y-47118750D01*
X113837500Y-45000000D02*
X113800000Y-45037500D01*
X116612500Y-45000000D02*
X113837500Y-45000000D01*
X118700000Y-47137500D02*
X149400000Y-47137500D01*
X75737500Y-45000000D02*
X75700000Y-45037500D01*
X78512500Y-45000000D02*
X75737500Y-45000000D01*
X86162500Y-100500000D02*
X86200000Y-100462500D01*
X83387500Y-100500000D02*
X86162500Y-100500000D01*
X124225000Y-102737500D02*
X124300000Y-102662500D01*
X121512500Y-102737500D02*
X124225000Y-102737500D01*
X155600000Y-101637500D02*
X155562500Y-101600000D01*
X155600000Y-104381250D02*
X155600000Y-101637500D01*
X113800000Y-45037500D02*
X100037500Y-45037500D01*
X100037500Y-45037500D02*
X97900000Y-42900000D01*
X97900000Y-42900000D02*
X88500000Y-42900000D01*
X88500000Y-42900000D02*
X84500000Y-46900000D01*
X80412500Y-46900000D02*
X78512500Y-45000000D01*
X84500000Y-46900000D02*
X80412500Y-46900000D01*
X44787500Y-38537500D02*
X44500000Y-38250000D01*
X47000000Y-38537500D02*
X44787500Y-38537500D01*
X61437500Y-38537500D02*
X47000000Y-38537500D01*
X75700000Y-45037500D02*
X67937500Y-45037500D01*
X67937500Y-45037500D02*
X61437500Y-38537500D01*
X44787500Y-76737500D02*
X44500000Y-76450000D01*
X47000000Y-76737500D02*
X44787500Y-76737500D01*
X45350000Y-91662500D02*
X45312500Y-91700000D01*
X48000000Y-91662500D02*
X45350000Y-91662500D01*
X155581250Y-104400000D02*
X155600000Y-104381250D01*
X153600000Y-104400000D02*
X155581250Y-104400000D01*
X153600000Y-104400000D02*
X127700000Y-104400000D01*
X125962500Y-102662500D02*
X124300000Y-102662500D01*
X127700000Y-104400000D02*
X125962500Y-102662500D01*
X121512500Y-102737500D02*
X119775000Y-101000000D01*
X86737500Y-101000000D02*
X86200000Y-100462500D01*
X119775000Y-101000000D02*
X86737500Y-101000000D01*
X83387500Y-100500000D02*
X81987500Y-99100000D01*
X81987500Y-99100000D02*
X67400000Y-99100000D01*
X49137500Y-92800000D02*
X48000000Y-91662500D01*
X61100000Y-92800000D02*
X49137500Y-92800000D01*
X62000000Y-93700000D02*
X61100000Y-92800000D01*
X62000000Y-93700000D02*
X61900000Y-93600000D01*
X67400000Y-99100000D02*
X62000000Y-93700000D01*
X47062500Y-76800000D02*
X47000000Y-76737500D01*
X49300000Y-76800000D02*
X47062500Y-76800000D01*
X158200000Y-85800000D02*
X158200000Y-83207000D01*
X159462490Y-87062490D02*
X159250000Y-86850000D01*
X159250000Y-86850000D02*
X158200000Y-85800000D01*
X159700000Y-90000000D02*
X159700000Y-87300000D01*
X159700000Y-87300000D02*
X159250000Y-86850000D01*
X161900000Y-91300000D02*
X161000000Y-91300000D01*
X160600000Y-90900000D02*
X159700000Y-90000000D01*
X161000000Y-91300000D02*
X160600000Y-90900000D01*
D32*
X180222500Y-81577500D02*
X180222500Y-80900000D01*
D31*
X161900000Y-91300000D02*
X166300000Y-86900000D01*
X155475000Y-101600000D02*
X155475000Y-99650000D01*
X155475000Y-99650000D02*
X156100000Y-99025000D01*
X158200000Y-80425000D02*
X158175000Y-80400000D01*
X158200000Y-83207000D02*
X158200000Y-80425000D01*
X159525000Y-99000000D02*
X159800000Y-98725000D01*
X159800000Y-98725000D02*
X159800000Y-92500000D01*
X160700000Y-91600000D02*
X160700000Y-91000000D01*
X160700000Y-91600000D02*
X161000000Y-91300000D01*
X160700000Y-91000000D02*
X160600000Y-90900000D01*
X159800000Y-92500000D02*
X160700000Y-91600000D01*
D33*
X175200000Y-48487500D02*
X175012500Y-48487500D01*
D31*
X175012500Y-48487500D02*
X173800000Y-49700000D01*
X173800000Y-49700000D02*
X171900000Y-49700000D01*
X157800000Y-49700000D02*
X155100000Y-49700000D01*
X152518750Y-47118750D02*
X152200000Y-47118750D01*
X155100000Y-49700000D02*
X152518750Y-47118750D01*
D33*
X175200000Y-48487500D02*
X175387500Y-48487500D01*
D31*
X179325000Y-52425000D02*
X179500000Y-52425000D01*
X175387500Y-48487500D02*
X179325000Y-52425000D01*
X179500000Y-53275000D02*
X181200000Y-54975000D01*
X179500000Y-52425000D02*
X179500000Y-53275000D01*
X181200000Y-54975000D02*
X180925000Y-54975000D01*
X178875000Y-57025000D02*
X177700000Y-57025000D01*
X180925000Y-54975000D02*
X178875000Y-57025000D01*
X175712500Y-59012500D02*
X175712500Y-60511250D01*
X177700000Y-57025000D02*
X175712500Y-59012500D01*
D33*
X175200000Y-48487500D02*
X176987500Y-48487500D01*
X176987500Y-48487500D02*
X177000000Y-48500000D01*
D31*
X181822492Y-63523760D02*
X181824789Y-63523759D01*
X180612500Y-63811250D02*
X181535002Y-63811250D01*
X181535002Y-63811250D02*
X181822492Y-63523760D01*
X183900000Y-61448548D02*
X183900000Y-61325000D01*
X181824789Y-63523759D02*
X183900000Y-61448548D01*
X177537500Y-70211250D02*
X169212500Y-70211250D01*
X178112500Y-70786250D02*
X177537500Y-70211250D01*
X178112500Y-71911250D02*
X178112500Y-70786250D01*
X184075000Y-61325000D02*
X189100000Y-56300000D01*
X183900000Y-61325000D02*
X184075000Y-61325000D01*
X175712500Y-61636250D02*
X175137500Y-62211250D01*
X175712500Y-60511250D02*
X175712500Y-61636250D01*
X171712500Y-61935000D02*
X171988750Y-62211250D01*
X171712500Y-60511250D02*
X171712500Y-61935000D01*
X175137500Y-62211250D02*
X171988750Y-62211250D01*
X171712500Y-61935000D02*
X171687500Y-61935000D01*
X171687500Y-61935000D02*
X171411250Y-62211250D01*
X171988750Y-62211250D02*
X171411250Y-62211250D01*
X171411250Y-62211250D02*
X169212500Y-62211250D01*
X166625000Y-61300000D02*
X166625000Y-61425000D01*
X167411250Y-62211250D02*
X169212500Y-62211250D01*
X166625000Y-61425000D02*
X167411250Y-62211250D01*
X183200000Y-77525000D02*
X183325000Y-77525000D01*
X183325000Y-77525000D02*
X184450000Y-78650000D01*
X183200000Y-77525000D02*
X180325000Y-77525000D01*
X180325000Y-77525000D02*
X178475000Y-75675000D01*
X178475000Y-75675000D02*
X178475000Y-75500000D01*
X178112500Y-75137500D02*
X178112500Y-71911250D01*
X178475000Y-75500000D02*
X178112500Y-75137500D01*
D32*
X175000000Y-57025000D02*
X174975000Y-57025000D01*
X174912500Y-57087500D02*
X174912500Y-60511250D01*
X174975000Y-57025000D02*
X174912500Y-57087500D01*
X39207500Y-23207500D02*
X41300000Y-25300000D01*
X39179500Y-23207500D02*
X39207500Y-23207500D01*
X41300000Y-25300000D02*
X41300000Y-26650000D01*
X41300000Y-29950000D02*
X45750000Y-29950000D01*
X45750000Y-29950000D02*
X47100000Y-31300000D01*
X58950000Y-31300000D02*
X60300000Y-29950000D01*
X47100000Y-31300000D02*
X58950000Y-31300000D01*
X96300000Y-37150000D02*
X98500000Y-34950000D01*
X79400000Y-37150000D02*
X96300000Y-37150000D01*
X98500000Y-34950000D02*
X102050000Y-38500000D01*
X116150000Y-38500000D02*
X117500000Y-37150000D01*
X102050000Y-38500000D02*
X116150000Y-38500000D01*
X117500000Y-37150000D02*
X119950000Y-39600000D01*
X119950000Y-39600000D02*
X123100000Y-39600000D01*
X123100000Y-39600000D02*
X124100000Y-40600000D01*
X135250000Y-40600000D02*
X136600000Y-39250000D01*
X124100000Y-40600000D02*
X135250000Y-40600000D01*
X136600000Y-39250000D02*
X137950000Y-40600000D01*
X154350000Y-40600000D02*
X155600000Y-39350000D01*
X137950000Y-40600000D02*
X154350000Y-40600000D01*
X168402498Y-64611250D02*
X169212500Y-64611250D01*
X60300000Y-32673002D02*
X66126998Y-38500000D01*
X60300000Y-29950000D02*
X60300000Y-32673002D01*
X78050000Y-38500000D02*
X79400000Y-37150000D01*
X66126998Y-38500000D02*
X78050000Y-38500000D01*
X162711250Y-64611250D02*
X169212500Y-64611250D01*
X160500000Y-62400000D02*
X162711250Y-64611250D01*
X160500000Y-43900000D02*
X160500000Y-62400000D01*
X155600000Y-39350000D02*
X155950000Y-39350000D01*
X155950000Y-39350000D02*
X160500000Y-43900000D01*
X58229500Y-23207500D02*
X58229500Y-23229500D01*
X58229500Y-23207500D02*
X58307500Y-23207500D01*
X60300000Y-25200000D02*
X60300000Y-26650000D01*
X58307500Y-23207500D02*
X60300000Y-25200000D01*
X77307500Y-30407500D02*
X79400000Y-32500000D01*
X79400000Y-32500000D02*
X79400000Y-33850000D01*
X77279500Y-30407500D02*
X77307500Y-30407500D01*
X96329500Y-28257500D02*
X96357500Y-28257500D01*
X98500000Y-30400000D02*
X98500000Y-31650000D01*
X96357500Y-28257500D02*
X98500000Y-30400000D01*
X115379500Y-30407500D02*
X115407500Y-30407500D01*
X117500000Y-32500000D02*
X117500000Y-33850000D01*
X115407500Y-30407500D02*
X117500000Y-32500000D01*
X134429500Y-32557500D02*
X134457500Y-32557500D01*
X136600000Y-34700000D02*
X136600000Y-35950000D01*
X134457500Y-32557500D02*
X136600000Y-34700000D01*
X153479500Y-32557500D02*
X153557500Y-32557500D01*
X155600000Y-34600000D02*
X155600000Y-36050000D01*
X153557500Y-32557500D02*
X155600000Y-34600000D01*
X39179500Y-42257500D02*
X39257500Y-42257500D01*
X41275000Y-44275000D02*
X41275000Y-45750000D01*
X39257500Y-42257500D02*
X41275000Y-44275000D01*
X41275000Y-49050000D02*
X42625000Y-50400000D01*
X58975000Y-50400000D02*
X60325000Y-49050000D01*
X42625000Y-50400000D02*
X58975000Y-50400000D01*
X60325000Y-51798002D02*
X66126998Y-57600000D01*
X60325000Y-49050000D02*
X60325000Y-51798002D01*
X77950000Y-57600000D02*
X79400000Y-56150000D01*
X66126998Y-57600000D02*
X77950000Y-57600000D01*
X96400000Y-56150000D02*
X98500000Y-54050000D01*
X79400000Y-56150000D02*
X96400000Y-56150000D01*
X98500000Y-54050000D02*
X102050000Y-57600000D01*
X116150000Y-57600000D02*
X117500000Y-56250000D01*
X102050000Y-57600000D02*
X116150000Y-57600000D01*
X117500000Y-56250000D02*
X120950000Y-59700000D01*
X135250000Y-59700000D02*
X136600000Y-58350000D01*
X120950000Y-59700000D02*
X135250000Y-59700000D01*
X136600000Y-58350000D02*
X137950000Y-59700000D01*
X154250000Y-59700000D02*
X155600000Y-58350000D01*
X137950000Y-59700000D02*
X154250000Y-59700000D01*
X155600000Y-58350000D02*
X155950000Y-58350000D01*
X162811250Y-65411250D02*
X169212500Y-65411250D01*
X155600000Y-58350000D02*
X155750000Y-58350000D01*
X155750000Y-58350000D02*
X162811250Y-65411250D01*
X58229500Y-42257500D02*
X58257500Y-42257500D01*
X60325000Y-44325000D02*
X60325000Y-45750000D01*
X58257500Y-42257500D02*
X60325000Y-44325000D01*
X77279500Y-49457500D02*
X77357500Y-49457500D01*
X79400000Y-51500000D02*
X79400000Y-52850000D01*
X77357500Y-49457500D02*
X79400000Y-51500000D01*
X96329500Y-47307500D02*
X96407500Y-47307500D01*
X98500000Y-49400000D02*
X98500000Y-50750000D01*
X96407500Y-47307500D02*
X98500000Y-49400000D01*
X115379500Y-49457500D02*
X115457500Y-49457500D01*
X117500000Y-51500000D02*
X117500000Y-52950000D01*
X115457500Y-49457500D02*
X117500000Y-51500000D01*
X134429500Y-51607500D02*
X134507500Y-51607500D01*
X136600000Y-53700000D02*
X136600000Y-55050000D01*
X134507500Y-51607500D02*
X136600000Y-53700000D01*
X153479500Y-51607500D02*
X153507500Y-51607500D01*
X155600000Y-53700000D02*
X155600000Y-55050000D01*
X153507500Y-51607500D02*
X155600000Y-53700000D01*
X39179500Y-61307500D02*
X39207500Y-61307500D01*
X41300000Y-63400000D02*
X41300000Y-64750000D01*
X39207500Y-61307500D02*
X41300000Y-63400000D01*
X41300000Y-68050000D02*
X42650000Y-69400000D01*
X58975000Y-69400000D02*
X60325000Y-68050000D01*
X42650000Y-69400000D02*
X58975000Y-69400000D01*
X60325000Y-70798002D02*
X66126998Y-76600000D01*
X60325000Y-68050000D02*
X60325000Y-70798002D01*
X78025000Y-76600000D02*
X79375000Y-75250000D01*
X66126998Y-76600000D02*
X78025000Y-76600000D01*
X96400000Y-75250000D02*
X98500000Y-73150000D01*
X79375000Y-75250000D02*
X96400000Y-75250000D01*
X98500000Y-73150000D02*
X101950000Y-76600000D01*
X116125000Y-76600000D02*
X117475000Y-75250000D01*
X101950000Y-76600000D02*
X116125000Y-76600000D01*
X117475000Y-75250000D02*
X120925000Y-78700000D01*
X135350000Y-78700000D02*
X136600000Y-77450000D01*
X120925000Y-78700000D02*
X135350000Y-78700000D01*
X136600000Y-77450000D02*
X137850000Y-78700000D01*
X154350000Y-78700000D02*
X155600000Y-77450000D01*
X137850000Y-78700000D02*
X154350000Y-78700000D01*
X155850000Y-77450000D02*
X155600000Y-77450000D01*
X171423750Y-75600000D02*
X174112500Y-72911250D01*
X157500000Y-75600000D02*
X171423750Y-75600000D01*
X155650000Y-77450000D02*
X157500000Y-75600000D01*
X174112500Y-72911250D02*
X174112500Y-71911250D01*
X155600000Y-77450000D02*
X155650000Y-77450000D01*
X58229500Y-61307500D02*
X58307500Y-61307500D01*
X60325000Y-63325000D02*
X60325000Y-64750000D01*
X58307500Y-61307500D02*
X60325000Y-63325000D01*
X77279500Y-68507500D02*
X77307500Y-68507500D01*
X79375000Y-70575000D02*
X79375000Y-71950000D01*
X77307500Y-68507500D02*
X79375000Y-70575000D01*
X96329500Y-66357500D02*
X96357500Y-66357500D01*
X98500000Y-68500000D02*
X98500000Y-69850000D01*
X96357500Y-66357500D02*
X98500000Y-68500000D01*
X115379500Y-68507500D02*
X115407500Y-68507500D01*
X117475000Y-70575000D02*
X117475000Y-71950000D01*
X115407500Y-68507500D02*
X117475000Y-70575000D01*
X134429500Y-70657500D02*
X134457500Y-70657500D01*
X136600000Y-72800000D02*
X136600000Y-74150000D01*
X134457500Y-70657500D02*
X136600000Y-72800000D01*
X153479500Y-70657500D02*
X153557500Y-70657500D01*
X155600000Y-72700000D02*
X155600000Y-74150000D01*
X153557500Y-70657500D02*
X155600000Y-72700000D01*
X39179500Y-80357500D02*
X39257500Y-80357500D01*
X41300000Y-82400000D02*
X41300000Y-83850000D01*
X39257500Y-80357500D02*
X41300000Y-82400000D01*
X41300000Y-87150000D02*
X42550000Y-88400000D01*
X59075000Y-88400000D02*
X60325000Y-87150000D01*
X42550000Y-88400000D02*
X59075000Y-88400000D01*
X78150000Y-95600000D02*
X79400000Y-94350000D01*
X96300000Y-94350000D02*
X98500000Y-92150000D01*
X79400000Y-94350000D02*
X96300000Y-94350000D01*
X98500000Y-92150000D02*
X101950000Y-95600000D01*
X116250000Y-95600000D02*
X117500000Y-94350000D01*
X101950000Y-95600000D02*
X116250000Y-95600000D01*
X117500000Y-94350000D02*
X120950000Y-97800000D01*
X135250000Y-97800000D02*
X136600000Y-96450000D01*
X120950000Y-97800000D02*
X135250000Y-97800000D01*
X136600000Y-96450000D02*
X137950000Y-97800000D01*
X154250000Y-97800000D02*
X155600000Y-96450000D01*
X137950000Y-97800000D02*
X154250000Y-97800000D01*
X66200000Y-95600000D02*
X67000000Y-95600000D01*
X60325000Y-89725000D02*
X66200000Y-95600000D01*
X60325000Y-87150000D02*
X60325000Y-89725000D01*
X66744998Y-95600000D02*
X67000000Y-95600000D01*
X67000000Y-95600000D02*
X78150000Y-95600000D01*
X155600000Y-96450000D02*
X158025000Y-96450000D01*
X158025000Y-96450000D02*
X158075000Y-96400000D01*
X174912500Y-73136556D02*
X174912500Y-71911250D01*
X173874528Y-74174528D02*
X174912500Y-73136556D01*
X58229500Y-80357500D02*
X58257500Y-80357500D01*
X60325000Y-82425000D02*
X60325000Y-83850000D01*
X58257500Y-80357500D02*
X60325000Y-82425000D01*
X77279500Y-87557500D02*
X77357500Y-87557500D01*
X79400000Y-89600000D02*
X79400000Y-91050000D01*
X77357500Y-87557500D02*
X79400000Y-89600000D01*
X96329500Y-85407500D02*
X96407500Y-85407500D01*
X98500000Y-87500000D02*
X98500000Y-88850000D01*
X96407500Y-85407500D02*
X98500000Y-87500000D01*
X115379500Y-87557500D02*
X115457500Y-87557500D01*
X117500000Y-89600000D02*
X117500000Y-91050000D01*
X115457500Y-87557500D02*
X117500000Y-89600000D01*
X134429500Y-89707500D02*
X134507500Y-89707500D01*
X136600000Y-91800000D02*
X136600000Y-93150000D01*
X134507500Y-89707500D02*
X136600000Y-91800000D01*
X153479500Y-89707500D02*
X153607500Y-89707500D01*
X155600000Y-91700000D02*
X155600000Y-93150000D01*
X153607500Y-89707500D02*
X155600000Y-91700000D01*
X39179500Y-99407500D02*
X39207500Y-99407500D01*
X41300000Y-101500000D02*
X41300000Y-102850000D01*
X39207500Y-99407500D02*
X41300000Y-101500000D01*
X41300000Y-106150000D02*
X42650000Y-107500000D01*
X58950000Y-107500000D02*
X60300000Y-106150000D01*
X42650000Y-107500000D02*
X58950000Y-107500000D01*
X125450000Y-122900000D02*
X127000000Y-121350000D01*
X127000000Y-121350000D02*
X129350000Y-123700000D01*
X146150000Y-123700000D02*
X147500000Y-122350000D01*
X129350000Y-123700000D02*
X146150000Y-123700000D01*
X147500000Y-122350000D02*
X147550000Y-122350000D01*
X147550000Y-122350000D02*
X153900000Y-128700000D01*
X164550000Y-128700000D02*
X165900000Y-127350000D01*
X153900000Y-128700000D02*
X164550000Y-128700000D01*
X165900000Y-127350000D02*
X168700000Y-124550000D01*
X168700000Y-104250000D02*
X167350000Y-102900000D01*
X168700000Y-124550000D02*
X168700000Y-104250000D01*
X175712500Y-73387500D02*
X175712500Y-71911250D01*
X174900000Y-74200000D02*
X175712500Y-73387500D01*
X113900000Y-122900000D02*
X114500000Y-122900000D01*
X103100000Y-112100000D02*
X113900000Y-122900000D01*
X114500000Y-122900000D02*
X125450000Y-122900000D01*
X60300000Y-106150000D02*
X60350000Y-106150000D01*
X60350000Y-106150000D02*
X61700000Y-104800000D01*
X70400000Y-104800000D02*
X77700000Y-112100000D01*
X61700000Y-104800000D02*
X70400000Y-104800000D01*
X77700000Y-112100000D02*
X103100000Y-112100000D01*
X167350000Y-102900000D02*
X167350000Y-83982000D01*
X167350000Y-83982000D02*
X167400000Y-83932000D01*
X58229500Y-99407500D02*
X58307500Y-99407500D01*
X60300000Y-101400000D02*
X60300000Y-102850000D01*
X58307500Y-99407500D02*
X60300000Y-101400000D01*
X125697880Y-114799129D02*
X125699129Y-114799129D01*
X127000000Y-116100000D02*
X127000000Y-118050000D01*
X125699129Y-114799129D02*
X127000000Y-116100000D01*
X146541489Y-115992618D02*
X146541489Y-116041489D01*
X147500000Y-117000000D02*
X147500000Y-119050000D01*
X146541489Y-116041489D02*
X147500000Y-117000000D01*
X164941489Y-120923868D02*
X165023868Y-120923868D01*
X165900000Y-121800000D02*
X165900000Y-124050000D01*
X165023868Y-120923868D02*
X165900000Y-121800000D01*
X170650000Y-97308750D02*
X170667500Y-97291250D01*
X170650000Y-102900000D02*
X170650000Y-97308750D01*
X176700000Y-82500000D02*
X177682500Y-81517500D01*
X173200000Y-82500000D02*
X176700000Y-82500000D01*
X170900000Y-82200000D02*
X172900000Y-82200000D01*
X177682500Y-81517500D02*
X177682500Y-80900000D01*
X172900000Y-82200000D02*
X173200000Y-82500000D01*
X170900000Y-82200000D02*
X170600000Y-82200000D01*
X161400000Y-83207000D02*
X161400000Y-83000000D01*
X162200000Y-82200000D02*
X170900000Y-82200000D01*
X161400000Y-83000000D02*
X162200000Y-82200000D01*
X169600000Y-53975000D02*
X169725000Y-53975000D01*
X169725000Y-53975000D02*
X170700000Y-53000000D01*
X170700000Y-53000000D02*
X170700000Y-49373002D01*
X169950000Y-48623002D02*
X169950000Y-46850000D01*
X170700000Y-49373002D02*
X169950000Y-48623002D01*
X172300000Y-53975000D02*
X172175000Y-53975000D01*
X172175000Y-53975000D02*
X171150010Y-52950010D01*
X171150010Y-52950010D02*
X171150010Y-49349990D01*
X171850000Y-48650000D02*
X171850000Y-46850000D01*
X171150010Y-49349990D02*
X171850000Y-48650000D01*
X122593750Y-43918750D02*
X121512500Y-45000000D01*
X152200000Y-43918750D02*
X122593750Y-43918750D01*
X86612500Y-41800000D02*
X83412500Y-45000000D01*
X116612500Y-41800000D02*
X86612500Y-41800000D01*
X78512500Y-41800000D02*
X65900000Y-41800000D01*
X65900000Y-41800000D02*
X61900000Y-37800000D01*
X61900000Y-37800000D02*
X52100000Y-37800000D01*
X47650000Y-33350000D02*
X44500000Y-33350000D01*
X52100000Y-37800000D02*
X47650000Y-33350000D01*
X41300000Y-38250000D02*
X41350000Y-38250000D01*
X41350000Y-38250000D02*
X42900000Y-39800000D01*
X43075000Y-70125000D02*
X44500000Y-71550000D01*
X42900000Y-70125000D02*
X43075000Y-70125000D01*
X41300000Y-76450000D02*
X41350000Y-76450000D01*
X41350000Y-76450000D02*
X43000000Y-78100000D01*
X40800000Y-91700000D02*
X40412500Y-91700000D01*
X43000000Y-89500000D02*
X40800000Y-91700000D01*
X45312500Y-94900000D02*
X61900000Y-94900000D01*
X67500000Y-100500000D02*
X78487500Y-100500000D01*
X61900000Y-94900000D02*
X67500000Y-100500000D01*
X115650000Y-103700000D02*
X116612500Y-102737500D01*
X83387500Y-103700000D02*
X115650000Y-103700000D01*
X152256250Y-105937500D02*
X155600000Y-109281250D01*
X121512500Y-105937500D02*
X152256250Y-105937500D01*
X158800000Y-88707000D02*
X158200000Y-88107000D01*
X158800000Y-104381250D02*
X158800000Y-88707000D01*
X26252500Y-25747500D02*
X26252500Y-28452500D01*
X26252500Y-28452500D02*
X26300000Y-28500000D01*
X26300000Y-101900000D02*
X26252500Y-101947500D01*
X26300000Y-99200000D02*
X26300000Y-101900000D01*
X26252500Y-44797500D02*
X26252500Y-47552500D01*
X26252500Y-47552500D02*
X26300000Y-47600000D01*
X26252500Y-82897500D02*
X26252500Y-85652500D01*
X26252500Y-85652500D02*
X26300000Y-85700000D01*
X26252500Y-63847500D02*
X26252500Y-66552500D01*
X26252500Y-66552500D02*
X26300000Y-66600000D01*
X58700000Y-51000000D02*
X65900000Y-58200000D01*
X26300000Y-51000000D02*
X58700000Y-51000000D01*
X118600000Y-58200000D02*
X120800000Y-60400000D01*
X65900000Y-58200000D02*
X118600000Y-58200000D01*
X120800000Y-60400000D02*
X157100000Y-60400000D01*
X162911250Y-66211250D02*
X169212500Y-66211250D01*
X157100000Y-60400000D02*
X162911250Y-66211250D01*
X45302500Y-85697500D02*
X45300000Y-85700000D01*
X45302500Y-82897500D02*
X45302500Y-85697500D01*
X45302500Y-25747500D02*
X45302500Y-28497500D01*
X45302500Y-28497500D02*
X45300000Y-28500000D01*
X45302500Y-47597500D02*
X45300000Y-47600000D01*
X45302500Y-44797500D02*
X45302500Y-47597500D01*
X45302500Y-63847500D02*
X45302500Y-66597500D01*
X45302500Y-66597500D02*
X45300000Y-66600000D01*
X45302500Y-101947500D02*
X45302500Y-99202500D01*
X45302500Y-99202500D02*
X45300000Y-99200000D01*
X120600000Y-60900000D02*
X156900000Y-60900000D01*
X118400000Y-58700000D02*
X120600000Y-60900000D01*
X65700000Y-58700000D02*
X118400000Y-58700000D01*
X45300000Y-51725000D02*
X45300000Y-51700000D01*
X45300000Y-51700000D02*
X45500000Y-51500000D01*
X58500000Y-51500000D02*
X59000000Y-52000000D01*
X45500000Y-51500000D02*
X58500000Y-51500000D01*
X58725000Y-51725000D02*
X59000000Y-52000000D01*
X59000000Y-52000000D02*
X65700000Y-58700000D01*
X163011250Y-67011250D02*
X169212500Y-67011250D01*
X156900000Y-60900000D02*
X163011250Y-67011250D01*
X64352500Y-32947500D02*
X64352500Y-35652500D01*
X64352500Y-35652500D02*
X64400000Y-35700000D01*
X64400000Y-90050000D02*
X64352500Y-90097500D01*
X64400000Y-87400000D02*
X64400000Y-90050000D01*
X64352500Y-54752500D02*
X64400000Y-54800000D01*
X64352500Y-51997500D02*
X64352500Y-54752500D01*
X64352500Y-73752500D02*
X64400000Y-73800000D01*
X64352500Y-71047500D02*
X64352500Y-73752500D01*
X156700000Y-61400000D02*
X163111250Y-67811250D01*
X64712653Y-58412653D02*
X65500000Y-59200000D01*
X64387347Y-58412653D02*
X64712653Y-58412653D01*
X65500000Y-59200000D02*
X118200000Y-59200000D01*
X118200000Y-59200000D02*
X120400000Y-61400000D01*
X163111250Y-67811250D02*
X169212500Y-67811250D01*
X120400000Y-61400000D02*
X156700000Y-61400000D01*
X83402500Y-30797500D02*
X83402500Y-33597500D01*
X83402500Y-33597500D02*
X83400000Y-33600000D01*
X83400000Y-87945000D02*
X83402500Y-87947500D01*
X83400000Y-85200000D02*
X83400000Y-87945000D01*
X83402500Y-52597500D02*
X83400000Y-52600000D01*
X83402500Y-49847500D02*
X83402500Y-52597500D01*
X83402500Y-71697500D02*
X83400000Y-71700000D01*
X83402500Y-68897500D02*
X83402500Y-71697500D01*
X112500000Y-115029588D02*
X112526203Y-115055791D01*
X112500000Y-112100000D02*
X112500000Y-115029588D01*
X120200000Y-61900000D02*
X156500000Y-61900000D01*
X83400000Y-59925000D02*
X83400000Y-59900000D01*
X83400000Y-59900000D02*
X83600000Y-59700000D01*
X118000000Y-59700000D02*
X118600000Y-60300000D01*
X118225000Y-59925000D02*
X118600000Y-60300000D01*
X83600000Y-59700000D02*
X118000000Y-59700000D01*
X118600000Y-60300000D02*
X120200000Y-61900000D01*
X163211250Y-68611250D02*
X169212500Y-68611250D01*
X156500000Y-61900000D02*
X163211250Y-68611250D01*
X102452500Y-32947500D02*
X102452500Y-35652500D01*
X102452500Y-35652500D02*
X102500000Y-35700000D01*
X102500000Y-90050000D02*
X102452500Y-90097500D01*
X102500000Y-87300000D02*
X102500000Y-90050000D01*
X102452500Y-54752500D02*
X102500000Y-54800000D01*
X102452500Y-51997500D02*
X102452500Y-54752500D01*
X102452500Y-71047500D02*
X102452500Y-73752500D01*
X102452500Y-73752500D02*
X102500000Y-73800000D01*
X133400000Y-115097881D02*
X133397566Y-115100315D01*
X133400000Y-112100000D02*
X133400000Y-115097881D01*
X102500000Y-60425000D02*
X102500000Y-60400000D01*
X102500000Y-60400000D02*
X102700000Y-60200000D01*
X102950000Y-60200000D02*
X103400000Y-60200000D01*
X102700000Y-60200000D02*
X103400000Y-60200000D01*
X170523750Y-74100000D02*
X171712500Y-72911250D01*
X163400000Y-74100000D02*
X170523750Y-74100000D01*
X171712500Y-72911250D02*
X171712500Y-71911250D01*
X162600000Y-73300000D02*
X163400000Y-74100000D01*
X103400000Y-60200000D02*
X117800000Y-60200000D01*
X162600000Y-68700000D02*
X162600000Y-73300000D01*
X117800000Y-60200000D02*
X120000000Y-62400000D01*
X156300000Y-62400000D02*
X162600000Y-68700000D01*
X120000000Y-62400000D02*
X156300000Y-62400000D01*
X121502500Y-35097500D02*
X121502500Y-37897500D01*
X121502500Y-37897500D02*
X121500000Y-37900000D01*
X121500000Y-92245000D02*
X121502500Y-92247500D01*
X121500000Y-89500000D02*
X121500000Y-92245000D01*
X121502500Y-54147500D02*
X121502500Y-56897500D01*
X121502500Y-56897500D02*
X121500000Y-56900000D01*
X121502500Y-75997500D02*
X121500000Y-76000000D01*
X121502500Y-73197500D02*
X121502500Y-75997500D01*
X151700000Y-119933999D02*
X151797566Y-120031565D01*
X151700000Y-117000000D02*
X151700000Y-119933999D01*
X121500000Y-63125000D02*
X121500000Y-63100000D01*
X121500000Y-63100000D02*
X121700000Y-62900000D01*
X121700000Y-62900000D02*
X156100000Y-62900000D01*
X156100000Y-62900000D02*
X162100000Y-68900000D01*
X162100000Y-68900000D02*
X162100000Y-73500000D01*
X162100000Y-73500000D02*
X163200000Y-74600000D01*
X170823750Y-74600000D02*
X172512500Y-72911250D01*
X172512500Y-72911250D02*
X172512500Y-71911250D01*
X163200000Y-74600000D02*
X170823750Y-74600000D01*
X140552500Y-35097500D02*
X140552500Y-37852500D01*
X140552500Y-37852500D02*
X140600000Y-37900000D01*
X140600000Y-92200000D02*
X140552500Y-92247500D01*
X140600000Y-89500000D02*
X140600000Y-92200000D01*
X140552500Y-75952500D02*
X140600000Y-76000000D01*
X140552500Y-73197500D02*
X140552500Y-75952500D01*
X140552500Y-54147500D02*
X140552500Y-56852500D01*
X140552500Y-56852500D02*
X140600000Y-56900000D01*
X170576250Y-92200000D02*
X170667500Y-92291250D01*
X168200000Y-92200000D02*
X170576250Y-92200000D01*
X171123750Y-75100000D02*
X173312500Y-72911250D01*
X161600000Y-73700000D02*
X163000000Y-75100000D01*
X140600000Y-63625000D02*
X140600000Y-63600000D01*
X173312500Y-72911250D02*
X173312500Y-71911250D01*
X140600000Y-63600000D02*
X140800000Y-63400000D01*
X140800000Y-63400000D02*
X155900000Y-63400000D01*
X155900000Y-63400000D02*
X161600000Y-69100000D01*
X163000000Y-75100000D02*
X171123750Y-75100000D01*
X161600000Y-69100000D02*
X161600000Y-73700000D01*
X177312500Y-75487500D02*
X177312500Y-71911250D01*
X171900000Y-80900000D02*
X177312500Y-75487500D01*
X170900000Y-80900000D02*
X171900000Y-80900000D01*
X157118750Y-47118750D02*
X157100000Y-47118750D01*
X157100000Y-47118750D02*
X157318750Y-47118750D01*
X157318750Y-47118750D02*
X159600000Y-49400000D01*
X159600000Y-49400000D02*
X159600000Y-60900000D01*
X163100000Y-79600000D02*
X170900000Y-79600000D01*
X180612500Y-70211250D02*
X182811250Y-70211250D01*
X182811250Y-70211250D02*
X186900000Y-74300000D01*
X186900000Y-90558750D02*
X185167500Y-92291250D01*
X186900000Y-74300000D02*
X186900000Y-90558750D01*
X180612500Y-69411250D02*
X182711250Y-69411250D01*
X182711250Y-69411250D02*
X187400000Y-74100000D01*
X187400000Y-95058750D02*
X185167500Y-97291250D01*
X187400000Y-74100000D02*
X187400000Y-95058750D01*
D31*
X175700000Y-34899999D02*
X175704999Y-34895000D01*
X170900000Y-44150000D02*
X170900000Y-42500000D01*
X169200000Y-40925000D02*
X169225000Y-40900000D01*
X169200000Y-42500000D02*
X169200000Y-40925000D01*
X170804999Y-39320001D02*
X170804999Y-34895000D01*
X169225000Y-40900000D02*
X170804999Y-39320001D01*
X175704999Y-39395001D02*
X175704999Y-34895000D01*
X172600000Y-42500000D02*
X175704999Y-39395001D01*
D33*
X171107500Y-45512500D02*
X175200000Y-45512500D01*
X170900000Y-45305000D02*
X171107500Y-45512500D01*
X170900000Y-44150000D02*
X170900000Y-45305000D01*
D32*
X172504999Y-33434998D02*
X172739997Y-33200000D01*
X172504999Y-34895000D02*
X172504999Y-33434998D01*
X173504999Y-33434998D02*
X173504999Y-34895000D01*
X173270001Y-33200000D02*
X173504999Y-33434998D01*
X172739997Y-33200000D02*
X173270001Y-33200000D01*
X172504999Y-39821999D02*
X172504999Y-34895000D01*
X169950000Y-42376998D02*
X172504999Y-39821999D01*
X169950000Y-44150000D02*
X169950000Y-42376998D01*
X173004999Y-36370000D02*
X173234999Y-36600000D01*
X174004999Y-36395001D02*
X174004999Y-34895000D01*
X173800000Y-36600000D02*
X174004999Y-36395001D01*
X173234999Y-36600000D02*
X173800000Y-36600000D01*
X173004999Y-36370000D02*
X173004999Y-34895000D01*
X171850000Y-44150000D02*
X171850000Y-42350000D01*
X171400000Y-41900000D02*
X171400000Y-41563408D01*
X171850000Y-42350000D02*
X171400000Y-41900000D01*
X171400000Y-41563408D02*
X173004999Y-39958409D01*
X173039998Y-36795001D02*
X173234999Y-36600000D01*
X173004999Y-36795001D02*
X173039998Y-36795001D01*
X173004999Y-36795001D02*
X173004999Y-34895000D01*
X173004999Y-39958409D02*
X173004999Y-36795001D01*
X189426398Y-69424784D02*
X189475216Y-69424784D01*
X187259862Y-67258248D02*
X189426398Y-69424784D01*
X180612500Y-66211250D02*
X182411250Y-66211250D01*
X183458248Y-67258248D02*
X187259862Y-67258248D01*
X182411250Y-66211250D02*
X183458248Y-67258248D01*
X188916890Y-61500000D02*
X188950432Y-61500000D01*
X186835598Y-63581292D02*
X188916890Y-61500000D01*
X182461752Y-65411250D02*
X184373002Y-63500000D01*
X180612500Y-65411250D02*
X182461752Y-65411250D01*
X186754306Y-63500000D02*
X186835598Y-63581292D01*
X184373002Y-63500000D02*
X186754306Y-63500000D01*
X189375000Y-46200000D02*
X189400000Y-46225000D01*
X186450000Y-46200000D02*
X189375000Y-46200000D01*
X181612500Y-63011250D02*
X182100000Y-62523750D01*
X180612500Y-63011250D02*
X181612500Y-63011250D01*
X182100000Y-57925000D02*
X181200000Y-57025000D01*
X182100000Y-62523750D02*
X182100000Y-57925000D01*
X181200000Y-57025000D02*
X181375000Y-57025000D01*
X186450000Y-51950000D02*
X186450000Y-46200000D01*
X181375000Y-57025000D02*
X186450000Y-51950000D01*
X165700000Y-32662500D02*
X166762500Y-31600000D01*
X166762500Y-31600000D02*
X171100000Y-31600000D01*
X172004999Y-32504999D02*
X172004999Y-34895000D01*
X171100000Y-31600000D02*
X172004999Y-32504999D01*
X180800000Y-32662500D02*
X179737500Y-31600000D01*
X179737500Y-31600000D02*
X175700000Y-31600000D01*
X175004999Y-32295001D02*
X175004999Y-34895000D01*
X175700000Y-31600000D02*
X175004999Y-32295001D01*
X164600000Y-72625000D02*
X164725000Y-72625000D01*
X164600000Y-72625000D02*
X170575000Y-72625000D01*
X170912500Y-72287500D02*
X170912500Y-71911250D01*
X170575000Y-72625000D02*
X170912500Y-72287500D01*
X171250010Y-57550010D02*
X171250010Y-57074990D01*
X171250010Y-57074990D02*
X172300000Y-56025000D01*
X173312500Y-60511250D02*
X173312500Y-59612500D01*
X173312500Y-59612500D02*
X171250010Y-57550010D01*
X170800000Y-57100000D02*
X169725000Y-56025000D01*
X170800000Y-57736410D02*
X170800000Y-57100000D01*
X169725000Y-56025000D02*
X169600000Y-56025000D01*
X172512500Y-60511250D02*
X172512500Y-59448910D01*
X172512500Y-59448910D02*
X170800000Y-57736410D01*
D34*
G36*
X179173000Y-69573000D02*
G01*
X178056303Y-69573000D01*
X177996667Y-69524058D01*
X177853780Y-69447683D01*
X177698738Y-69400652D01*
X177577898Y-69388750D01*
X177537500Y-69384771D01*
X177497102Y-69388750D01*
X170627000Y-69388750D01*
X170627000Y-63033750D01*
X171370852Y-63033750D01*
X171411250Y-63037729D01*
X171451648Y-63033750D01*
X171948361Y-63033750D01*
X171988749Y-63037728D01*
X172029137Y-63033750D01*
X175097102Y-63033750D01*
X175137500Y-63037729D01*
X175177898Y-63033750D01*
X175298738Y-63021848D01*
X175453780Y-62974817D01*
X175596667Y-62898442D01*
X175683720Y-62827000D01*
X179173000Y-62827000D01*
X179173000Y-69573000D01*
G37*
X179173000Y-69573000D02*
X178056303Y-69573000D01*
X177996667Y-69524058D01*
X177853780Y-69447683D01*
X177698738Y-69400652D01*
X177577898Y-69388750D01*
X177537500Y-69384771D01*
X177497102Y-69388750D01*
X170627000Y-69388750D01*
X170627000Y-63033750D01*
X171370852Y-63033750D01*
X171411250Y-63037729D01*
X171451648Y-63033750D01*
X171948361Y-63033750D01*
X171988749Y-63037728D01*
X172029137Y-63033750D01*
X175097102Y-63033750D01*
X175137500Y-63037729D01*
X175177898Y-63033750D01*
X175298738Y-63021848D01*
X175453780Y-62974817D01*
X175596667Y-62898442D01*
X175683720Y-62827000D01*
X179173000Y-62827000D01*
X179173000Y-69573000D01*
M02*
