G04 #@! TF.GenerationSoftware,KiCad,Pcbnew,(5.1.6)-1*
G04 #@! TF.CreationDate,2020-07-25T12:49:49+03:00*
G04 #@! TF.ProjectId,ergo33,6572676f-3333-42e6-9b69-6361645f7063,rev?*
G04 #@! TF.SameCoordinates,Original*
G04 #@! TF.FileFunction,Soldermask,Bot*
G04 #@! TF.FilePolarity,Negative*
%FSLAX46Y46*%
G04 Gerber Fmt 4.6, Leading zero omitted, Abs format (unit mm)*
G04 Created by KiCad (PCBNEW (5.1.6)-1) date 2020-07-25 12:49:49*
%MOMM*%
%LPD*%
G01*
G04 APERTURE LIST*
%ADD10C,0.100000*%
%ADD11C,3.600000*%
%ADD12R,0.750000X1.660000*%
%ADD13R,0.700000X2.550000*%
%ADD14R,0.400000X2.550000*%
%ADD15C,0.750000*%
%ADD16C,3.100000*%
%ADD17C,4.087800*%
%ADD18C,1.850000*%
%ADD19R,2.650000X2.600000*%
%ADD20C,2.100000*%
%ADD21R,3.300000X2.100000*%
%ADD22R,2.100000X2.100000*%
%ADD23R,0.650000X1.600000*%
%ADD24R,1.600000X0.650000*%
%ADD25R,1.200000X1.900000*%
%ADD26R,1.100000X1.600000*%
%ADD27R,1.600000X1.100000*%
%ADD28R,1.800000X1.800000*%
%ADD29O,1.800000X1.800000*%
%ADD30R,1.000000X1.300000*%
%ADD31R,1.300000X1.000000*%
G04 APERTURE END LIST*
D10*
G36*
X191235777Y-65837968D02*
G01*
X189892274Y-67181471D01*
X188336639Y-65625836D01*
X189680142Y-64282333D01*
X191235777Y-65837968D01*
G37*
G36*
X189185167Y-63787358D02*
G01*
X187841664Y-65130861D01*
X186286029Y-63575226D01*
X187629532Y-62231723D01*
X189185167Y-63787358D01*
G37*
G36*
X187558821Y-65413704D02*
G01*
X186215318Y-66757207D01*
X184659683Y-65201572D01*
X186003186Y-63858069D01*
X187558821Y-65413704D01*
G37*
G36*
X189609431Y-67464314D02*
G01*
X188265928Y-68807817D01*
X186710293Y-67252182D01*
X188053796Y-65908679D01*
X189609431Y-67464314D01*
G37*
G36*
G01*
X176042544Y-46225000D02*
X177357456Y-46225000D01*
G75*
G02*
X177625000Y-46492544I0J-267544D01*
G01*
X177625000Y-47482456D01*
G75*
G02*
X177357456Y-47750000I-267544J0D01*
G01*
X176042544Y-47750000D01*
G75*
G02*
X175775000Y-47482456I0J267544D01*
G01*
X175775000Y-46492544D01*
G75*
G02*
X176042544Y-46225000I267544J0D01*
G01*
G37*
G36*
G01*
X176042544Y-43250000D02*
X177357456Y-43250000D01*
G75*
G02*
X177625000Y-43517544I0J-267544D01*
G01*
X177625000Y-44507456D01*
G75*
G02*
X177357456Y-44775000I-267544J0D01*
G01*
X176042544Y-44775000D01*
G75*
G02*
X175775000Y-44507456I0J267544D01*
G01*
X175775000Y-43517544D01*
G75*
G02*
X176042544Y-43250000I267544J0D01*
G01*
G37*
G36*
G01*
X181278262Y-33200000D02*
X180321738Y-33200000D01*
G75*
G02*
X180050000Y-32928262I0J271738D01*
G01*
X180050000Y-32221738D01*
G75*
G02*
X180321738Y-31950000I271738J0D01*
G01*
X181278262Y-31950000D01*
G75*
G02*
X181550000Y-32221738I0J-271738D01*
G01*
X181550000Y-32928262D01*
G75*
G02*
X181278262Y-33200000I-271738J0D01*
G01*
G37*
G36*
G01*
X181278262Y-35250000D02*
X180321738Y-35250000D01*
G75*
G02*
X180050000Y-34978262I0J271738D01*
G01*
X180050000Y-34271738D01*
G75*
G02*
X180321738Y-34000000I271738J0D01*
G01*
X181278262Y-34000000D01*
G75*
G02*
X181550000Y-34271738I0J-271738D01*
G01*
X181550000Y-34978262D01*
G75*
G02*
X181278262Y-35250000I-271738J0D01*
G01*
G37*
G36*
G01*
X166178262Y-33200000D02*
X165221738Y-33200000D01*
G75*
G02*
X164950000Y-32928262I0J271738D01*
G01*
X164950000Y-32221738D01*
G75*
G02*
X165221738Y-31950000I271738J0D01*
G01*
X166178262Y-31950000D01*
G75*
G02*
X166450000Y-32221738I0J-271738D01*
G01*
X166450000Y-32928262D01*
G75*
G02*
X166178262Y-33200000I-271738J0D01*
G01*
G37*
G36*
G01*
X166178262Y-35250000D02*
X165221738Y-35250000D01*
G75*
G02*
X164950000Y-34978262I0J271738D01*
G01*
X164950000Y-34271738D01*
G75*
G02*
X165221738Y-34000000I271738J0D01*
G01*
X166178262Y-34000000D01*
G75*
G02*
X166450000Y-34271738I0J-271738D01*
G01*
X166450000Y-34978262D01*
G75*
G02*
X166178262Y-35250000I-271738J0D01*
G01*
G37*
G36*
G01*
X164121738Y-72000000D02*
X165078262Y-72000000D01*
G75*
G02*
X165350000Y-72271738I0J-271738D01*
G01*
X165350000Y-72978262D01*
G75*
G02*
X165078262Y-73250000I-271738J0D01*
G01*
X164121738Y-73250000D01*
G75*
G02*
X163850000Y-72978262I0J271738D01*
G01*
X163850000Y-72271738D01*
G75*
G02*
X164121738Y-72000000I271738J0D01*
G01*
G37*
G36*
G01*
X164121738Y-69950000D02*
X165078262Y-69950000D01*
G75*
G02*
X165350000Y-70221738I0J-271738D01*
G01*
X165350000Y-70928262D01*
G75*
G02*
X165078262Y-71200000I-271738J0D01*
G01*
X164121738Y-71200000D01*
G75*
G02*
X163850000Y-70928262I0J271738D01*
G01*
X163850000Y-70221738D01*
G75*
G02*
X164121738Y-69950000I271738J0D01*
G01*
G37*
G36*
G01*
X172278262Y-50600000D02*
X171321738Y-50600000D01*
G75*
G02*
X171050000Y-50328262I0J271738D01*
G01*
X171050000Y-49621738D01*
G75*
G02*
X171321738Y-49350000I271738J0D01*
G01*
X172278262Y-49350000D01*
G75*
G02*
X172550000Y-49621738I0J-271738D01*
G01*
X172550000Y-50328262D01*
G75*
G02*
X172278262Y-50600000I-271738J0D01*
G01*
G37*
G36*
G01*
X172278262Y-52650000D02*
X171321738Y-52650000D01*
G75*
G02*
X171050000Y-52378262I0J271738D01*
G01*
X171050000Y-51671738D01*
G75*
G02*
X171321738Y-51400000I271738J0D01*
G01*
X172278262Y-51400000D01*
G75*
G02*
X172550000Y-51671738I0J-271738D01*
G01*
X172550000Y-52378262D01*
G75*
G02*
X172278262Y-52650000I-271738J0D01*
G01*
G37*
G36*
G01*
X168978262Y-50600000D02*
X168021738Y-50600000D01*
G75*
G02*
X167750000Y-50328262I0J271738D01*
G01*
X167750000Y-49621738D01*
G75*
G02*
X168021738Y-49350000I271738J0D01*
G01*
X168978262Y-49350000D01*
G75*
G02*
X169250000Y-49621738I0J-271738D01*
G01*
X169250000Y-50328262D01*
G75*
G02*
X168978262Y-50600000I-271738J0D01*
G01*
G37*
G36*
G01*
X168978262Y-52650000D02*
X168021738Y-52650000D01*
G75*
G02*
X167750000Y-52378262I0J271738D01*
G01*
X167750000Y-51671738D01*
G75*
G02*
X168021738Y-51400000I271738J0D01*
G01*
X168978262Y-51400000D01*
G75*
G02*
X169250000Y-51671738I0J-271738D01*
G01*
X169250000Y-52378262D01*
G75*
G02*
X168978262Y-52650000I-271738J0D01*
G01*
G37*
G36*
G01*
X183778262Y-54800000D02*
X182821738Y-54800000D01*
G75*
G02*
X182550000Y-54528262I0J271738D01*
G01*
X182550000Y-53821738D01*
G75*
G02*
X182821738Y-53550000I271738J0D01*
G01*
X183778262Y-53550000D01*
G75*
G02*
X184050000Y-53821738I0J-271738D01*
G01*
X184050000Y-54528262D01*
G75*
G02*
X183778262Y-54800000I-271738J0D01*
G01*
G37*
G36*
G01*
X183778262Y-56850000D02*
X182821738Y-56850000D01*
G75*
G02*
X182550000Y-56578262I0J271738D01*
G01*
X182550000Y-55871738D01*
G75*
G02*
X182821738Y-55600000I271738J0D01*
G01*
X183778262Y-55600000D01*
G75*
G02*
X184050000Y-55871738I0J-271738D01*
G01*
X184050000Y-56578262D01*
G75*
G02*
X183778262Y-56850000I-271738J0D01*
G01*
G37*
G36*
G01*
X148921738Y-46600000D02*
X149878262Y-46600000D01*
G75*
G02*
X150150000Y-46871738I0J-271738D01*
G01*
X150150000Y-47578262D01*
G75*
G02*
X149878262Y-47850000I-271738J0D01*
G01*
X148921738Y-47850000D01*
G75*
G02*
X148650000Y-47578262I0J271738D01*
G01*
X148650000Y-46871738D01*
G75*
G02*
X148921738Y-46600000I271738J0D01*
G01*
G37*
G36*
G01*
X148921738Y-44550000D02*
X149878262Y-44550000D01*
G75*
G02*
X150150000Y-44821738I0J-271738D01*
G01*
X150150000Y-45528262D01*
G75*
G02*
X149878262Y-45800000I-271738J0D01*
G01*
X148921738Y-45800000D01*
G75*
G02*
X148650000Y-45528262I0J271738D01*
G01*
X148650000Y-44821738D01*
G75*
G02*
X148921738Y-44550000I271738J0D01*
G01*
G37*
G36*
G01*
X174078262Y-43900000D02*
X173121738Y-43900000D01*
G75*
G02*
X172850000Y-43628262I0J271738D01*
G01*
X172850000Y-42921738D01*
G75*
G02*
X173121738Y-42650000I271738J0D01*
G01*
X174078262Y-42650000D01*
G75*
G02*
X174350000Y-42921738I0J-271738D01*
G01*
X174350000Y-43628262D01*
G75*
G02*
X174078262Y-43900000I-271738J0D01*
G01*
G37*
G36*
G01*
X174078262Y-45950000D02*
X173121738Y-45950000D01*
G75*
G02*
X172850000Y-45678262I0J271738D01*
G01*
X172850000Y-44971738D01*
G75*
G02*
X173121738Y-44700000I271738J0D01*
G01*
X174078262Y-44700000D01*
G75*
G02*
X174350000Y-44971738I0J-271738D01*
G01*
X174350000Y-45678262D01*
G75*
G02*
X174078262Y-45950000I-271738J0D01*
G01*
G37*
G36*
G01*
X186062500Y-39721738D02*
X186062500Y-40678262D01*
G75*
G02*
X185790762Y-40950000I-271738J0D01*
G01*
X185084238Y-40950000D01*
G75*
G02*
X184812500Y-40678262I0J271738D01*
G01*
X184812500Y-39721738D01*
G75*
G02*
X185084238Y-39450000I271738J0D01*
G01*
X185790762Y-39450000D01*
G75*
G02*
X186062500Y-39721738I0J-271738D01*
G01*
G37*
G36*
G01*
X188112500Y-39721738D02*
X188112500Y-40678262D01*
G75*
G02*
X187840762Y-40950000I-271738J0D01*
G01*
X187134238Y-40950000D01*
G75*
G02*
X186862500Y-40678262I0J271738D01*
G01*
X186862500Y-39721738D01*
G75*
G02*
X187134238Y-39450000I271738J0D01*
G01*
X187840762Y-39450000D01*
G75*
G02*
X188112500Y-39721738I0J-271738D01*
G01*
G37*
G36*
G01*
X175878262Y-56400000D02*
X174921738Y-56400000D01*
G75*
G02*
X174650000Y-56128262I0J271738D01*
G01*
X174650000Y-55421738D01*
G75*
G02*
X174921738Y-55150000I271738J0D01*
G01*
X175878262Y-55150000D01*
G75*
G02*
X176150000Y-55421738I0J-271738D01*
G01*
X176150000Y-56128262D01*
G75*
G02*
X175878262Y-56400000I-271738J0D01*
G01*
G37*
G36*
G01*
X175878262Y-58450000D02*
X174921738Y-58450000D01*
G75*
G02*
X174650000Y-58178262I0J271738D01*
G01*
X174650000Y-57471738D01*
G75*
G02*
X174921738Y-57200000I271738J0D01*
G01*
X175878262Y-57200000D01*
G75*
G02*
X176150000Y-57471738I0J-271738D01*
G01*
X176150000Y-58178262D01*
G75*
G02*
X175878262Y-58450000I-271738J0D01*
G01*
G37*
G36*
G01*
X165100000Y-58021738D02*
X165100000Y-58978262D01*
G75*
G02*
X164828262Y-59250000I-271738J0D01*
G01*
X164121738Y-59250000D01*
G75*
G02*
X163850000Y-58978262I0J271738D01*
G01*
X163850000Y-58021738D01*
G75*
G02*
X164121738Y-57750000I271738J0D01*
G01*
X164828262Y-57750000D01*
G75*
G02*
X165100000Y-58021738I0J-271738D01*
G01*
G37*
G36*
G01*
X167150000Y-58021738D02*
X167150000Y-58978262D01*
G75*
G02*
X166878262Y-59250000I-271738J0D01*
G01*
X166171738Y-59250000D01*
G75*
G02*
X165900000Y-58978262I0J271738D01*
G01*
X165900000Y-58021738D01*
G75*
G02*
X166171738Y-57750000I271738J0D01*
G01*
X166878262Y-57750000D01*
G75*
G02*
X167150000Y-58021738I0J-271738D01*
G01*
G37*
G36*
G01*
X179500000Y-56578262D02*
X179500000Y-55621738D01*
G75*
G02*
X179771738Y-55350000I271738J0D01*
G01*
X180478262Y-55350000D01*
G75*
G02*
X180750000Y-55621738I0J-271738D01*
G01*
X180750000Y-56578262D01*
G75*
G02*
X180478262Y-56850000I-271738J0D01*
G01*
X179771738Y-56850000D01*
G75*
G02*
X179500000Y-56578262I0J271738D01*
G01*
G37*
G36*
G01*
X177450000Y-56578262D02*
X177450000Y-55621738D01*
G75*
G02*
X177721738Y-55350000I271738J0D01*
G01*
X178428262Y-55350000D01*
G75*
G02*
X178700000Y-55621738I0J-271738D01*
G01*
X178700000Y-56578262D01*
G75*
G02*
X178428262Y-56850000I-271738J0D01*
G01*
X177721738Y-56850000D01*
G75*
G02*
X177450000Y-56578262I0J271738D01*
G01*
G37*
G36*
G01*
X158700000Y-79921738D02*
X158700000Y-80878262D01*
G75*
G02*
X158428262Y-81150000I-271738J0D01*
G01*
X157721738Y-81150000D01*
G75*
G02*
X157450000Y-80878262I0J271738D01*
G01*
X157450000Y-79921738D01*
G75*
G02*
X157721738Y-79650000I271738J0D01*
G01*
X158428262Y-79650000D01*
G75*
G02*
X158700000Y-79921738I0J-271738D01*
G01*
G37*
G36*
G01*
X160750000Y-79921738D02*
X160750000Y-80878262D01*
G75*
G02*
X160478262Y-81150000I-271738J0D01*
G01*
X159771738Y-81150000D01*
G75*
G02*
X159500000Y-80878262I0J271738D01*
G01*
X159500000Y-79921738D01*
G75*
G02*
X159771738Y-79650000I271738J0D01*
G01*
X160478262Y-79650000D01*
G75*
G02*
X160750000Y-79921738I0J-271738D01*
G01*
G37*
G36*
G01*
X156100000Y-101121738D02*
X156100000Y-102078262D01*
G75*
G02*
X155828262Y-102350000I-271738J0D01*
G01*
X155121738Y-102350000D01*
G75*
G02*
X154850000Y-102078262I0J271738D01*
G01*
X154850000Y-101121738D01*
G75*
G02*
X155121738Y-100850000I271738J0D01*
G01*
X155828262Y-100850000D01*
G75*
G02*
X156100000Y-101121738I0J-271738D01*
G01*
G37*
G36*
G01*
X158150000Y-101121738D02*
X158150000Y-102078262D01*
G75*
G02*
X157878262Y-102350000I-271738J0D01*
G01*
X157171738Y-102350000D01*
G75*
G02*
X156900000Y-102078262I0J271738D01*
G01*
X156900000Y-101121738D01*
G75*
G02*
X157171738Y-100850000I271738J0D01*
G01*
X157878262Y-100850000D01*
G75*
G02*
X158150000Y-101121738I0J-271738D01*
G01*
G37*
G36*
G01*
X124778262Y-103200000D02*
X123821738Y-103200000D01*
G75*
G02*
X123550000Y-102928262I0J271738D01*
G01*
X123550000Y-102221738D01*
G75*
G02*
X123821738Y-101950000I271738J0D01*
G01*
X124778262Y-101950000D01*
G75*
G02*
X125050000Y-102221738I0J-271738D01*
G01*
X125050000Y-102928262D01*
G75*
G02*
X124778262Y-103200000I-271738J0D01*
G01*
G37*
G36*
G01*
X124778262Y-105250000D02*
X123821738Y-105250000D01*
G75*
G02*
X123550000Y-104978262I0J271738D01*
G01*
X123550000Y-104271738D01*
G75*
G02*
X123821738Y-104000000I271738J0D01*
G01*
X124778262Y-104000000D01*
G75*
G02*
X125050000Y-104271738I0J-271738D01*
G01*
X125050000Y-104978262D01*
G75*
G02*
X124778262Y-105250000I-271738J0D01*
G01*
G37*
G36*
G01*
X86678262Y-101000000D02*
X85721738Y-101000000D01*
G75*
G02*
X85450000Y-100728262I0J271738D01*
G01*
X85450000Y-100021738D01*
G75*
G02*
X85721738Y-99750000I271738J0D01*
G01*
X86678262Y-99750000D01*
G75*
G02*
X86950000Y-100021738I0J-271738D01*
G01*
X86950000Y-100728262D01*
G75*
G02*
X86678262Y-101000000I-271738J0D01*
G01*
G37*
G36*
G01*
X86678262Y-103050000D02*
X85721738Y-103050000D01*
G75*
G02*
X85450000Y-102778262I0J271738D01*
G01*
X85450000Y-102071738D01*
G75*
G02*
X85721738Y-101800000I271738J0D01*
G01*
X86678262Y-101800000D01*
G75*
G02*
X86950000Y-102071738I0J-271738D01*
G01*
X86950000Y-102778262D01*
G75*
G02*
X86678262Y-103050000I-271738J0D01*
G01*
G37*
G36*
G01*
X48478262Y-92200000D02*
X47521738Y-92200000D01*
G75*
G02*
X47250000Y-91928262I0J271738D01*
G01*
X47250000Y-91221738D01*
G75*
G02*
X47521738Y-90950000I271738J0D01*
G01*
X48478262Y-90950000D01*
G75*
G02*
X48750000Y-91221738I0J-271738D01*
G01*
X48750000Y-91928262D01*
G75*
G02*
X48478262Y-92200000I-271738J0D01*
G01*
G37*
G36*
G01*
X48478262Y-94250000D02*
X47521738Y-94250000D01*
G75*
G02*
X47250000Y-93978262I0J271738D01*
G01*
X47250000Y-93271738D01*
G75*
G02*
X47521738Y-93000000I271738J0D01*
G01*
X48478262Y-93000000D01*
G75*
G02*
X48750000Y-93271738I0J-271738D01*
G01*
X48750000Y-93978262D01*
G75*
G02*
X48478262Y-94250000I-271738J0D01*
G01*
G37*
G36*
G01*
X46521738Y-76200000D02*
X47478262Y-76200000D01*
G75*
G02*
X47750000Y-76471738I0J-271738D01*
G01*
X47750000Y-77178262D01*
G75*
G02*
X47478262Y-77450000I-271738J0D01*
G01*
X46521738Y-77450000D01*
G75*
G02*
X46250000Y-77178262I0J271738D01*
G01*
X46250000Y-76471738D01*
G75*
G02*
X46521738Y-76200000I271738J0D01*
G01*
G37*
G36*
G01*
X46521738Y-74150000D02*
X47478262Y-74150000D01*
G75*
G02*
X47750000Y-74421738I0J-271738D01*
G01*
X47750000Y-75128262D01*
G75*
G02*
X47478262Y-75400000I-271738J0D01*
G01*
X46521738Y-75400000D01*
G75*
G02*
X46250000Y-75128262I0J271738D01*
G01*
X46250000Y-74421738D01*
G75*
G02*
X46521738Y-74150000I271738J0D01*
G01*
G37*
G36*
G01*
X46521738Y-38000000D02*
X47478262Y-38000000D01*
G75*
G02*
X47750000Y-38271738I0J-271738D01*
G01*
X47750000Y-38978262D01*
G75*
G02*
X47478262Y-39250000I-271738J0D01*
G01*
X46521738Y-39250000D01*
G75*
G02*
X46250000Y-38978262I0J271738D01*
G01*
X46250000Y-38271738D01*
G75*
G02*
X46521738Y-38000000I271738J0D01*
G01*
G37*
G36*
G01*
X46521738Y-35950000D02*
X47478262Y-35950000D01*
G75*
G02*
X47750000Y-36221738I0J-271738D01*
G01*
X47750000Y-36928262D01*
G75*
G02*
X47478262Y-37200000I-271738J0D01*
G01*
X46521738Y-37200000D01*
G75*
G02*
X46250000Y-36928262I0J271738D01*
G01*
X46250000Y-36221738D01*
G75*
G02*
X46521738Y-35950000I271738J0D01*
G01*
G37*
G36*
G01*
X75221738Y-44500000D02*
X76178262Y-44500000D01*
G75*
G02*
X76450000Y-44771738I0J-271738D01*
G01*
X76450000Y-45478262D01*
G75*
G02*
X76178262Y-45750000I-271738J0D01*
G01*
X75221738Y-45750000D01*
G75*
G02*
X74950000Y-45478262I0J271738D01*
G01*
X74950000Y-44771738D01*
G75*
G02*
X75221738Y-44500000I271738J0D01*
G01*
G37*
G36*
G01*
X75221738Y-42450000D02*
X76178262Y-42450000D01*
G75*
G02*
X76450000Y-42721738I0J-271738D01*
G01*
X76450000Y-43428262D01*
G75*
G02*
X76178262Y-43700000I-271738J0D01*
G01*
X75221738Y-43700000D01*
G75*
G02*
X74950000Y-43428262I0J271738D01*
G01*
X74950000Y-42721738D01*
G75*
G02*
X75221738Y-42450000I271738J0D01*
G01*
G37*
G36*
G01*
X113321738Y-44500000D02*
X114278262Y-44500000D01*
G75*
G02*
X114550000Y-44771738I0J-271738D01*
G01*
X114550000Y-45478262D01*
G75*
G02*
X114278262Y-45750000I-271738J0D01*
G01*
X113321738Y-45750000D01*
G75*
G02*
X113050000Y-45478262I0J271738D01*
G01*
X113050000Y-44771738D01*
G75*
G02*
X113321738Y-44500000I271738J0D01*
G01*
G37*
G36*
G01*
X113321738Y-42450000D02*
X114278262Y-42450000D01*
G75*
G02*
X114550000Y-42721738I0J-271738D01*
G01*
X114550000Y-43428262D01*
G75*
G02*
X114278262Y-43700000I-271738J0D01*
G01*
X113321738Y-43700000D01*
G75*
G02*
X113050000Y-43428262I0J271738D01*
G01*
X113050000Y-42721738D01*
G75*
G02*
X113321738Y-42450000I271738J0D01*
G01*
G37*
G36*
G01*
X178100000Y-51378262D02*
X178100000Y-50421738D01*
G75*
G02*
X178371738Y-50150000I271738J0D01*
G01*
X179078262Y-50150000D01*
G75*
G02*
X179350000Y-50421738I0J-271738D01*
G01*
X179350000Y-51378262D01*
G75*
G02*
X179078262Y-51650000I-271738J0D01*
G01*
X178371738Y-51650000D01*
G75*
G02*
X178100000Y-51378262I0J271738D01*
G01*
G37*
G36*
G01*
X176050000Y-51378262D02*
X176050000Y-50421738D01*
G75*
G02*
X176321738Y-50150000I271738J0D01*
G01*
X177028262Y-50150000D01*
G75*
G02*
X177300000Y-50421738I0J-271738D01*
G01*
X177300000Y-51378262D01*
G75*
G02*
X177028262Y-51650000I-271738J0D01*
G01*
X176321738Y-51650000D01*
G75*
G02*
X176050000Y-51378262I0J271738D01*
G01*
G37*
G36*
G01*
X180100000Y-76478262D02*
X180100000Y-75521738D01*
G75*
G02*
X180371738Y-75250000I271738J0D01*
G01*
X181078262Y-75250000D01*
G75*
G02*
X181350000Y-75521738I0J-271738D01*
G01*
X181350000Y-76478262D01*
G75*
G02*
X181078262Y-76750000I-271738J0D01*
G01*
X180371738Y-76750000D01*
G75*
G02*
X180100000Y-76478262I0J271738D01*
G01*
G37*
G36*
G01*
X178050000Y-76478262D02*
X178050000Y-75521738D01*
G75*
G02*
X178321738Y-75250000I271738J0D01*
G01*
X179028262Y-75250000D01*
G75*
G02*
X179300000Y-75521738I0J-271738D01*
G01*
X179300000Y-76478262D01*
G75*
G02*
X179028262Y-76750000I-271738J0D01*
G01*
X178321738Y-76750000D01*
G75*
G02*
X178050000Y-76478262I0J271738D01*
G01*
G37*
G36*
G01*
X188078262Y-54800000D02*
X187121738Y-54800000D01*
G75*
G02*
X186850000Y-54528262I0J271738D01*
G01*
X186850000Y-53821738D01*
G75*
G02*
X187121738Y-53550000I271738J0D01*
G01*
X188078262Y-53550000D01*
G75*
G02*
X188350000Y-53821738I0J-271738D01*
G01*
X188350000Y-54528262D01*
G75*
G02*
X188078262Y-54800000I-271738J0D01*
G01*
G37*
G36*
G01*
X188078262Y-56850000D02*
X187121738Y-56850000D01*
G75*
G02*
X186850000Y-56578262I0J271738D01*
G01*
X186850000Y-55871738D01*
G75*
G02*
X187121738Y-55600000I271738J0D01*
G01*
X188078262Y-55600000D01*
G75*
G02*
X188350000Y-55871738I0J-271738D01*
G01*
X188350000Y-56578262D01*
G75*
G02*
X188078262Y-56850000I-271738J0D01*
G01*
G37*
G36*
G01*
X187200000Y-59921738D02*
X187200000Y-60878262D01*
G75*
G02*
X186928262Y-61150000I-271738J0D01*
G01*
X186221738Y-61150000D01*
G75*
G02*
X185950000Y-60878262I0J271738D01*
G01*
X185950000Y-59921738D01*
G75*
G02*
X186221738Y-59650000I271738J0D01*
G01*
X186928262Y-59650000D01*
G75*
G02*
X187200000Y-59921738I0J-271738D01*
G01*
G37*
G36*
G01*
X189250000Y-59921738D02*
X189250000Y-60878262D01*
G75*
G02*
X188978262Y-61150000I-271738J0D01*
G01*
X188271738Y-61150000D01*
G75*
G02*
X188000000Y-60878262I0J271738D01*
G01*
X188000000Y-59921738D01*
G75*
G02*
X188271738Y-59650000I271738J0D01*
G01*
X188978262Y-59650000D01*
G75*
G02*
X189250000Y-59921738I0J-271738D01*
G01*
G37*
G36*
G01*
X187200000Y-69721738D02*
X187200000Y-70678262D01*
G75*
G02*
X186928262Y-70950000I-271738J0D01*
G01*
X186221738Y-70950000D01*
G75*
G02*
X185950000Y-70678262I0J271738D01*
G01*
X185950000Y-69721738D01*
G75*
G02*
X186221738Y-69450000I271738J0D01*
G01*
X186928262Y-69450000D01*
G75*
G02*
X187200000Y-69721738I0J-271738D01*
G01*
G37*
G36*
G01*
X189250000Y-69721738D02*
X189250000Y-70678262D01*
G75*
G02*
X188978262Y-70950000I-271738J0D01*
G01*
X188271738Y-70950000D01*
G75*
G02*
X188000000Y-70678262I0J271738D01*
G01*
X188000000Y-69721738D01*
G75*
G02*
X188271738Y-69450000I271738J0D01*
G01*
X188978262Y-69450000D01*
G75*
G02*
X189250000Y-69721738I0J-271738D01*
G01*
G37*
D11*
X159800000Y-32800000D03*
X126100000Y-67400000D03*
X101600000Y-26000000D03*
X66700000Y-24000000D03*
X69200000Y-64300000D03*
X31100000Y-37800000D03*
X31050000Y-94950000D03*
X66700000Y-110400000D03*
X104200000Y-120500000D03*
X173900000Y-120000000D03*
X192250000Y-94790000D03*
X187600000Y-33700000D03*
D12*
X170200000Y-41950000D03*
X171150000Y-41950000D03*
X169250000Y-41950000D03*
X169250000Y-44650000D03*
X170200000Y-44650000D03*
X171150000Y-44650000D03*
D13*
X176479999Y-34895000D03*
X170029999Y-34895000D03*
X175704999Y-34895000D03*
X170804999Y-34895000D03*
D14*
X171504999Y-34895000D03*
X175004999Y-34895000D03*
X172004999Y-34895000D03*
X174504999Y-34895000D03*
X172504999Y-34895000D03*
X174004999Y-34895000D03*
X173504999Y-34895000D03*
X173004999Y-34895000D03*
D15*
X176144999Y-32950000D03*
X170364999Y-32950000D03*
D16*
X150177500Y-51607500D03*
D17*
X147637500Y-56687500D03*
D16*
X143827500Y-54147500D03*
D18*
X142557500Y-56687500D03*
X152717500Y-56687500D03*
D19*
X140552500Y-54147500D03*
X153479500Y-51607500D03*
D16*
X54927500Y-42257500D03*
D17*
X52387500Y-47337500D03*
D16*
X48577500Y-44797500D03*
D18*
X47307500Y-47337500D03*
X57467500Y-47337500D03*
D19*
X45302500Y-44797500D03*
X58229500Y-42257500D03*
D16*
X112077500Y-49457500D03*
D17*
X109537500Y-54537500D03*
D16*
X105727500Y-51997500D03*
D18*
X104457500Y-54537500D03*
X114617500Y-54537500D03*
D19*
X102452500Y-51997500D03*
X115379500Y-49457500D03*
D16*
X73977500Y-68507500D03*
D17*
X71437500Y-73587500D03*
D16*
X67627500Y-71047500D03*
D18*
X66357500Y-73587500D03*
X76517500Y-73587500D03*
D19*
X64352500Y-71047500D03*
X77279500Y-68507500D03*
D20*
X170667500Y-92291250D03*
X170667500Y-97291250D03*
D21*
X177667500Y-89191250D03*
X177667500Y-100391250D03*
D20*
X185167500Y-92291250D03*
X185167500Y-94791250D03*
D22*
X185167500Y-97291250D03*
D23*
X170912500Y-60511250D03*
X171712500Y-60511250D03*
X172512500Y-60511250D03*
X173312500Y-60511250D03*
X174112500Y-60511250D03*
X174912500Y-60511250D03*
X175712500Y-60511250D03*
X176512500Y-60511250D03*
X177312500Y-60511250D03*
X178112500Y-60511250D03*
X178912500Y-60511250D03*
D24*
X180612500Y-62211250D03*
X180612500Y-63011250D03*
X180612500Y-63811250D03*
X180612500Y-64611250D03*
X180612500Y-65411250D03*
X180612500Y-66211250D03*
X180612500Y-67011250D03*
X180612500Y-67811250D03*
X180612500Y-68611250D03*
X180612500Y-69411250D03*
X180612500Y-70211250D03*
D23*
X178912500Y-71911250D03*
X178112500Y-71911250D03*
X177312500Y-71911250D03*
X176512500Y-71911250D03*
X175712500Y-71911250D03*
X174912500Y-71911250D03*
X174112500Y-71911250D03*
X173312500Y-71911250D03*
X172512500Y-71911250D03*
X171712500Y-71911250D03*
X170912500Y-71911250D03*
D24*
X169212500Y-70211250D03*
X169212500Y-69411250D03*
X169212500Y-68611250D03*
X169212500Y-67811250D03*
X169212500Y-67011250D03*
X169212500Y-66211250D03*
X169212500Y-65411250D03*
X169212500Y-64611250D03*
X169212500Y-63811250D03*
X169212500Y-63011250D03*
X169212500Y-62211250D03*
D25*
X183150000Y-43400000D03*
X186850000Y-49600000D03*
X186850000Y-43400000D03*
X183150000Y-49600000D03*
D16*
X161752002Y-120069247D03*
D17*
X157983750Y-124318750D03*
D16*
X154960973Y-120879198D03*
D18*
X153076847Y-123003949D03*
X162890653Y-125633551D03*
D10*
G36*
X150181250Y-120944333D02*
G01*
X150854179Y-118432926D01*
X153413882Y-119118797D01*
X152740953Y-121630204D01*
X150181250Y-120944333D01*
G37*
G36*
X163325173Y-121836636D02*
G01*
X163998102Y-119325229D01*
X166557805Y-120011100D01*
X165884876Y-122522507D01*
X163325173Y-121836636D01*
G37*
D16*
X143352002Y-115137997D03*
D17*
X139583750Y-119387500D03*
D16*
X136560973Y-115947948D03*
D18*
X134676847Y-118072699D03*
X144490653Y-120702301D03*
D10*
G36*
X131781250Y-116013083D02*
G01*
X132454179Y-113501676D01*
X135013882Y-114187547D01*
X134340953Y-116698954D01*
X131781250Y-116013083D01*
G37*
G36*
X144925173Y-116905386D02*
G01*
X145598102Y-114393979D01*
X148157805Y-115079850D01*
X147484876Y-117591257D01*
X144925173Y-116905386D01*
G37*
D16*
X122446044Y-114225743D03*
D17*
X119062500Y-118787500D03*
D16*
X115751449Y-115624489D03*
D18*
X114059677Y-117905367D03*
X124065323Y-119669633D03*
D10*
G36*
X110995590Y-116105957D02*
G01*
X111447075Y-113545457D01*
X114056816Y-114005625D01*
X113605331Y-116566125D01*
X110995590Y-116105957D01*
G37*
G36*
X124167267Y-115849295D02*
G01*
X124618752Y-113288795D01*
X127228493Y-113748963D01*
X126777008Y-116309463D01*
X124167267Y-115849295D01*
G37*
D16*
X54927500Y-99407500D03*
D17*
X52387500Y-104487500D03*
D16*
X48577500Y-101947500D03*
D18*
X47307500Y-104487500D03*
X57467500Y-104487500D03*
D19*
X45302500Y-101947500D03*
X58229500Y-99407500D03*
D16*
X35877500Y-99407500D03*
D17*
X33337500Y-104487500D03*
D16*
X29527500Y-101947500D03*
D18*
X28257500Y-104487500D03*
X38417500Y-104487500D03*
D19*
X26252500Y-101947500D03*
X39179500Y-99407500D03*
D16*
X150177500Y-89707500D03*
D17*
X147637500Y-94787500D03*
D16*
X143827500Y-92247500D03*
D18*
X142557500Y-94787500D03*
X152717500Y-94787500D03*
D19*
X140552500Y-92247500D03*
X153479500Y-89707500D03*
D16*
X131127500Y-89707500D03*
D17*
X128587500Y-94787500D03*
D16*
X124777500Y-92247500D03*
D18*
X123507500Y-94787500D03*
X133667500Y-94787500D03*
D19*
X121502500Y-92247500D03*
X134429500Y-89707500D03*
D16*
X112077500Y-87557500D03*
D17*
X109537500Y-92637500D03*
D16*
X105727500Y-90097500D03*
D18*
X104457500Y-92637500D03*
X114617500Y-92637500D03*
D19*
X102452500Y-90097500D03*
X115379500Y-87557500D03*
D16*
X93027500Y-85407500D03*
D17*
X90487500Y-90487500D03*
D16*
X86677500Y-87947500D03*
D18*
X85407500Y-90487500D03*
X95567500Y-90487500D03*
D19*
X83402500Y-87947500D03*
X96329500Y-85407500D03*
D16*
X73977500Y-87557500D03*
D17*
X71437500Y-92637500D03*
D16*
X67627500Y-90097500D03*
D18*
X66357500Y-92637500D03*
X76517500Y-92637500D03*
D19*
X64352500Y-90097500D03*
X77279500Y-87557500D03*
D16*
X54927500Y-80357500D03*
D17*
X52387500Y-85437500D03*
D16*
X48577500Y-82897500D03*
D18*
X47307500Y-85437500D03*
X57467500Y-85437500D03*
D19*
X45302500Y-82897500D03*
X58229500Y-80357500D03*
D16*
X35877500Y-80357500D03*
D17*
X33337500Y-85437500D03*
D16*
X29527500Y-82897500D03*
D18*
X28257500Y-85437500D03*
X38417500Y-85437500D03*
D19*
X26252500Y-82897500D03*
X39179500Y-80357500D03*
D16*
X150177500Y-70657500D03*
D17*
X147637500Y-75737500D03*
D16*
X143827500Y-73197500D03*
D18*
X142557500Y-75737500D03*
X152717500Y-75737500D03*
D19*
X140552500Y-73197500D03*
X153479500Y-70657500D03*
D16*
X131127500Y-70657500D03*
D17*
X128587500Y-75737500D03*
D16*
X124777500Y-73197500D03*
D18*
X123507500Y-75737500D03*
X133667500Y-75737500D03*
D19*
X121502500Y-73197500D03*
X134429500Y-70657500D03*
D16*
X112077500Y-68507500D03*
D17*
X109537500Y-73587500D03*
D16*
X105727500Y-71047500D03*
D18*
X104457500Y-73587500D03*
X114617500Y-73587500D03*
D19*
X102452500Y-71047500D03*
X115379500Y-68507500D03*
D16*
X93027500Y-66357500D03*
D17*
X90487500Y-71437500D03*
D16*
X86677500Y-68897500D03*
D18*
X85407500Y-71437500D03*
X95567500Y-71437500D03*
D19*
X83402500Y-68897500D03*
X96329500Y-66357500D03*
D16*
X54927500Y-61307500D03*
D17*
X52387500Y-66387500D03*
D16*
X48577500Y-63847500D03*
D18*
X47307500Y-66387500D03*
X57467500Y-66387500D03*
D19*
X45302500Y-63847500D03*
X58229500Y-61307500D03*
D16*
X35877500Y-61307500D03*
D17*
X33337500Y-66387500D03*
D16*
X29527500Y-63847500D03*
D18*
X28257500Y-66387500D03*
X38417500Y-66387500D03*
D19*
X26252500Y-63847500D03*
X39179500Y-61307500D03*
D16*
X131127500Y-51607500D03*
D17*
X128587500Y-56687500D03*
D16*
X124777500Y-54147500D03*
D18*
X123507500Y-56687500D03*
X133667500Y-56687500D03*
D19*
X121502500Y-54147500D03*
X134429500Y-51607500D03*
D16*
X93027500Y-47307500D03*
D17*
X90487500Y-52387500D03*
D16*
X86677500Y-49847500D03*
D18*
X85407500Y-52387500D03*
X95567500Y-52387500D03*
D19*
X83402500Y-49847500D03*
X96329500Y-47307500D03*
D16*
X73977500Y-49457500D03*
D17*
X71437500Y-54537500D03*
D16*
X67627500Y-51997500D03*
D18*
X66357500Y-54537500D03*
X76517500Y-54537500D03*
D19*
X64352500Y-51997500D03*
X77279500Y-49457500D03*
D16*
X35877500Y-42257500D03*
D17*
X33337500Y-47337500D03*
D16*
X29527500Y-44797500D03*
D18*
X28257500Y-47337500D03*
X38417500Y-47337500D03*
D19*
X26252500Y-44797500D03*
X39179500Y-42257500D03*
D16*
X150177500Y-32557500D03*
D17*
X147637500Y-37637500D03*
D16*
X143827500Y-35097500D03*
D18*
X142557500Y-37637500D03*
X152717500Y-37637500D03*
D19*
X140552500Y-35097500D03*
X153479500Y-32557500D03*
D16*
X131127500Y-32557500D03*
D17*
X128587500Y-37637500D03*
D16*
X124777500Y-35097500D03*
D18*
X123507500Y-37637500D03*
X133667500Y-37637500D03*
D19*
X121502500Y-35097500D03*
X134429500Y-32557500D03*
D16*
X112077500Y-30407500D03*
D17*
X109537500Y-35487500D03*
D16*
X105727500Y-32947500D03*
D18*
X104457500Y-35487500D03*
X114617500Y-35487500D03*
D19*
X102452500Y-32947500D03*
X115379500Y-30407500D03*
D16*
X93027500Y-28257500D03*
D17*
X90487500Y-33337500D03*
D16*
X86677500Y-30797500D03*
D18*
X85407500Y-33337500D03*
X95567500Y-33337500D03*
D19*
X83402500Y-30797500D03*
X96329500Y-28257500D03*
D16*
X73977500Y-30407500D03*
D17*
X71437500Y-35487500D03*
D16*
X67627500Y-32947500D03*
D18*
X66357500Y-35487500D03*
X76517500Y-35487500D03*
D19*
X64352500Y-32947500D03*
X77279500Y-30407500D03*
D16*
X54927500Y-23207500D03*
D17*
X52387500Y-28287500D03*
D16*
X48577500Y-25747500D03*
D18*
X47307500Y-28287500D03*
X57467500Y-28287500D03*
D19*
X45302500Y-25747500D03*
X58229500Y-23207500D03*
D16*
X35877500Y-23207500D03*
D17*
X33337500Y-28287500D03*
D16*
X29527500Y-25747500D03*
D18*
X28257500Y-28287500D03*
X38417500Y-28287500D03*
D19*
X26252500Y-25747500D03*
X39179500Y-23207500D03*
D26*
X158200000Y-83207000D03*
X161400000Y-83207000D03*
X158200000Y-88107000D03*
X161400000Y-88107000D03*
X155600000Y-104381250D03*
X158800000Y-104381250D03*
X155600000Y-109281250D03*
X158800000Y-109281250D03*
D27*
X121512500Y-102737500D03*
X121512500Y-105937500D03*
X116612500Y-102737500D03*
X116612500Y-105937500D03*
X83387500Y-100500000D03*
X83387500Y-103700000D03*
X78487500Y-100500000D03*
X78487500Y-103700000D03*
X45312500Y-91700000D03*
X45312500Y-94900000D03*
X40412500Y-91700000D03*
X40412500Y-94900000D03*
D26*
X44500000Y-76450000D03*
X41300000Y-76450000D03*
X44500000Y-71550000D03*
X41300000Y-71550000D03*
X44500000Y-38250000D03*
X41300000Y-38250000D03*
X44500000Y-33350000D03*
X41300000Y-33350000D03*
D27*
X78512500Y-45000000D03*
X78512500Y-41800000D03*
X83412500Y-45000000D03*
X83412500Y-41800000D03*
X116612500Y-45000000D03*
X116612500Y-41800000D03*
X121512500Y-45000000D03*
X121512500Y-41800000D03*
X152200000Y-47118750D03*
X152200000Y-43918750D03*
X157100000Y-47118750D03*
X157100000Y-43918750D03*
X167700000Y-80100000D03*
X167700000Y-82700000D03*
X167700000Y-81400000D03*
D28*
X175142500Y-80900000D03*
D29*
X177682500Y-80900000D03*
X180222500Y-80900000D03*
D30*
X170650000Y-102900000D03*
X167350000Y-102900000D03*
D31*
X165900000Y-124050000D03*
X165900000Y-127350000D03*
X147500000Y-119050000D03*
X147500000Y-122350000D03*
X127000000Y-118050000D03*
X127000000Y-121350000D03*
X60300000Y-102850000D03*
X60300000Y-106150000D03*
X41300000Y-102850000D03*
X41300000Y-106150000D03*
X155600000Y-93150000D03*
X155600000Y-96450000D03*
X136600000Y-93150000D03*
X136600000Y-96450000D03*
X117500000Y-91050000D03*
X117500000Y-94350000D03*
X98500000Y-88850000D03*
X98500000Y-92150000D03*
X79400000Y-91050000D03*
X79400000Y-94350000D03*
X60325000Y-83850000D03*
X60325000Y-87150000D03*
X41300000Y-83850000D03*
X41300000Y-87150000D03*
X155600000Y-74150000D03*
X155600000Y-77450000D03*
X136600000Y-74150000D03*
X136600000Y-77450000D03*
X117475000Y-71950000D03*
X117475000Y-75250000D03*
X98500000Y-69850000D03*
X98500000Y-73150000D03*
X79375000Y-71950000D03*
X79375000Y-75250000D03*
X60325000Y-64750000D03*
X60325000Y-68050000D03*
X41300000Y-64750000D03*
X41300000Y-68050000D03*
X155600000Y-55050000D03*
X155600000Y-58350000D03*
X136600000Y-55050000D03*
X136600000Y-58350000D03*
X117500000Y-52950000D03*
X117500000Y-56250000D03*
X98500000Y-50750000D03*
X98500000Y-54050000D03*
X79400000Y-52850000D03*
X79400000Y-56150000D03*
X60325000Y-45750000D03*
X60325000Y-49050000D03*
X41275000Y-49050000D03*
X41275000Y-45750000D03*
X155600000Y-36050000D03*
X155600000Y-39350000D03*
X136600000Y-35950000D03*
X136600000Y-39250000D03*
X117500000Y-33850000D03*
X117500000Y-37150000D03*
X98500000Y-31650000D03*
X98500000Y-34950000D03*
X79400000Y-33850000D03*
X79400000Y-37150000D03*
X60300000Y-26650000D03*
X60300000Y-29950000D03*
X41300000Y-26650000D03*
X41300000Y-29950000D03*
M02*
