G04 #@! TF.GenerationSoftware,KiCad,Pcbnew,(5.1.6)-1*
G04 #@! TF.CreationDate,2020-08-03T21:48:45+03:00*
G04 #@! TF.ProjectId,ergo33,6572676f-3333-42e6-9b69-6361645f7063,rev?*
G04 #@! TF.SameCoordinates,Original*
G04 #@! TF.FileFunction,Legend,Top*
G04 #@! TF.FilePolarity,Positive*
%FSLAX46Y46*%
G04 Gerber Fmt 4.6, Leading zero omitted, Abs format (unit mm)*
G04 Created by KiCad (PCBNEW (5.1.6)-1) date 2020-08-03 21:48:45*
%MOMM*%
%LPD*%
G01*
G04 APERTURE LIST*
%ADD10C,0.010000*%
%ADD11C,0.120000*%
%ADD12C,3.600000*%
%ADD13C,0.750000*%
%ADD14O,1.100000X2.200000*%
%ADD15O,1.100000X1.700000*%
%ADD16C,3.100000*%
%ADD17C,4.087800*%
%ADD18C,1.850000*%
%ADD19C,2.100000*%
%ADD20R,3.300000X2.100000*%
%ADD21R,2.100000X2.100000*%
%ADD22R,1.800000X1.800000*%
%ADD23O,1.800000X1.800000*%
G04 APERTURE END LIST*
D10*
G36*
X87742330Y-110625330D02*
G01*
X87824815Y-110730142D01*
X87899392Y-110874591D01*
X87961747Y-111046749D01*
X88007566Y-111234685D01*
X88032536Y-111426470D01*
X88032344Y-111610175D01*
X88032203Y-111611908D01*
X87996023Y-111823770D01*
X87926970Y-112031672D01*
X87832517Y-112220460D01*
X87720139Y-112374977D01*
X87607079Y-112474006D01*
X87546285Y-112506031D01*
X87510645Y-112503629D01*
X87499133Y-112460812D01*
X87510726Y-112371588D01*
X87544398Y-112229968D01*
X87557138Y-112181981D01*
X87615763Y-111907917D01*
X87641614Y-111650228D01*
X87633560Y-111423966D01*
X87620184Y-111343727D01*
X87596629Y-111268183D01*
X87553339Y-111156945D01*
X87498707Y-111031249D01*
X87485301Y-111002278D01*
X87434657Y-110884090D01*
X87399687Y-110782552D01*
X87386073Y-110714945D01*
X87387085Y-110703554D01*
X87436129Y-110630474D01*
X87522880Y-110580713D01*
X87622537Y-110566386D01*
X87656248Y-110572085D01*
X87742330Y-110625330D01*
G37*
X87742330Y-110625330D02*
X87824815Y-110730142D01*
X87899392Y-110874591D01*
X87961747Y-111046749D01*
X88007566Y-111234685D01*
X88032536Y-111426470D01*
X88032344Y-111610175D01*
X88032203Y-111611908D01*
X87996023Y-111823770D01*
X87926970Y-112031672D01*
X87832517Y-112220460D01*
X87720139Y-112374977D01*
X87607079Y-112474006D01*
X87546285Y-112506031D01*
X87510645Y-112503629D01*
X87499133Y-112460812D01*
X87510726Y-112371588D01*
X87544398Y-112229968D01*
X87557138Y-112181981D01*
X87615763Y-111907917D01*
X87641614Y-111650228D01*
X87633560Y-111423966D01*
X87620184Y-111343727D01*
X87596629Y-111268183D01*
X87553339Y-111156945D01*
X87498707Y-111031249D01*
X87485301Y-111002278D01*
X87434657Y-110884090D01*
X87399687Y-110782552D01*
X87386073Y-110714945D01*
X87387085Y-110703554D01*
X87436129Y-110630474D01*
X87522880Y-110580713D01*
X87622537Y-110566386D01*
X87656248Y-110572085D01*
X87742330Y-110625330D01*
G36*
X93569586Y-109382119D02*
G01*
X78617621Y-105319760D01*
X76844501Y-111845925D01*
X76109158Y-111646137D01*
X78082066Y-104384629D01*
X93769375Y-108646776D01*
X93569586Y-109382119D01*
G37*
X93569586Y-109382119D02*
X78617621Y-105319760D01*
X76844501Y-111845925D01*
X76109158Y-111646137D01*
X78082066Y-104384629D01*
X93769375Y-108646776D01*
X93569586Y-109382119D01*
G36*
X88311824Y-109478559D02*
G01*
X89129126Y-109808748D01*
X89215530Y-109846902D01*
X89569825Y-110008789D01*
X89924777Y-110178897D01*
X90275832Y-110354502D01*
X90618438Y-110532880D01*
X90948041Y-110711307D01*
X91260090Y-110887057D01*
X91550030Y-111057406D01*
X91813311Y-111219632D01*
X92045378Y-111371008D01*
X92241679Y-111508812D01*
X92397661Y-111630319D01*
X92508771Y-111732803D01*
X92570458Y-111813542D01*
X92581133Y-111860795D01*
X92562302Y-111881485D01*
X92514616Y-111880397D01*
X92433339Y-111855646D01*
X92313734Y-111805347D01*
X92151065Y-111727616D01*
X91940595Y-111620565D01*
X91822307Y-111558795D01*
X91353541Y-111319298D01*
X90874498Y-111087367D01*
X90398514Y-110869000D01*
X89938926Y-110670196D01*
X89509072Y-110496952D01*
X89231510Y-110393566D01*
X89147009Y-110363956D01*
X89107763Y-110352422D01*
X89116620Y-110361021D01*
X89176426Y-110391810D01*
X89290033Y-110446847D01*
X89335312Y-110468527D01*
X89862735Y-110735991D01*
X90348900Y-111016171D01*
X90804033Y-111316851D01*
X91238361Y-111645817D01*
X91662113Y-112010851D01*
X92085515Y-112419737D01*
X92518795Y-112880259D01*
X92550750Y-112915734D01*
X92782141Y-113170266D01*
X93028073Y-113435375D01*
X93277404Y-113699370D01*
X93518987Y-113950555D01*
X93741675Y-114177236D01*
X93934324Y-114367718D01*
X93937914Y-114371194D01*
X94093034Y-114527752D01*
X94200079Y-114654355D01*
X94261748Y-114759186D01*
X94280740Y-114850428D01*
X94259751Y-114936263D01*
X94201481Y-115024874D01*
X94166634Y-115064785D01*
X94052333Y-115170841D01*
X93890085Y-115296095D01*
X93690142Y-115434356D01*
X93462760Y-115579431D01*
X93218192Y-115725126D01*
X92966693Y-115865248D01*
X92718517Y-115993606D01*
X92483917Y-116104005D01*
X92356317Y-116158092D01*
X91837642Y-116344442D01*
X91326980Y-116483207D01*
X90833877Y-116572090D01*
X90505443Y-116603332D01*
X90245171Y-116610101D01*
X89934712Y-116604619D01*
X89586008Y-116587746D01*
X89211001Y-116560350D01*
X88821635Y-116523295D01*
X88429851Y-116477443D01*
X88069330Y-116426988D01*
X87878063Y-116393559D01*
X87643549Y-116345762D01*
X87378617Y-116286813D01*
X87096101Y-116219929D01*
X86808832Y-116148326D01*
X86529642Y-116075220D01*
X86271362Y-116003828D01*
X86046826Y-115937367D01*
X85868864Y-115879053D01*
X85836095Y-115867214D01*
X85533592Y-115750362D01*
X85234927Y-115624159D01*
X84925105Y-115481772D01*
X84589126Y-115316366D01*
X84299070Y-115166877D01*
X83663691Y-114845823D01*
X83164327Y-114613894D01*
X87287029Y-115734008D01*
X87470662Y-115784860D01*
X87565167Y-115806995D01*
X87707167Y-115835170D01*
X87881282Y-115866569D01*
X88072128Y-115898370D01*
X88191494Y-115916961D01*
X88581022Y-115970949D01*
X88973198Y-116016087D01*
X89356333Y-116051504D01*
X89718741Y-116076332D01*
X90048731Y-116089702D01*
X90334613Y-116090745D01*
X90464716Y-116085978D01*
X90870648Y-116041655D01*
X91302828Y-115954072D01*
X91745355Y-115827460D01*
X92182324Y-115666048D01*
X92397877Y-115571709D01*
X92562298Y-115491828D01*
X92739247Y-115399369D01*
X92920482Y-115299366D01*
X93097764Y-115196852D01*
X93262851Y-115096862D01*
X93407502Y-115004429D01*
X93523477Y-114924587D01*
X93602535Y-114862372D01*
X93636435Y-114822816D01*
X93636134Y-114815299D01*
X93612008Y-114789106D01*
X93550681Y-114725315D01*
X93459542Y-114631536D01*
X93345984Y-114515378D01*
X93240487Y-114407921D01*
X93075355Y-114238021D01*
X92887679Y-114041706D01*
X92697259Y-113839874D01*
X92523902Y-113653425D01*
X92473404Y-113598385D01*
X92244963Y-113348912D01*
X92052634Y-113140368D01*
X91890204Y-112966340D01*
X91751461Y-112820417D01*
X91630193Y-112696187D01*
X91520187Y-112587240D01*
X91415234Y-112487163D01*
X91309119Y-112389546D01*
X91254773Y-112340630D01*
X91135876Y-112235264D01*
X91033518Y-112146490D01*
X90957121Y-112082338D01*
X90916110Y-112050837D01*
X90912575Y-112049027D01*
X90897465Y-112076170D01*
X90869038Y-112155583D01*
X90830170Y-112278138D01*
X90783739Y-112434704D01*
X90732619Y-112616152D01*
X90724004Y-112647588D01*
X90664638Y-112862555D01*
X90616352Y-113028858D01*
X90574401Y-113159329D01*
X90534037Y-113266800D01*
X90490517Y-113364105D01*
X90439096Y-113464076D01*
X90387742Y-113556979D01*
X90099483Y-114008777D01*
X89770134Y-114412904D01*
X89401524Y-114767988D01*
X88995488Y-115072654D01*
X88553856Y-115325529D01*
X88078458Y-115525241D01*
X87571130Y-115670417D01*
X87567279Y-115671281D01*
X87287029Y-115734008D01*
X83164327Y-114613894D01*
X83068149Y-114569225D01*
X82508440Y-114335601D01*
X81980559Y-114143472D01*
X81480503Y-113991356D01*
X81004266Y-113877773D01*
X80641577Y-113814214D01*
X80396846Y-113775739D01*
X80092383Y-113723181D01*
X79730283Y-113656930D01*
X79312642Y-113577379D01*
X78841554Y-113484921D01*
X78319115Y-113379946D01*
X78288322Y-113373693D01*
X77540005Y-113221656D01*
X77478459Y-113099905D01*
X77445423Y-113025902D01*
X77436525Y-112964922D01*
X77452264Y-112891805D01*
X77484310Y-112804095D01*
X77551132Y-112667124D01*
X78063037Y-112806206D01*
X78275091Y-112845152D01*
X78369749Y-112863060D01*
X78513979Y-112891014D01*
X78695103Y-112926522D01*
X78900441Y-112967097D01*
X79117315Y-113010248D01*
X79189236Y-113024625D01*
X79430118Y-113072011D01*
X79685263Y-113120772D01*
X79935986Y-113167435D01*
X80163602Y-113208527D01*
X80349427Y-113240576D01*
X80363709Y-113242938D01*
X80810197Y-113320498D01*
X81206297Y-113398782D01*
X81565057Y-113481358D01*
X81899525Y-113571792D01*
X82222748Y-113673651D01*
X82547775Y-113790502D01*
X82887655Y-113925912D01*
X82936296Y-113946188D01*
X83069553Y-114001706D01*
X83181244Y-114047679D01*
X83258350Y-114078783D01*
X83286844Y-114089519D01*
X83282283Y-114069322D01*
X83247542Y-114009262D01*
X83189550Y-113921007D01*
X83169465Y-113891937D01*
X83021191Y-113653038D01*
X82877891Y-113372868D01*
X82750095Y-113073413D01*
X82672069Y-112853473D01*
X82542957Y-112365488D01*
X82474041Y-111886706D01*
X82465256Y-111409871D01*
X82516544Y-110927722D01*
X82627840Y-110433006D01*
X82645070Y-110373407D01*
X83390122Y-110575833D01*
X83325759Y-110821957D01*
X83274600Y-111060504D01*
X83241074Y-111274585D01*
X83229590Y-111443163D01*
X83249563Y-111875942D01*
X83310051Y-112271697D01*
X83414636Y-112645060D01*
X83566902Y-113010664D01*
X83655890Y-113183852D01*
X83910743Y-113590698D01*
X84205939Y-113949011D01*
X84539197Y-114257330D01*
X84908238Y-114514192D01*
X85310783Y-114718135D01*
X85744549Y-114867700D01*
X86207259Y-114961420D01*
X86469679Y-114988387D01*
X86910433Y-114987742D01*
X87350073Y-114927105D01*
X87780803Y-114809628D01*
X88194828Y-114638466D01*
X88584352Y-114416772D01*
X88941577Y-114147702D01*
X89222713Y-113874579D01*
X89511543Y-113511298D01*
X89747068Y-113115126D01*
X89927688Y-112690034D01*
X90051802Y-112239995D01*
X90117810Y-111768979D01*
X90125670Y-111633664D01*
X90131762Y-111483105D01*
X89856726Y-111323213D01*
X89721961Y-111247828D01*
X89562901Y-111163525D01*
X89390398Y-111075539D01*
X89215305Y-110989104D01*
X89048473Y-110909458D01*
X88900755Y-110841833D01*
X88783003Y-110791467D01*
X88706071Y-110763595D01*
X88689044Y-110759904D01*
X88654596Y-110760860D01*
X88644079Y-110782699D01*
X88656973Y-110839251D01*
X88683132Y-110916885D01*
X88767463Y-111238586D01*
X88793512Y-111559992D01*
X88761277Y-111889905D01*
X88682886Y-112199957D01*
X88547953Y-112531283D01*
X88367104Y-112819980D01*
X88137891Y-113068934D01*
X87857861Y-113281031D01*
X87676836Y-113385358D01*
X87348931Y-113523058D01*
X87013095Y-113601434D01*
X86675649Y-113623042D01*
X86342914Y-113590437D01*
X86021210Y-113506176D01*
X85716858Y-113372815D01*
X85436179Y-113192909D01*
X85185495Y-112969016D01*
X84971124Y-112703689D01*
X84799389Y-112399486D01*
X84715549Y-112187889D01*
X84634486Y-111872572D01*
X84608840Y-111564500D01*
X84638158Y-111248201D01*
X84682165Y-111047183D01*
X84690348Y-111019011D01*
X85069055Y-111121903D01*
X85011306Y-111438966D01*
X85015116Y-111743414D01*
X85081092Y-112040430D01*
X85209835Y-112335199D01*
X85210864Y-112337092D01*
X85394243Y-112610776D01*
X85619030Y-112838327D01*
X85879952Y-113016661D01*
X86171737Y-113142693D01*
X86489112Y-113213337D01*
X86734065Y-113228161D01*
X87049481Y-113195736D01*
X87351690Y-113104297D01*
X87632957Y-112958097D01*
X87885553Y-112761385D01*
X88101740Y-112518411D01*
X88149856Y-112449948D01*
X88245218Y-112269243D01*
X88322213Y-112049509D01*
X88374921Y-111813987D01*
X88397419Y-111585915D01*
X88395696Y-111485061D01*
X88356705Y-111227000D01*
X88277416Y-110969024D01*
X88166243Y-110735603D01*
X88106006Y-110642228D01*
X87986243Y-110475031D01*
X87596113Y-110347371D01*
X87420572Y-110291849D01*
X87206973Y-110227228D01*
X86978706Y-110160425D01*
X86759158Y-110098358D01*
X86692901Y-110080175D01*
X86179819Y-109940641D01*
X85896190Y-110093539D01*
X85624540Y-110266587D01*
X85407691Y-110465986D01*
X85239932Y-110698834D01*
X85115555Y-110972232D01*
X85069055Y-111121903D01*
X84690348Y-111019011D01*
X84728061Y-110889171D01*
X84780421Y-110736608D01*
X84831174Y-110612100D01*
X84853490Y-110567315D01*
X84967725Y-110392478D01*
X85117357Y-110207818D01*
X85282958Y-110035546D01*
X85427792Y-109910818D01*
X85593159Y-109784786D01*
X85429704Y-109757436D01*
X85141109Y-109719820D01*
X84819690Y-109695771D01*
X84494966Y-109686797D01*
X84196459Y-109694403D01*
X84195884Y-109694438D01*
X84043829Y-109704196D01*
X83913776Y-109713822D01*
X83819513Y-109722208D01*
X83774829Y-109728245D01*
X83774787Y-109728258D01*
X83743277Y-109759691D01*
X83692647Y-109833276D01*
X83632610Y-109934586D01*
X83618167Y-109960895D01*
X83540754Y-110128412D01*
X83463263Y-110339022D01*
X83390122Y-110575833D01*
X82645070Y-110373407D01*
X82650818Y-110353521D01*
X82781989Y-109912593D01*
X82622547Y-109954505D01*
X82303422Y-110046355D01*
X81959935Y-110159454D01*
X81601012Y-110289835D01*
X81235578Y-110433534D01*
X80872558Y-110586582D01*
X80520877Y-110745012D01*
X80189462Y-110904859D01*
X79887238Y-111062155D01*
X79623129Y-111212933D01*
X79406061Y-111353227D01*
X79303561Y-111429564D01*
X79085809Y-111619490D01*
X78848849Y-111854990D01*
X78602623Y-112125216D01*
X78357064Y-112419325D01*
X78150333Y-112688048D01*
X78063037Y-112806206D01*
X77551132Y-112667124D01*
X77556298Y-112656535D01*
X77668228Y-112475905D01*
X77812682Y-112271431D01*
X77982238Y-112052340D01*
X78169479Y-111827857D01*
X78366982Y-111607210D01*
X78567330Y-111399624D01*
X78761958Y-111215352D01*
X78947001Y-111056255D01*
X79126713Y-110917819D01*
X79315786Y-110790424D01*
X79528908Y-110664454D01*
X79780768Y-110530295D01*
X79902079Y-110468970D01*
X80652738Y-110115833D01*
X81378665Y-109819003D01*
X82082690Y-109577581D01*
X82767645Y-109390668D01*
X83436361Y-109257365D01*
X83919701Y-109192990D01*
X84056778Y-109177098D01*
X84140133Y-109163282D01*
X84168194Y-109151046D01*
X84139388Y-109139892D01*
X84052146Y-109129324D01*
X83904895Y-109118846D01*
X83696062Y-109107960D01*
X83642837Y-109105513D01*
X83022612Y-109096818D01*
X82432420Y-109127487D01*
X81878097Y-109196858D01*
X81365482Y-109304264D01*
X81031115Y-109402889D01*
X80868479Y-109452805D01*
X80761049Y-109474402D01*
X80707069Y-109467430D01*
X80704782Y-109431636D01*
X80752433Y-109366766D01*
X80755596Y-109363297D01*
X80886119Y-109256744D01*
X81073599Y-109155641D01*
X81311630Y-109061234D01*
X81593809Y-108974765D01*
X81913729Y-108897481D01*
X82264990Y-108830625D01*
X82641183Y-108775441D01*
X82841526Y-108753988D01*
X84320119Y-109155713D01*
X84331276Y-109175195D01*
X84350758Y-109164038D01*
X84339601Y-109144556D01*
X84320119Y-109155713D01*
X82841526Y-108753988D01*
X83035907Y-108733175D01*
X83206045Y-108721422D01*
X88857390Y-110256858D01*
X88868547Y-110276340D01*
X88888029Y-110265183D01*
X88876872Y-110245701D01*
X88857390Y-110256858D01*
X83206045Y-108721422D01*
X83442755Y-108705071D01*
X83855325Y-108692372D01*
X84197826Y-108694432D01*
X85047444Y-108740999D01*
X85876706Y-108841100D01*
X86692559Y-108996331D01*
X87501950Y-109208285D01*
X88311824Y-109478559D01*
G37*
X88311824Y-109478559D02*
X89129126Y-109808748D01*
X89215530Y-109846902D01*
X89569825Y-110008789D01*
X89924777Y-110178897D01*
X90275832Y-110354502D01*
X90618438Y-110532880D01*
X90948041Y-110711307D01*
X91260090Y-110887057D01*
X91550030Y-111057406D01*
X91813311Y-111219632D01*
X92045378Y-111371008D01*
X92241679Y-111508812D01*
X92397661Y-111630319D01*
X92508771Y-111732803D01*
X92570458Y-111813542D01*
X92581133Y-111860795D01*
X92562302Y-111881485D01*
X92514616Y-111880397D01*
X92433339Y-111855646D01*
X92313734Y-111805347D01*
X92151065Y-111727616D01*
X91940595Y-111620565D01*
X91822307Y-111558795D01*
X91353541Y-111319298D01*
X90874498Y-111087367D01*
X90398514Y-110869000D01*
X89938926Y-110670196D01*
X89509072Y-110496952D01*
X89231510Y-110393566D01*
X89147009Y-110363956D01*
X89107763Y-110352422D01*
X89116620Y-110361021D01*
X89176426Y-110391810D01*
X89290033Y-110446847D01*
X89335312Y-110468527D01*
X89862735Y-110735991D01*
X90348900Y-111016171D01*
X90804033Y-111316851D01*
X91238361Y-111645817D01*
X91662113Y-112010851D01*
X92085515Y-112419737D01*
X92518795Y-112880259D01*
X92550750Y-112915734D01*
X92782141Y-113170266D01*
X93028073Y-113435375D01*
X93277404Y-113699370D01*
X93518987Y-113950555D01*
X93741675Y-114177236D01*
X93934324Y-114367718D01*
X93937914Y-114371194D01*
X94093034Y-114527752D01*
X94200079Y-114654355D01*
X94261748Y-114759186D01*
X94280740Y-114850428D01*
X94259751Y-114936263D01*
X94201481Y-115024874D01*
X94166634Y-115064785D01*
X94052333Y-115170841D01*
X93890085Y-115296095D01*
X93690142Y-115434356D01*
X93462760Y-115579431D01*
X93218192Y-115725126D01*
X92966693Y-115865248D01*
X92718517Y-115993606D01*
X92483917Y-116104005D01*
X92356317Y-116158092D01*
X91837642Y-116344442D01*
X91326980Y-116483207D01*
X90833877Y-116572090D01*
X90505443Y-116603332D01*
X90245171Y-116610101D01*
X89934712Y-116604619D01*
X89586008Y-116587746D01*
X89211001Y-116560350D01*
X88821635Y-116523295D01*
X88429851Y-116477443D01*
X88069330Y-116426988D01*
X87878063Y-116393559D01*
X87643549Y-116345762D01*
X87378617Y-116286813D01*
X87096101Y-116219929D01*
X86808832Y-116148326D01*
X86529642Y-116075220D01*
X86271362Y-116003828D01*
X86046826Y-115937367D01*
X85868864Y-115879053D01*
X85836095Y-115867214D01*
X85533592Y-115750362D01*
X85234927Y-115624159D01*
X84925105Y-115481772D01*
X84589126Y-115316366D01*
X84299070Y-115166877D01*
X83663691Y-114845823D01*
X83164327Y-114613894D01*
X87287029Y-115734008D01*
X87470662Y-115784860D01*
X87565167Y-115806995D01*
X87707167Y-115835170D01*
X87881282Y-115866569D01*
X88072128Y-115898370D01*
X88191494Y-115916961D01*
X88581022Y-115970949D01*
X88973198Y-116016087D01*
X89356333Y-116051504D01*
X89718741Y-116076332D01*
X90048731Y-116089702D01*
X90334613Y-116090745D01*
X90464716Y-116085978D01*
X90870648Y-116041655D01*
X91302828Y-115954072D01*
X91745355Y-115827460D01*
X92182324Y-115666048D01*
X92397877Y-115571709D01*
X92562298Y-115491828D01*
X92739247Y-115399369D01*
X92920482Y-115299366D01*
X93097764Y-115196852D01*
X93262851Y-115096862D01*
X93407502Y-115004429D01*
X93523477Y-114924587D01*
X93602535Y-114862372D01*
X93636435Y-114822816D01*
X93636134Y-114815299D01*
X93612008Y-114789106D01*
X93550681Y-114725315D01*
X93459542Y-114631536D01*
X93345984Y-114515378D01*
X93240487Y-114407921D01*
X93075355Y-114238021D01*
X92887679Y-114041706D01*
X92697259Y-113839874D01*
X92523902Y-113653425D01*
X92473404Y-113598385D01*
X92244963Y-113348912D01*
X92052634Y-113140368D01*
X91890204Y-112966340D01*
X91751461Y-112820417D01*
X91630193Y-112696187D01*
X91520187Y-112587240D01*
X91415234Y-112487163D01*
X91309119Y-112389546D01*
X91254773Y-112340630D01*
X91135876Y-112235264D01*
X91033518Y-112146490D01*
X90957121Y-112082338D01*
X90916110Y-112050837D01*
X90912575Y-112049027D01*
X90897465Y-112076170D01*
X90869038Y-112155583D01*
X90830170Y-112278138D01*
X90783739Y-112434704D01*
X90732619Y-112616152D01*
X90724004Y-112647588D01*
X90664638Y-112862555D01*
X90616352Y-113028858D01*
X90574401Y-113159329D01*
X90534037Y-113266800D01*
X90490517Y-113364105D01*
X90439096Y-113464076D01*
X90387742Y-113556979D01*
X90099483Y-114008777D01*
X89770134Y-114412904D01*
X89401524Y-114767988D01*
X88995488Y-115072654D01*
X88553856Y-115325529D01*
X88078458Y-115525241D01*
X87571130Y-115670417D01*
X87567279Y-115671281D01*
X87287029Y-115734008D01*
X83164327Y-114613894D01*
X83068149Y-114569225D01*
X82508440Y-114335601D01*
X81980559Y-114143472D01*
X81480503Y-113991356D01*
X81004266Y-113877773D01*
X80641577Y-113814214D01*
X80396846Y-113775739D01*
X80092383Y-113723181D01*
X79730283Y-113656930D01*
X79312642Y-113577379D01*
X78841554Y-113484921D01*
X78319115Y-113379946D01*
X78288322Y-113373693D01*
X77540005Y-113221656D01*
X77478459Y-113099905D01*
X77445423Y-113025902D01*
X77436525Y-112964922D01*
X77452264Y-112891805D01*
X77484310Y-112804095D01*
X77551132Y-112667124D01*
X78063037Y-112806206D01*
X78275091Y-112845152D01*
X78369749Y-112863060D01*
X78513979Y-112891014D01*
X78695103Y-112926522D01*
X78900441Y-112967097D01*
X79117315Y-113010248D01*
X79189236Y-113024625D01*
X79430118Y-113072011D01*
X79685263Y-113120772D01*
X79935986Y-113167435D01*
X80163602Y-113208527D01*
X80349427Y-113240576D01*
X80363709Y-113242938D01*
X80810197Y-113320498D01*
X81206297Y-113398782D01*
X81565057Y-113481358D01*
X81899525Y-113571792D01*
X82222748Y-113673651D01*
X82547775Y-113790502D01*
X82887655Y-113925912D01*
X82936296Y-113946188D01*
X83069553Y-114001706D01*
X83181244Y-114047679D01*
X83258350Y-114078783D01*
X83286844Y-114089519D01*
X83282283Y-114069322D01*
X83247542Y-114009262D01*
X83189550Y-113921007D01*
X83169465Y-113891937D01*
X83021191Y-113653038D01*
X82877891Y-113372868D01*
X82750095Y-113073413D01*
X82672069Y-112853473D01*
X82542957Y-112365488D01*
X82474041Y-111886706D01*
X82465256Y-111409871D01*
X82516544Y-110927722D01*
X82627840Y-110433006D01*
X82645070Y-110373407D01*
X83390122Y-110575833D01*
X83325759Y-110821957D01*
X83274600Y-111060504D01*
X83241074Y-111274585D01*
X83229590Y-111443163D01*
X83249563Y-111875942D01*
X83310051Y-112271697D01*
X83414636Y-112645060D01*
X83566902Y-113010664D01*
X83655890Y-113183852D01*
X83910743Y-113590698D01*
X84205939Y-113949011D01*
X84539197Y-114257330D01*
X84908238Y-114514192D01*
X85310783Y-114718135D01*
X85744549Y-114867700D01*
X86207259Y-114961420D01*
X86469679Y-114988387D01*
X86910433Y-114987742D01*
X87350073Y-114927105D01*
X87780803Y-114809628D01*
X88194828Y-114638466D01*
X88584352Y-114416772D01*
X88941577Y-114147702D01*
X89222713Y-113874579D01*
X89511543Y-113511298D01*
X89747068Y-113115126D01*
X89927688Y-112690034D01*
X90051802Y-112239995D01*
X90117810Y-111768979D01*
X90125670Y-111633664D01*
X90131762Y-111483105D01*
X89856726Y-111323213D01*
X89721961Y-111247828D01*
X89562901Y-111163525D01*
X89390398Y-111075539D01*
X89215305Y-110989104D01*
X89048473Y-110909458D01*
X88900755Y-110841833D01*
X88783003Y-110791467D01*
X88706071Y-110763595D01*
X88689044Y-110759904D01*
X88654596Y-110760860D01*
X88644079Y-110782699D01*
X88656973Y-110839251D01*
X88683132Y-110916885D01*
X88767463Y-111238586D01*
X88793512Y-111559992D01*
X88761277Y-111889905D01*
X88682886Y-112199957D01*
X88547953Y-112531283D01*
X88367104Y-112819980D01*
X88137891Y-113068934D01*
X87857861Y-113281031D01*
X87676836Y-113385358D01*
X87348931Y-113523058D01*
X87013095Y-113601434D01*
X86675649Y-113623042D01*
X86342914Y-113590437D01*
X86021210Y-113506176D01*
X85716858Y-113372815D01*
X85436179Y-113192909D01*
X85185495Y-112969016D01*
X84971124Y-112703689D01*
X84799389Y-112399486D01*
X84715549Y-112187889D01*
X84634486Y-111872572D01*
X84608840Y-111564500D01*
X84638158Y-111248201D01*
X84682165Y-111047183D01*
X84690348Y-111019011D01*
X85069055Y-111121903D01*
X85011306Y-111438966D01*
X85015116Y-111743414D01*
X85081092Y-112040430D01*
X85209835Y-112335199D01*
X85210864Y-112337092D01*
X85394243Y-112610776D01*
X85619030Y-112838327D01*
X85879952Y-113016661D01*
X86171737Y-113142693D01*
X86489112Y-113213337D01*
X86734065Y-113228161D01*
X87049481Y-113195736D01*
X87351690Y-113104297D01*
X87632957Y-112958097D01*
X87885553Y-112761385D01*
X88101740Y-112518411D01*
X88149856Y-112449948D01*
X88245218Y-112269243D01*
X88322213Y-112049509D01*
X88374921Y-111813987D01*
X88397419Y-111585915D01*
X88395696Y-111485061D01*
X88356705Y-111227000D01*
X88277416Y-110969024D01*
X88166243Y-110735603D01*
X88106006Y-110642228D01*
X87986243Y-110475031D01*
X87596113Y-110347371D01*
X87420572Y-110291849D01*
X87206973Y-110227228D01*
X86978706Y-110160425D01*
X86759158Y-110098358D01*
X86692901Y-110080175D01*
X86179819Y-109940641D01*
X85896190Y-110093539D01*
X85624540Y-110266587D01*
X85407691Y-110465986D01*
X85239932Y-110698834D01*
X85115555Y-110972232D01*
X85069055Y-111121903D01*
X84690348Y-111019011D01*
X84728061Y-110889171D01*
X84780421Y-110736608D01*
X84831174Y-110612100D01*
X84853490Y-110567315D01*
X84967725Y-110392478D01*
X85117357Y-110207818D01*
X85282958Y-110035546D01*
X85427792Y-109910818D01*
X85593159Y-109784786D01*
X85429704Y-109757436D01*
X85141109Y-109719820D01*
X84819690Y-109695771D01*
X84494966Y-109686797D01*
X84196459Y-109694403D01*
X84195884Y-109694438D01*
X84043829Y-109704196D01*
X83913776Y-109713822D01*
X83819513Y-109722208D01*
X83774829Y-109728245D01*
X83774787Y-109728258D01*
X83743277Y-109759691D01*
X83692647Y-109833276D01*
X83632610Y-109934586D01*
X83618167Y-109960895D01*
X83540754Y-110128412D01*
X83463263Y-110339022D01*
X83390122Y-110575833D01*
X82645070Y-110373407D01*
X82650818Y-110353521D01*
X82781989Y-109912593D01*
X82622547Y-109954505D01*
X82303422Y-110046355D01*
X81959935Y-110159454D01*
X81601012Y-110289835D01*
X81235578Y-110433534D01*
X80872558Y-110586582D01*
X80520877Y-110745012D01*
X80189462Y-110904859D01*
X79887238Y-111062155D01*
X79623129Y-111212933D01*
X79406061Y-111353227D01*
X79303561Y-111429564D01*
X79085809Y-111619490D01*
X78848849Y-111854990D01*
X78602623Y-112125216D01*
X78357064Y-112419325D01*
X78150333Y-112688048D01*
X78063037Y-112806206D01*
X77551132Y-112667124D01*
X77556298Y-112656535D01*
X77668228Y-112475905D01*
X77812682Y-112271431D01*
X77982238Y-112052340D01*
X78169479Y-111827857D01*
X78366982Y-111607210D01*
X78567330Y-111399624D01*
X78761958Y-111215352D01*
X78947001Y-111056255D01*
X79126713Y-110917819D01*
X79315786Y-110790424D01*
X79528908Y-110664454D01*
X79780768Y-110530295D01*
X79902079Y-110468970D01*
X80652738Y-110115833D01*
X81378665Y-109819003D01*
X82082690Y-109577581D01*
X82767645Y-109390668D01*
X83436361Y-109257365D01*
X83919701Y-109192990D01*
X84056778Y-109177098D01*
X84140133Y-109163282D01*
X84168194Y-109151046D01*
X84139388Y-109139892D01*
X84052146Y-109129324D01*
X83904895Y-109118846D01*
X83696062Y-109107960D01*
X83642837Y-109105513D01*
X83022612Y-109096818D01*
X82432420Y-109127487D01*
X81878097Y-109196858D01*
X81365482Y-109304264D01*
X81031115Y-109402889D01*
X80868479Y-109452805D01*
X80761049Y-109474402D01*
X80707069Y-109467430D01*
X80704782Y-109431636D01*
X80752433Y-109366766D01*
X80755596Y-109363297D01*
X80886119Y-109256744D01*
X81073599Y-109155641D01*
X81311630Y-109061234D01*
X81593809Y-108974765D01*
X81913729Y-108897481D01*
X82264990Y-108830625D01*
X82641183Y-108775441D01*
X82841526Y-108753988D01*
X84320119Y-109155713D01*
X84331276Y-109175195D01*
X84350758Y-109164038D01*
X84339601Y-109144556D01*
X84320119Y-109155713D01*
X82841526Y-108753988D01*
X83035907Y-108733175D01*
X83206045Y-108721422D01*
X88857390Y-110256858D01*
X88868547Y-110276340D01*
X88888029Y-110265183D01*
X88876872Y-110245701D01*
X88857390Y-110256858D01*
X83206045Y-108721422D01*
X83442755Y-108705071D01*
X83855325Y-108692372D01*
X84197826Y-108694432D01*
X85047444Y-108740999D01*
X85876706Y-108841100D01*
X86692559Y-108996331D01*
X87501950Y-109208285D01*
X88311824Y-109478559D01*
G36*
X94429609Y-120506010D02*
G01*
X78742301Y-116243863D01*
X78942089Y-115508520D01*
X93894055Y-119570880D01*
X95667175Y-113044714D01*
X96402517Y-113244502D01*
X94429609Y-120506010D01*
G37*
X94429609Y-120506010D02*
X78742301Y-116243863D01*
X78942089Y-115508520D01*
X93894055Y-119570880D01*
X95667175Y-113044714D01*
X96402517Y-113244502D01*
X94429609Y-120506010D01*
D11*
X178167500Y-94791250D02*
X177167500Y-94791250D01*
X177667500Y-95291250D02*
X177667500Y-94291250D01*
X171567500Y-91291250D02*
X171567500Y-88891250D01*
X171567500Y-96091250D02*
X171567500Y-93491250D01*
X171567500Y-100691250D02*
X171567500Y-98291250D01*
X184867500Y-98891250D02*
X185167500Y-98591250D01*
X185467500Y-98891250D02*
X184867500Y-98891250D01*
X185167500Y-98591250D02*
X185467500Y-98891250D01*
X183767500Y-100691250D02*
X183767500Y-88891250D01*
X179667500Y-100691250D02*
X183767500Y-100691250D01*
X179667500Y-88891250D02*
X183767500Y-88891250D01*
X171567500Y-88891250D02*
X175667500Y-88891250D01*
X175667500Y-100691250D02*
X171567500Y-100691250D01*
X180667500Y-94791250D02*
G75*
G03*
X180667500Y-94791250I-3000000J0D01*
G01*
%LPC*%
D12*
X159800000Y-32800000D03*
X126100000Y-67400000D03*
X101600000Y-26000000D03*
X66700000Y-24000000D03*
X69200000Y-64300000D03*
X31100000Y-37800000D03*
X31050000Y-94950000D03*
X66700000Y-110400000D03*
X104200000Y-120500000D03*
X173900000Y-120000000D03*
X192250000Y-94790000D03*
X187600000Y-33700000D03*
D13*
X176144999Y-32950000D03*
X170364999Y-32950000D03*
D14*
X168934999Y-33480000D03*
X177574999Y-33480000D03*
D15*
X168934999Y-29300000D03*
X177574999Y-29300000D03*
D16*
X150177500Y-51607500D03*
D17*
X147637500Y-56687500D03*
D16*
X143827500Y-54147500D03*
D18*
X142557500Y-56687500D03*
X152717500Y-56687500D03*
D16*
X54927500Y-42257500D03*
D17*
X52387500Y-47337500D03*
D16*
X48577500Y-44797500D03*
D18*
X47307500Y-47337500D03*
X57467500Y-47337500D03*
D16*
X112077500Y-49457500D03*
D17*
X109537500Y-54537500D03*
D16*
X105727500Y-51997500D03*
D18*
X104457500Y-54537500D03*
X114617500Y-54537500D03*
D16*
X73977500Y-68507500D03*
D17*
X71437500Y-73587500D03*
D16*
X67627500Y-71047500D03*
D18*
X66357500Y-73587500D03*
X76517500Y-73587500D03*
D19*
X170667500Y-92291250D03*
X170667500Y-97291250D03*
D20*
X177667500Y-89191250D03*
X177667500Y-100391250D03*
D19*
X185167500Y-92291250D03*
X185167500Y-94791250D03*
D21*
X185167500Y-97291250D03*
D16*
X161752002Y-120069247D03*
D17*
X157983750Y-124318750D03*
D16*
X154960973Y-120879198D03*
D18*
X153076847Y-123003949D03*
X162890653Y-125633551D03*
D16*
X143352002Y-115137997D03*
D17*
X139583750Y-119387500D03*
D16*
X136560973Y-115947948D03*
D18*
X134676847Y-118072699D03*
X144490653Y-120702301D03*
D16*
X122446044Y-114225743D03*
D17*
X119062500Y-118787500D03*
D16*
X115751449Y-115624489D03*
D18*
X114059677Y-117905367D03*
X124065323Y-119669633D03*
D16*
X54927500Y-99407500D03*
D17*
X52387500Y-104487500D03*
D16*
X48577500Y-101947500D03*
D18*
X47307500Y-104487500D03*
X57467500Y-104487500D03*
D16*
X35877500Y-99407500D03*
D17*
X33337500Y-104487500D03*
D16*
X29527500Y-101947500D03*
D18*
X28257500Y-104487500D03*
X38417500Y-104487500D03*
D16*
X150177500Y-89707500D03*
D17*
X147637500Y-94787500D03*
D16*
X143827500Y-92247500D03*
D18*
X142557500Y-94787500D03*
X152717500Y-94787500D03*
D16*
X131127500Y-89707500D03*
D17*
X128587500Y-94787500D03*
D16*
X124777500Y-92247500D03*
D18*
X123507500Y-94787500D03*
X133667500Y-94787500D03*
D16*
X112077500Y-87557500D03*
D17*
X109537500Y-92637500D03*
D16*
X105727500Y-90097500D03*
D18*
X104457500Y-92637500D03*
X114617500Y-92637500D03*
D16*
X93027500Y-85407500D03*
D17*
X90487500Y-90487500D03*
D16*
X86677500Y-87947500D03*
D18*
X85407500Y-90487500D03*
X95567500Y-90487500D03*
D16*
X73977500Y-87557500D03*
D17*
X71437500Y-92637500D03*
D16*
X67627500Y-90097500D03*
D18*
X66357500Y-92637500D03*
X76517500Y-92637500D03*
D16*
X54927500Y-80357500D03*
D17*
X52387500Y-85437500D03*
D16*
X48577500Y-82897500D03*
D18*
X47307500Y-85437500D03*
X57467500Y-85437500D03*
D16*
X35877500Y-80357500D03*
D17*
X33337500Y-85437500D03*
D16*
X29527500Y-82897500D03*
D18*
X28257500Y-85437500D03*
X38417500Y-85437500D03*
D16*
X150177500Y-70657500D03*
D17*
X147637500Y-75737500D03*
D16*
X143827500Y-73197500D03*
D18*
X142557500Y-75737500D03*
X152717500Y-75737500D03*
D16*
X131127500Y-70657500D03*
D17*
X128587500Y-75737500D03*
D16*
X124777500Y-73197500D03*
D18*
X123507500Y-75737500D03*
X133667500Y-75737500D03*
D16*
X112077500Y-68507500D03*
D17*
X109537500Y-73587500D03*
D16*
X105727500Y-71047500D03*
D18*
X104457500Y-73587500D03*
X114617500Y-73587500D03*
D16*
X93027500Y-66357500D03*
D17*
X90487500Y-71437500D03*
D16*
X86677500Y-68897500D03*
D18*
X85407500Y-71437500D03*
X95567500Y-71437500D03*
D16*
X54927500Y-61307500D03*
D17*
X52387500Y-66387500D03*
D16*
X48577500Y-63847500D03*
D18*
X47307500Y-66387500D03*
X57467500Y-66387500D03*
D16*
X35877500Y-61307500D03*
D17*
X33337500Y-66387500D03*
D16*
X29527500Y-63847500D03*
D18*
X28257500Y-66387500D03*
X38417500Y-66387500D03*
D16*
X131127500Y-51607500D03*
D17*
X128587500Y-56687500D03*
D16*
X124777500Y-54147500D03*
D18*
X123507500Y-56687500D03*
X133667500Y-56687500D03*
D16*
X93027500Y-47307500D03*
D17*
X90487500Y-52387500D03*
D16*
X86677500Y-49847500D03*
D18*
X85407500Y-52387500D03*
X95567500Y-52387500D03*
D16*
X73977500Y-49457500D03*
D17*
X71437500Y-54537500D03*
D16*
X67627500Y-51997500D03*
D18*
X66357500Y-54537500D03*
X76517500Y-54537500D03*
D16*
X35877500Y-42257500D03*
D17*
X33337500Y-47337500D03*
D16*
X29527500Y-44797500D03*
D18*
X28257500Y-47337500D03*
X38417500Y-47337500D03*
D16*
X150177500Y-32557500D03*
D17*
X147637500Y-37637500D03*
D16*
X143827500Y-35097500D03*
D18*
X142557500Y-37637500D03*
X152717500Y-37637500D03*
D16*
X131127500Y-32557500D03*
D17*
X128587500Y-37637500D03*
D16*
X124777500Y-35097500D03*
D18*
X123507500Y-37637500D03*
X133667500Y-37637500D03*
D16*
X112077500Y-30407500D03*
D17*
X109537500Y-35487500D03*
D16*
X105727500Y-32947500D03*
D18*
X104457500Y-35487500D03*
X114617500Y-35487500D03*
D16*
X93027500Y-28257500D03*
D17*
X90487500Y-33337500D03*
D16*
X86677500Y-30797500D03*
D18*
X85407500Y-33337500D03*
X95567500Y-33337500D03*
D16*
X73977500Y-30407500D03*
D17*
X71437500Y-35487500D03*
D16*
X67627500Y-32947500D03*
D18*
X66357500Y-35487500D03*
X76517500Y-35487500D03*
D16*
X54927500Y-23207500D03*
D17*
X52387500Y-28287500D03*
D16*
X48577500Y-25747500D03*
D18*
X47307500Y-28287500D03*
X57467500Y-28287500D03*
D16*
X35877500Y-23207500D03*
D17*
X33337500Y-28287500D03*
D16*
X29527500Y-25747500D03*
D18*
X28257500Y-28287500D03*
X38417500Y-28287500D03*
D22*
X175142500Y-80900000D03*
D23*
X177682500Y-80900000D03*
X180222500Y-80900000D03*
M02*
