M48
; DRILL file {KiCad (5.1.6)-1} date 07/24/20 22:58:34
; FORMAT={-:-/ absolute / inch / decimal}
; #@! TF.CreationDate,2020-07-24T22:58:34+03:00
; #@! TF.GenerationSoftware,Kicad,Pcbnew,(5.1.6)-1
; #@! TF.FileFunction,NonPlated,1,2,NPTH
FMAT,2
INCH
T1C0.0256
T2C0.0310
T3C0.0689
T4C0.0866
T5C0.1181
T6C0.1570
%
G90
G05
T1
X6.7073Y-1.2972
X6.9348Y-1.2972
T2
X2.1126Y-4.5827
X2.1626Y-4.5827
X2.2126Y-4.5827
X2.2626Y-4.5827
X2.3126Y-4.5827
X2.1126Y-4.5057
X2.1626Y-4.5057
X2.2126Y-4.5057
X2.2626Y-4.5057
X2.3126Y-4.5057
X1.152Y-4.5827
X1.202Y-4.5827
X1.252Y-4.5827
X1.302Y-4.5827
X1.352Y-4.5827
X1.152Y-4.5057
X1.202Y-4.5057
X1.252Y-4.5057
X1.302Y-4.5057
X1.352Y-4.5057
T3
X3.3625Y-2.8125
X3.7625Y-2.8125
X4.1125Y-1.3971
X4.5125Y-1.3971
X4.4905Y-4.6419
X4.8845Y-4.7114
X4.1125Y-2.1471
X4.5125Y-2.1471
X1.8625Y-3.3637
X2.2625Y-3.3637
X3.3625Y-3.5625
X3.7625Y-3.5625
X3.3625Y-2.0625
X3.7625Y-2.0625
X5.3022Y-4.6485
X5.6886Y-4.7521
X1.8625Y-1.8637
X2.2625Y-1.8637
X4.8625Y-1.4818
X5.2625Y-1.4818
X4.1125Y-3.6471
X4.5125Y-3.6471
X1.8625Y-2.6137
X2.2625Y-2.6137
X6.0266Y-4.8427
X6.413Y-4.9462
X1.1125Y-3.3637
X1.5125Y-3.3637
X1.1125Y-1.8637
X1.5125Y-1.8637
X1.1125Y-1.1137
X1.5125Y-1.1137
X4.8625Y-3.7318
X5.2625Y-3.7318
X5.6125Y-1.4818
X6.0125Y-1.4818
X5.6125Y-2.2318
X6.0125Y-2.2318
X5.6125Y-2.9818
X6.0125Y-2.9818
X2.6125Y-3.6471
X3.0125Y-3.6471
X1.8625Y-1.1137
X2.2625Y-1.1137
X4.1125Y-2.8971
X4.5125Y-2.8971
X5.6125Y-3.7318
X6.0125Y-3.7318
X4.8625Y-2.2318
X5.2625Y-2.2318
X2.6125Y-1.3971
X3.0125Y-1.3971
X1.1125Y-2.6137
X1.5125Y-2.6137
X1.1125Y-4.1137
X1.5125Y-4.1137
X2.6125Y-2.1471
X3.0125Y-2.1471
X3.3625Y-1.3125
X3.7625Y-1.3125
X4.8625Y-2.9818
X5.2625Y-2.9818
X1.8625Y-4.1137
X2.2625Y-4.1137
X2.6125Y-2.8971
X3.0125Y-2.8971
T4
X1.0669Y-4.7283
X1.0669Y-5.4035
T5
X5.6625Y-2.8818
X5.9125Y-2.7818
X2.6625Y-3.5471
X2.9125Y-3.4471
X1.9125Y-1.0137
X2.1625Y-0.9137
X4.1625Y-2.7971
X4.4125Y-2.6971
X5.6625Y-3.6318
X5.9125Y-3.5318
X4.9125Y-2.1318
X5.1625Y-2.0318
X2.6625Y-1.2971
X2.9125Y-1.1971
X1.1625Y-2.5137
X1.4125Y-2.4137
X1.1625Y-4.0137
X1.4125Y-3.9137
X2.6625Y-2.0471
X2.9125Y-1.9471
X3.4125Y-1.2125
X3.6625Y-1.1125
X4.9125Y-2.8818
X5.1625Y-2.7818
X1.9125Y-4.0137
X2.1625Y-3.9137
X2.6625Y-2.7971
X2.9125Y-2.6971
X3.4125Y-2.7125
X3.6625Y-2.6125
X4.1625Y-1.2971
X4.4125Y-1.1971
X4.5571Y-4.5521
X4.8207Y-4.4971
X4.1625Y-2.0471
X4.4125Y-1.9471
X1.9125Y-3.2637
X2.1625Y-3.1637
X3.4125Y-3.4625
X3.6625Y-3.3625
X3.4125Y-1.9625
X3.6625Y-1.8625
X5.3764Y-4.5649
X5.6438Y-4.533
X1.9125Y-1.7637
X2.1625Y-1.6637
X4.9125Y-1.3818
X5.1625Y-1.2818
X4.1625Y-3.5471
X4.4125Y-3.4471
X1.9125Y-2.5137
X2.1625Y-2.4137
X6.1008Y-4.759
X6.3682Y-4.7271
X1.1625Y-3.2637
X1.4125Y-3.1637
X1.1625Y-1.7637
X1.4125Y-1.6637
X1.1625Y-1.0137
X1.4125Y-0.9137
X4.9125Y-3.6318
X5.1625Y-3.5318
X5.6625Y-1.3818
X5.9125Y-1.2818
X5.6625Y-2.1318
X5.9125Y-2.0318
T6
X5.8125Y-2.9818
X2.8125Y-3.6471
X2.0625Y-1.1137
X4.3125Y-2.8971
X5.8125Y-3.7318
X5.0625Y-2.2318
X2.8125Y-1.3971
X1.3125Y-2.6137
X1.3125Y-4.1137
X2.8125Y-2.1471
X3.5625Y-1.3125
X5.0625Y-2.9818
X2.0625Y-4.1137
X2.8125Y-2.8971
X3.5625Y-2.8125
X4.3125Y-1.3971
X4.6875Y-4.6767
X4.3125Y-2.1471
X2.0625Y-3.3637
X3.5625Y-3.5625
X3.5625Y-2.0625
X5.4954Y-4.7003
X2.0625Y-1.8637
X5.0625Y-1.4818
X4.3125Y-3.6471
X2.0625Y-2.6137
X6.2198Y-4.8944
X1.3125Y-3.3637
X1.3125Y-1.8637
X1.3125Y-1.1137
X5.0625Y-3.7318
X5.8125Y-1.4818
X5.8125Y-2.2318
T0
M30
