M48
; DRILL file {KiCad (5.1.6)-1} date 07/24/20 22:58:34
; FORMAT={-:-/ absolute / inch / decimal}
; #@! TF.CreationDate,2020-07-24T22:58:34+03:00
; #@! TF.GenerationSoftware,Kicad,Pcbnew,(5.1.6)-1
; #@! TF.FileFunction,Plated,1,2,PTH
FMAT,2
INCH
T1C0.0157
T2C0.0236
T3C0.0394
T4C0.0591
T5C0.0866
%
G90
G05
T1
X1.0354Y-1.122
X1.0354Y-1.874
X1.0354Y-2.0079
X1.0354Y-2.622
X1.0354Y-3.374
X1.0354Y-3.9055
X1.5039Y-3.7362
X1.5394Y-1.311
X1.5394Y-2.8189
X1.689Y-1.5669
X1.689Y-2.7608
X1.6929Y-3.0748
X1.6929Y-3.5236
X1.7835Y-1.122
X1.7835Y-1.874
X1.7835Y-2.0364
X1.7835Y-2.622
X1.7835Y-3.374
X1.7835Y-3.9055
X1.9409Y-3.0236
X2.437Y-3.685
X2.5349Y-2.2997
X2.5354Y-1.4055
X2.5354Y-2.1575
X2.5354Y-2.9055
X2.5354Y-3.4409
X2.8858Y-1.7008
X3.0Y-4.0827
X3.2835Y-1.3228
X3.2835Y-2.0709
X3.2835Y-2.3593
X3.2835Y-2.8228
X3.2835Y-3.3543
X4.0354Y-1.4055
X4.0354Y-2.1575
X4.0354Y-2.3789
X4.0354Y-2.9055
X4.0354Y-3.437
X4.3858Y-1.7008
X4.4291Y-4.4134
X4.5039Y-4.1732
X4.7835Y-1.4921
X4.7835Y-2.2402
X4.7835Y-2.4852
X4.7835Y-2.9921
X4.7835Y-3.5236
X5.252Y-4.4134
X5.5354Y-1.4921
X5.5354Y-2.2402
X5.5354Y-2.5049
X5.5354Y-2.9921
X5.5354Y-3.5236
X5.7874Y-1.7835
X5.9724Y-4.6063
X6.2047Y-3.9213
X6.2234Y-3.7953
X6.252Y-4.3898
X6.2598Y-1.9291
X6.2598Y-3.0118
X6.2717Y-1.8031
X6.2874Y-3.8898
X6.3543Y-3.5551
X6.437Y-1.3583
X6.4572Y-3.5946
X6.4803Y-2.2165
X6.5472Y-3.4213
X6.5748Y-2.4291
X6.5748Y-2.7835
X6.5984Y-2.2283
X6.622Y-3.6299
X6.6299Y-1.4764
X6.7008Y-1.4803
X6.7008Y-1.5787
X6.7008Y-1.8465
X6.7913Y-1.8976
X6.7953Y-3.185
X6.811Y-2.2008
X6.815Y-2.1457
X6.8346Y-1.8583
X6.8346Y-2.2874
X6.8455Y-2.9203
X6.8858Y-2.9213
X6.9173Y-1.4803
X7.0157Y-1.4803
X7.0787Y-1.8268
X7.0866Y-2.9094
X7.0906Y-2.3031
X7.1102Y-2.0039
X7.1929Y-3.7323
X7.2047Y-1.3583
X7.2087Y-2.5394
X7.2126Y-1.5827
X7.2953Y-2.2441
X7.315Y-2.1063
X7.3583Y-2.0551
X7.5315Y-2.4843
X7.5315Y-2.6929
T3
X6.7192Y-3.6335
X6.7192Y-3.8304
X7.2901Y-3.6335
X7.2901Y-3.7319
X7.2901Y-3.8304
X6.8954Y-3.185
X6.9954Y-3.185
X7.0954Y-3.185
X1.0673Y-4.9654
X1.0673Y-5.0654
X1.0673Y-5.1654
T5
X4.9646Y-2.6535
X2.626Y-4.3465
X1.2244Y-1.4882
X2.626Y-0.9449
X1.2224Y-3.7382
X7.3858Y-1.3268
X2.7244Y-2.5315
X6.8465Y-4.7244
X7.5689Y-3.7319
X4.0Y-1.0236
X4.1024Y-4.7441
X6.2913Y-1.2913
T2
G00X6.651Y-1.1417
M15
G01X6.651Y-1.1654
M16
G05
G00X6.651Y-1.2965
M15
G01X6.651Y-1.3398
M16
G05
G00X6.9911Y-1.1417
M15
G01X6.9911Y-1.1654
M16
G05
G00X6.9911Y-1.2965
M15
G01X6.9911Y-1.3398
M16
G05
T4
G00X7.0204Y-3.5115
M15
G01X6.9692Y-3.5115
M16
G05
G00X7.0204Y-3.9524
M15
G01X6.9692Y-3.9524
M16
G05
T0
M30
